SplineFontDB: 3.0
FontName: Kenia-Regular
FullName: Kenia
FamilyName: Kenia
Weight: Book
Copyright: Copyright (c) 2010, Julia Petretta (julia.petretta@googlemail.com), with Reserved Font Name Kenia
Version: 1.001
ItalicAngle: 0
UnderlinePosition: -50
UnderlineWidth: 50
Ascent: 750
Descent: 250
sfntRevision: 0x00010000
LayerCount: 2
Layer: 0 1 "Back"  1
Layer: 1 1 "Fore"  0
XUID: [1021 69 848591608 12585222]
FSType: 0
OS2Version: 3
OS2_WeightWidthSlopeOnly: 0
OS2_UseTypoMetrics: 1
CreationTime: 1291738200
ModificationTime: 1335895495
PfmFamily: 17
TTFWeight: 400
TTFWidth: 5
LineGap: 0
VLineGap: 0
Panose: 2 0 5 6 5 0 0 2 0 3
OS2TypoAscent: 0
OS2TypoAOffset: 1
OS2TypoDescent: 0
OS2TypoDOffset: 1
OS2TypoLinegap: 0
OS2WinAscent: 0
OS2WinAOffset: 1
OS2WinDescent: 0
OS2WinDOffset: 1
HheadAscent: -208
HheadAOffset: 1
HheadDescent: 80
HheadDOffset: 1
OS2SubXSize: 700
OS2SubYSize: 650
OS2SubXOff: 0
OS2SubYOff: 140
OS2SupXSize: 700
OS2SupYSize: 650
OS2SupXOff: 0
OS2SupYOff: 477
OS2StrikeYSize: 50
OS2StrikeYPos: 250
OS2Vendor: 'pyrs'
OS2CodePages: 00000001.00000000
OS2UnicodeRanges: 80000003.00000000.00000000.00000000
Lookup: 258 0 0 "'kern' Horizontal Kerning in Latin lookup 0"  {"'kern' Horizontal Kerning in Latin lookup 0 per glyph data 0"  "'kern' Horizontal Kerning in Latin lookup 0 per glyph data 1"  "'kern' Horizontal Kerning in Latin lookup 0 kerning class 2"  "'kern' Horizontal Kerning in Latin lookup 0 kerning class 3"  "'kern' Horizontal Kerning in Latin lookup 0 kerning class 4"  "'kern' Horizontal Kerning in Latin lookup 0 kerning class 5"  "'kern' Horizontal Kerning in Latin lookup 0 kerning class 6"  "'kern' Horizontal Kerning in Latin lookup 0 kerning class 7"  "'kern' Horizontal Kerning in Latin lookup 0 kerning class 8"  "'kern' Horizontal Kerning in Latin lookup 0 kerning class 9"  } ['kern' ('latn' <'dflt' > ) ]
DEI: 91125
KernClass2: 2+ 3 "'kern' Horizontal Kerning in Latin lookup 0 kerning class 2" 
 3 P R
 1 T
 1 r

StartChar: g
Encoding: 103 103 4
Width: 452
Flags: W
LayerCount: 2
Fore
SplineSet
179 156 m 2,0,1
 179 144 179 144 180.5 133 c 128,-1,2
 182 122 182 122 186.5 113.5 c 128,-1,3
 191 105 191 105 199.5 99.5 c 128,-1,4
 208 94 208 94 223 94 c 0,5,6
 231 94 231 94 239.5 96.5 c 128,-1,7
 248 99 248 99 255 105 c 1,8,9
 259 97 259 97 260 89.5 c 128,-1,10
 261 82 261 82 261 74 c 0,11,12
 261 42 261 42 234 21 c 128,-1,13
 207 0 207 0 169 0 c 0,14,15
 109 0 109 0 77 32 c 128,-1,16
 45 64 45 64 45 112 c 2,17,-1
 45 390 l 2,18,19
 45 423 45 423 57.5 445.5 c 128,-1,20
 70 468 70 468 89.5 482 c 128,-1,21
 109 496 109 496 132.5 502 c 128,-1,22
 156 508 156 508 179 508 c 1,23,-1
 179 156 l 2,0,1
273 352 m 2,24,25
 273 364 273 364 271.5 375 c 128,-1,26
 270 386 270 386 265.5 394.5 c 128,-1,27
 261 403 261 403 252.5 408.5 c 128,-1,28
 244 414 244 414 229 414 c 0,29,30
 221 414 221 414 212.5 411.5 c 128,-1,31
 204 409 204 409 197 403 c 1,32,33
 193 411 193 411 192 418.5 c 128,-1,34
 191 426 191 426 191 434 c 0,35,36
 191 466 191 466 218 487 c 128,-1,37
 245 508 245 508 283 508 c 0,38,39
 343 508 343 508 375 477.5 c 128,-1,40
 407 447 407 447 407 390 c 2,41,-1
 407 -21 l 2,42,43
 407 -47 407 -47 395.5 -68.5 c 128,-1,44
 384 -90 384 -90 365 -106 c 128,-1,45
 346 -122 346 -122 322 -131 c 128,-1,46
 298 -140 298 -140 273 -140 c 1,47,-1
 273 352 l 2,24,25
111 -178 m 0,48,49
 111 -147 111 -147 123 -127.5 c 128,-1,50
 135 -108 135 -108 152 -97 c 128,-1,51
 169 -86 169 -86 188 -82.5 c 128,-1,52
 207 -79 207 -79 221 -79 c 0,53,54
 233 -79 233 -79 241 -81 c 1,55,-1
 241 -127 l 2,56,57
 241 -148 241 -148 251 -158 c 128,-1,58
 261 -168 261 -168 276 -168 c 0,59,60
 294 -168 294 -168 308 -156 c 1,61,62
 311 -164 311 -164 311.5 -170.5 c 128,-1,63
 312 -177 312 -177 312 -185 c 0,64,65
 312 -197 312 -197 306.5 -212.5 c 128,-1,66
 301 -228 301 -228 289.5 -241.5 c 128,-1,67
 278 -255 278 -255 259.5 -264.5 c 128,-1,68
 241 -274 241 -274 215 -274 c 0,69,70
 188 -274 188 -274 168.5 -265 c 128,-1,71
 149 -256 149 -256 136.5 -242.5 c 128,-1,72
 124 -229 124 -229 117.5 -212 c 128,-1,73
 111 -195 111 -195 111 -178 c 0,48,49
EndSplineSet
EndChar

StartChar: a
Encoding: 97 97 5
Width: 452
Flags: W
LayerCount: 2
Fore
SplineSet
273 352 m 2,0,1
 273 364 273 364 271.5 375 c 128,-1,2
 270 386 270 386 265.5 394.5 c 128,-1,3
 261 403 261 403 252.5 408.5 c 128,-1,4
 244 414 244 414 229 414 c 0,5,6
 221 414 221 414 212.5 411.5 c 128,-1,7
 204 409 204 409 197 403 c 1,8,9
 193 411 193 411 192 418.5 c 128,-1,10
 191 426 191 426 191 434 c 0,11,12
 191 466 191 466 218 487 c 128,-1,13
 245 508 245 508 283 508 c 0,14,15
 343 508 343 508 375 477.5 c 128,-1,16
 407 447 407 447 407 390 c 2,17,-1
 407 0 l 1,18,19
 384 0 384 0 360.5 5.5 c 128,-1,20
 337 11 337 11 317.5 24.5 c 128,-1,21
 298 38 298 38 285.5 60.5 c 128,-1,22
 273 83 273 83 273 118 c 2,23,-1
 273 352 l 2,0,1
179 156 m 2,24,25
 179 144 179 144 180.5 133 c 128,-1,26
 182 122 182 122 186.5 113.5 c 128,-1,27
 191 105 191 105 199.5 99.5 c 128,-1,28
 208 94 208 94 223 94 c 0,29,30
 231 94 231 94 239.5 96.5 c 128,-1,31
 248 99 248 99 255 105 c 1,32,33
 259 97 259 97 260 89.5 c 128,-1,34
 261 82 261 82 261 74 c 0,35,36
 261 42 261 42 234 21 c 128,-1,37
 207 0 207 0 169 0 c 0,38,39
 109 0 109 0 77 32 c 128,-1,40
 45 64 45 64 45 112 c 2,41,-1
 45 390 l 2,42,43
 45 423 45 423 57.5 445.5 c 128,-1,44
 70 468 70 468 89.5 482 c 128,-1,45
 109 496 109 496 132.5 502 c 128,-1,46
 156 508 156 508 179 508 c 1,47,-1
 179 156 l 2,24,25
EndSplineSet
EndChar

StartChar: l
Encoding: 108 108 6
Width: 224
Flags: W
LayerCount: 2
Fore
SplineSet
45 726 m 1,0,-1
 56 726 l 2,1,2
 108 726 108 726 143.5 698 c 128,-1,3
 179 670 179 670 179 609 c 2,4,-1
 179 0 l 1,5,-1
 173 0 l 2,6,7
 150 0 150 0 127.5 6 c 128,-1,8
 105 12 105 12 86.5 25.5 c 128,-1,9
 68 39 68 39 56.5 60.5 c 128,-1,10
 45 82 45 82 45 114 c 2,11,-1
 45 726 l 1,0,-1
EndSplineSet
EndChar

StartChar: h
Encoding: 104 104 7
Width: 452
Flags: W
LayerCount: 2
Fore
SplineSet
45 726 m 1,0,-1
 56 726 l 2,1,2
 108 726 108 726 143.5 698 c 128,-1,3
 179 670 179 670 179 609 c 2,4,-1
 179 0 l 1,5,-1
 173 0 l 2,6,7
 150 0 150 0 127.5 6 c 128,-1,8
 105 12 105 12 86.5 25.5 c 128,-1,9
 68 39 68 39 56.5 60.5 c 128,-1,10
 45 82 45 82 45 114 c 2,11,-1
 45 726 l 1,0,-1
273 352 m 2,12,13
 273 364 273 364 271.5 375 c 128,-1,14
 270 386 270 386 265.5 394.5 c 128,-1,15
 261 403 261 403 252.5 408.5 c 128,-1,16
 244 414 244 414 229 414 c 0,17,18
 221 414 221 414 212.5 411.5 c 128,-1,19
 204 409 204 409 197 403 c 1,20,21
 193 411 193 411 192 418.5 c 128,-1,22
 191 426 191 426 191 434 c 0,23,24
 191 466 191 466 218 487 c 128,-1,25
 245 508 245 508 283 508 c 0,26,27
 343 508 343 508 375 477.5 c 128,-1,28
 407 447 407 447 407 390 c 2,29,-1
 407 0 l 1,30,31
 384 0 384 0 360.5 5.5 c 128,-1,32
 337 11 337 11 317.5 24.5 c 128,-1,33
 298 38 298 38 285.5 60.5 c 128,-1,34
 273 83 273 83 273 118 c 2,35,-1
 273 352 l 2,12,13
EndSplineSet
EndChar

StartChar: o
Encoding: 111 111 8
Width: 452
Flags: W
LayerCount: 2
Fore
SplineSet
179 156 m 2,0,1
 179 144 179 144 180.5 133 c 128,-1,2
 182 122 182 122 186.5 113.5 c 128,-1,3
 191 105 191 105 199.5 99.5 c 128,-1,4
 208 94 208 94 223 94 c 0,5,6
 231 94 231 94 239.5 96.5 c 128,-1,7
 248 99 248 99 255 105 c 1,8,9
 259 97 259 97 260 89.5 c 128,-1,10
 261 82 261 82 261 74 c 0,11,12
 261 42 261 42 234 21 c 128,-1,13
 207 0 207 0 169 0 c 0,14,15
 109 0 109 0 77 32 c 128,-1,16
 45 64 45 64 45 112 c 2,17,-1
 45 390 l 2,18,19
 45 423 45 423 57.5 445.5 c 128,-1,20
 70 468 70 468 89.5 482 c 128,-1,21
 109 496 109 496 132.5 502 c 128,-1,22
 156 508 156 508 179 508 c 1,23,-1
 179 156 l 2,0,1
407 118 m 2,24,25
 407 83 407 83 394.5 60.5 c 128,-1,26
 382 38 382 38 362.5 24.5 c 128,-1,27
 343 11 343 11 319 5.5 c 128,-1,28
 295 0 295 0 273 0 c 1,29,-1
 273 352 l 2,30,31
 273 364 273 364 271.5 375 c 128,-1,32
 270 386 270 386 265.5 394.5 c 128,-1,33
 261 403 261 403 252.5 408.5 c 128,-1,34
 244 414 244 414 229 414 c 0,35,36
 221 414 221 414 212.5 411.5 c 128,-1,37
 204 409 204 409 197 403 c 1,38,39
 193 411 193 411 192 418.5 c 128,-1,40
 191 426 191 426 191 434 c 0,41,42
 191 466 191 466 218 487 c 128,-1,43
 245 508 245 508 283 508 c 0,44,45
 343 508 343 508 375 477.5 c 128,-1,46
 407 447 407 447 407 390 c 2,47,-1
 407 118 l 2,24,25
EndSplineSet
EndChar

StartChar: p
Encoding: 112 112 9
Width: 452
Flags: W
LayerCount: 2
Fore
SplineSet
273 508 m 1,0,1
 295 508 295 508 319 502 c 128,-1,2
 343 496 343 496 362.5 482 c 128,-1,3
 382 468 382 468 394.5 445.5 c 128,-1,4
 407 423 407 423 407 390 c 2,5,-1
 407 122 l 2,6,7
 407 65 407 65 377 32.5 c 128,-1,8
 347 0 347 0 290 0 c 0,9,10
 271 0 271 0 253.5 5.5 c 128,-1,11
 236 11 236 11 222.5 20.5 c 128,-1,12
 209 30 209 30 201 43.5 c 128,-1,13
 193 57 193 57 193 73 c 0,14,15
 193 79 193 79 193.5 88 c 128,-1,16
 194 97 194 97 197 105 c 1,17,18
 211 92 211 92 234 92 c 0,19,20
 260 92 260 92 266.5 111.5 c 128,-1,21
 273 131 273 131 273 156 c 2,22,-1
 273 508 l 1,0,1
45 390 m 2,23,24
 45 447 45 447 77 478 c 128,-1,25
 109 509 109 509 169 509 c 0,26,27
 208 509 208 509 233 487 c 128,-1,28
 258 465 258 465 258 435 c 0,29,30
 258 426 258 426 257.5 417.5 c 128,-1,31
 257 409 257 409 253 401 c 1,32,33
 239 414 239 414 223 414 c 0,34,35
 208 414 208 414 199.5 408.5 c 128,-1,36
 191 403 191 403 186.5 394.5 c 128,-1,37
 182 386 182 386 180.5 375 c 128,-1,38
 179 364 179 364 179 352 c 2,39,-1
 179 -249 l 1,40,41
 156 -249 156 -249 132.5 -243.5 c 128,-1,42
 109 -238 109 -238 89.5 -224.5 c 128,-1,43
 70 -211 70 -211 57.5 -188.5 c 128,-1,44
 45 -166 45 -166 45 -131 c 2,45,-1
 45 390 l 2,23,24
EndSplineSet
EndChar

StartChar: q
Encoding: 113 113 10
Width: 452
Flags: W
LayerCount: 2
Fore
SplineSet
179 156 m 2,0,1
 179 144 179 144 180.5 133 c 128,-1,2
 182 122 182 122 186.5 113.5 c 128,-1,3
 191 105 191 105 199.5 99.5 c 128,-1,4
 208 94 208 94 223 94 c 0,5,6
 231 94 231 94 239.5 96.5 c 128,-1,7
 248 99 248 99 255 105 c 1,8,9
 259 97 259 97 259.5 89.5 c 128,-1,10
 260 82 260 82 260 74 c 0,11,12
 260 42 260 42 233.5 21 c 128,-1,13
 207 0 207 0 169 0 c 0,14,15
 109 0 109 0 77 32 c 128,-1,16
 45 64 45 64 45 112 c 2,17,-1
 45 390 l 2,18,19
 45 423 45 423 57.5 445.5 c 128,-1,20
 70 468 70 468 89.5 482 c 128,-1,21
 109 496 109 496 132.5 502 c 128,-1,22
 156 508 156 508 179 508 c 1,23,-1
 179 156 l 2,0,1
407 -131 m 2,24,25
 407 -166 407 -166 394.5 -188.5 c 128,-1,26
 382 -211 382 -211 362.5 -224.5 c 128,-1,27
 343 -238 343 -238 319 -243.5 c 128,-1,28
 295 -249 295 -249 273 -249 c 1,29,-1
 273 352 l 2,30,31
 273 364 273 364 271.5 375 c 128,-1,32
 270 386 270 386 265.5 394.5 c 128,-1,33
 261 403 261 403 252.5 408.5 c 128,-1,34
 244 414 244 414 229 414 c 0,35,36
 221 414 221 414 212.5 411.5 c 128,-1,37
 204 409 204 409 197 403 c 1,38,39
 193 411 193 411 192.5 418.5 c 128,-1,40
 192 426 192 426 192 434 c 0,41,42
 192 466 192 466 218 487 c 128,-1,43
 244 508 244 508 283 508 c 0,44,45
 343 508 343 508 375 477.5 c 128,-1,46
 407 447 407 447 407 390 c 2,47,-1
 407 -131 l 2,24,25
EndSplineSet
EndChar

StartChar: d
Encoding: 100 100 11
Width: 452
Flags: W
LayerCount: 2
Fore
SplineSet
273 726 m 1,0,-1
 285 726 l 2,1,2
 310 726 310 726 332.5 720 c 128,-1,3
 355 714 355 714 371.5 700 c 128,-1,4
 388 686 388 686 397.5 661.5 c 128,-1,5
 407 637 407 637 407 600 c 2,6,-1
 407 108 l 2,7,8
 407 84 407 84 397.5 64 c 128,-1,9
 388 44 388 44 371.5 30 c 128,-1,10
 355 16 355 16 332.5 8 c 128,-1,11
 310 0 310 0 284 0 c 2,12,-1
 273 0 l 1,13,-1
 273 726 l 1,0,-1
45 398 m 2,14,15
 45 446 45 446 77 477 c 128,-1,16
 109 508 109 508 169 508 c 0,17,18
 207 508 207 508 234 487 c 128,-1,19
 261 466 261 466 261 434 c 0,20,21
 261 426 261 426 260 418.5 c 128,-1,22
 259 411 259 411 255 403 c 1,23,24
 241 414 241 414 223 414 c 2,25,-1
 219 414 l 1,26,27
 196 412 196 412 187.5 397 c 128,-1,28
 179 382 179 382 179 360 c 2,29,-1
 179 159 l 2,30,31
 179 126 179 126 191 110 c 128,-1,32
 203 94 203 94 223 94 c 0,33,34
 241 94 241 94 254 105 c 1,35,36
 261 91 261 91 261 74 c 0,37,38
 261 42 261 42 234 21 c 128,-1,39
 207 0 207 0 169 0 c 0,40,41
 109 0 109 0 77 31.5 c 128,-1,42
 45 63 45 63 45 132 c 2,43,-1
 45 398 l 2,14,15
EndSplineSet
EndChar

StartChar: b
Encoding: 98 98 12
Width: 452
Flags: W
LayerCount: 2
Fore
SplineSet
179 0 m 1,0,-1
 168 0 l 2,1,2
 142 0 142 0 119.5 8 c 128,-1,3
 97 16 97 16 80.5 30 c 128,-1,4
 64 44 64 44 54.5 64 c 128,-1,5
 45 84 45 84 45 108 c 2,6,-1
 45 600 l 2,7,8
 45 637 45 637 54.5 661.5 c 128,-1,9
 64 686 64 686 80.5 700 c 128,-1,10
 97 714 97 714 119 720 c 128,-1,11
 141 726 141 726 167 726 c 2,12,-1
 179 726 l 1,13,-1
 179 0 l 1,0,-1
407 132 m 2,14,15
 407 63 407 63 375 31.5 c 128,-1,16
 343 0 343 0 283 0 c 0,17,18
 245 0 245 0 218 21 c 128,-1,19
 191 42 191 42 191 74 c 0,20,21
 191 91 191 91 198 105 c 1,22,23
 211 94 211 94 229 94 c 0,24,25
 249 94 249 94 261 110 c 128,-1,26
 273 126 273 126 273 159 c 2,27,-1
 273 360 l 2,28,29
 273 382 273 382 264.5 397 c 128,-1,30
 256 412 256 412 233 414 c 1,31,-1
 229 414 l 2,32,33
 211 414 211 414 197 403 c 1,34,35
 193 411 193 411 192 418.5 c 128,-1,36
 191 426 191 426 191 434 c 0,37,38
 191 466 191 466 218 487 c 128,-1,39
 245 508 245 508 283 508 c 0,40,41
 343 508 343 508 375 477 c 128,-1,42
 407 446 407 446 407 398 c 2,43,-1
 407 132 l 2,14,15
EndSplineSet
EndChar

StartChar: u
Encoding: 117 117 13
Width: 452
Flags: W
LayerCount: 2
Fore
SplineSet
179 158 m 2,0,1
 179 146 179 146 180.5 135 c 128,-1,2
 182 124 182 124 186.5 115.5 c 128,-1,3
 191 107 191 107 199.5 101.5 c 128,-1,4
 208 96 208 96 223 96 c 0,5,6
 231 96 231 96 239.5 98.5 c 128,-1,7
 248 101 248 101 255 107 c 1,8,9
 259 99 259 99 260 91.5 c 128,-1,10
 261 84 261 84 261 76 c 0,11,12
 261 44 261 44 235 22 c 128,-1,13
 209 0 209 0 164 0 c 0,14,15
 110 0 110 0 77.5 32 c 128,-1,16
 45 64 45 64 45 130 c 2,17,-1
 45 507 l 1,18,-1
 51 507 l 2,19,20
 111 507 111 507 145 478.5 c 128,-1,21
 179 450 179 450 179 387 c 2,22,-1
 179 158 l 2,0,1
407 2 m 1,23,-1
 396 2 l 2,24,25
 344 2 344 2 308.5 29.5 c 128,-1,26
 273 57 273 57 273 119 c 2,27,-1
 273 507 l 1,28,-1
 279 507 l 2,29,30
 301 507 301 507 324 501 c 128,-1,31
 347 495 347 495 365.5 481.5 c 128,-1,32
 384 468 384 468 395.5 446 c 128,-1,33
 407 424 407 424 407 393 c 2,34,-1
 407 2 l 1,23,-1
EndSplineSet
EndChar

StartChar: m
Encoding: 109 109 14
Width: 680
Flags: W
LayerCount: 2
Fore
SplineSet
273 352 m 2,0,1
 273 364 273 364 271.5 375 c 128,-1,2
 270 386 270 386 265.5 394.5 c 128,-1,3
 261 403 261 403 252.5 408.5 c 128,-1,4
 244 414 244 414 229 414 c 0,5,6
 221 414 221 414 212.5 411.5 c 128,-1,7
 204 409 204 409 197 403 c 1,8,9
 194 409 194 409 193.5 414.5 c 128,-1,10
 193 420 193 420 193 425 c 2,11,-1
 193 434 l 2,12,13
 193 466 193 466 221 487 c 128,-1,14
 249 508 249 508 294 508 c 0,15,16
 348 508 348 508 377.5 475.5 c 128,-1,17
 407 443 407 443 407 380 c 2,18,-1
 407 0 l 1,19,-1
 401 0 l 2,20,21
 341 0 341 0 307 28.5 c 128,-1,22
 273 57 273 57 273 120 c 2,23,-1
 273 352 l 2,0,1
45 508 m 1,24,-1
 56 508 l 2,25,26
 108 508 108 508 143.5 480 c 128,-1,27
 179 452 179 452 179 391 c 2,28,-1
 179 0 l 1,29,-1
 173 0 l 2,30,31
 150 0 150 0 127.5 6 c 128,-1,32
 105 12 105 12 86.5 25.5 c 128,-1,33
 68 39 68 39 56.5 60.5 c 128,-1,34
 45 82 45 82 45 114 c 2,35,-1
 45 508 l 1,24,-1
501 352 m 2,36,37
 501 364 501 364 499.5 375 c 128,-1,38
 498 386 498 386 493.5 394.5 c 128,-1,39
 489 403 489 403 480.5 408.5 c 128,-1,40
 472 414 472 414 457 414 c 0,41,42
 449 414 449 414 440.5 411.5 c 128,-1,43
 432 409 432 409 425 403 c 1,44,45
 421 411 421 411 421 421 c 0,46,47
 421 456 421 456 445 482 c 128,-1,48
 469 508 469 508 517 508 c 0,49,50
 574 508 574 508 604.5 475.5 c 128,-1,51
 635 443 635 443 635 380 c 2,52,-1
 635 0 l 1,53,-1
 629 0 l 2,54,55
 569 0 569 0 535 28.5 c 128,-1,56
 501 57 501 57 501 120 c 2,57,-1
 501 352 l 2,36,37
EndSplineSet
EndChar

StartChar: x
Encoding: 120 120 15
Width: 424
Flags: W
LayerCount: 2
Fore
SplineSet
50 508 m 1,0,-1
 61 508 l 2,1,2
 115 508 115 508 149 481 c 128,-1,3
 183 454 183 454 183 403 c 2,4,-1
 183 270 l 1,5,6
 117 270 117 270 83.5 300 c 128,-1,7
 50 330 50 330 50 387 c 2,8,-1
 50 508 l 1,0,-1
255 508 m 1,9,-1
 268 508 l 2,10,11
 292 508 292 508 313.5 501 c 128,-1,12
 335 494 335 494 351 480.5 c 128,-1,13
 367 467 367 467 377 448.5 c 128,-1,14
 387 430 387 430 388 407 c 1,15,-1
 388 395 l 2,16,17
 388 372 388 372 384.5 350 c 128,-1,18
 381 328 381 328 370 310 c 128,-1,19
 359 292 359 292 339.5 281 c 128,-1,20
 320 270 320 270 288 270 c 0,21,22
 252 270 252 270 230.5 294 c 128,-1,23
 209 318 209 318 209 355 c 2,24,-1
 209 364 l 1,25,26
 215 359 215 359 218.5 356.5 c 128,-1,27
 222 354 222 354 231 354 c 0,28,29
 246 354 246 354 250.5 364 c 128,-1,30
 255 374 255 374 255 394 c 2,31,-1
 255 508 l 1,9,-1
238 262 m 1,32,-1
 249 262 l 2,33,34
 303 262 303 262 337 235 c 128,-1,35
 371 208 371 208 371 157 c 2,36,-1
 371 0 l 1,37,38
 305 0 305 0 271.5 35 c 128,-1,39
 238 70 238 70 238 127 c 2,40,-1
 238 262 l 1,32,-1
169 0 m 1,41,-1
 152 0 l 2,42,43
 101 0 101 0 68.5 25 c 128,-1,44
 36 50 36 50 36 98 c 2,45,-1
 36 147 l 2,46,47
 36 169 36 169 40 190.5 c 128,-1,48
 44 212 44 212 55.5 228 c 128,-1,49
 67 244 67 244 87 254 c 128,-1,50
 107 264 107 264 139 264 c 0,51,52
 172 264 172 264 194 244 c 128,-1,53
 216 224 216 224 216 179 c 2,54,-1
 216 170 l 1,55,56
 214 174 214 174 208 177 c 128,-1,57
 202 180 202 180 196 180 c 0,58,59
 186 180 186 180 180.5 176 c 128,-1,60
 175 172 175 172 172.5 166.5 c 128,-1,61
 170 161 170 161 169.5 155.5 c 128,-1,62
 169 150 169 150 169 146 c 2,63,-1
 169 0 l 1,41,-1
EndSplineSet
EndChar

StartChar: y
Encoding: 121 121 16
Width: 452
Flags: W
LayerCount: 2
Fore
SplineSet
179 158 m 2,0,1
 179 146 179 146 180.5 135 c 128,-1,2
 182 124 182 124 186.5 115.5 c 128,-1,3
 191 107 191 107 199.5 101.5 c 128,-1,4
 208 96 208 96 223 96 c 0,5,6
 231 96 231 96 239.5 98.5 c 128,-1,7
 248 101 248 101 255 107 c 1,8,9
 259 99 259 99 260 91.5 c 128,-1,10
 261 84 261 84 261 76 c 0,11,12
 261 44 261 44 235 22 c 128,-1,13
 209 0 209 0 164 0 c 0,14,15
 110 0 110 0 77.5 33.5 c 128,-1,16
 45 67 45 67 45 130 c 2,17,-1
 45 507 l 1,18,-1
 51 507 l 2,19,20
 111 507 111 507 145 478.5 c 128,-1,21
 179 450 179 450 179 387 c 2,22,-1
 179 158 l 2,0,1
407 -17 m 2,23,24
 407 -79 407 -79 371.5 -106.5 c 128,-1,25
 336 -134 336 -134 284 -134 c 2,26,-1
 273 -134 l 1,27,-1
 273 507 l 1,28,-1
 279 507 l 2,29,30
 301 507 301 507 324 501 c 128,-1,31
 347 495 347 495 365.5 481.5 c 128,-1,32
 384 468 384 468 395.5 446 c 128,-1,33
 407 424 407 424 407 393 c 2,34,-1
 407 -17 l 2,23,24
105 -177 m 0,35,36
 105 -146 105 -146 117 -126.5 c 128,-1,37
 129 -107 129 -107 146 -96 c 128,-1,38
 163 -85 163 -85 182 -81.5 c 128,-1,39
 201 -78 201 -78 215 -78 c 0,40,41
 227 -78 227 -78 235 -80 c 1,42,-1
 235 -126 l 2,43,44
 235 -147 235 -147 245 -157 c 128,-1,45
 255 -167 255 -167 270 -167 c 0,46,47
 288 -167 288 -167 302 -155 c 1,48,49
 305 -163 305 -163 305.5 -169.5 c 128,-1,50
 306 -176 306 -176 306 -184 c 0,51,52
 306 -196 306 -196 300.5 -211.5 c 128,-1,53
 295 -227 295 -227 283.5 -240.5 c 128,-1,54
 272 -254 272 -254 253.5 -263.5 c 128,-1,55
 235 -273 235 -273 209 -273 c 0,56,57
 182 -273 182 -273 162.5 -264 c 128,-1,58
 143 -255 143 -255 130.5 -241.5 c 128,-1,59
 118 -228 118 -228 111.5 -211 c 128,-1,60
 105 -194 105 -194 105 -177 c 0,35,36
EndSplineSet
EndChar

StartChar: s
Encoding: 115 115 17
Width: 423
Flags: W
LayerCount: 2
Fore
SplineSet
169 250 m 1,0,-1
 160 250 l 2,1,2
 137 250 137 250 114.5 255.5 c 128,-1,3
 92 261 92 261 74.5 274.5 c 128,-1,4
 57 288 57 288 46 310 c 128,-1,5
 35 332 35 332 35 364 c 2,6,-1
 35 390 l 2,7,8
 35 426 35 426 47 449 c 128,-1,9
 59 472 59 472 78 485 c 128,-1,10
 97 498 97 498 121 503 c 128,-1,11
 145 508 145 508 169 508 c 1,12,-1
 169 250 l 1,0,-1
254 258 m 1,13,-1
 263 258 l 2,14,15
 286 258 286 258 308.5 252.5 c 128,-1,16
 331 247 331 247 348.5 233.5 c 128,-1,17
 366 220 366 220 377 198 c 128,-1,18
 388 176 388 176 388 144 c 2,19,-1
 388 118 l 2,20,21
 388 82 388 82 376 59 c 128,-1,22
 364 36 364 36 345 23 c 128,-1,23
 326 10 326 10 302 5 c 128,-1,24
 278 0 278 0 254 0 c 1,25,-1
 254 258 l 1,13,-1
384 420 m 0,26,27
 384 388 384 388 372 369 c 128,-1,28
 360 350 360 350 343 339 c 128,-1,29
 326 328 326 328 307 324.5 c 128,-1,30
 288 321 288 321 274 321 c 0,31,32
 262 321 262 321 254 323 c 1,33,-1
 254 369 l 2,34,35
 254 390 254 390 244 400 c 128,-1,36
 234 410 234 410 219 410 c 0,37,38
 200 410 200 410 187 398 c 1,39,40
 184 406 184 406 183.5 412.5 c 128,-1,41
 183 419 183 419 183 427 c 0,42,43
 183 439 183 439 187 454.5 c 128,-1,44
 191 470 191 470 202 483.5 c 128,-1,45
 213 497 213 497 232 506.5 c 128,-1,46
 251 516 251 516 280 516 c 0,47,48
 307 516 307 516 326.5 507.5 c 128,-1,49
 346 499 346 499 358.5 485 c 128,-1,50
 371 471 371 471 377.5 454 c 128,-1,51
 384 437 384 437 384 420 c 0,26,27
40 96 m 0,52,53
 40 127 40 127 52 146.5 c 128,-1,54
 64 166 64 166 81 177 c 128,-1,55
 98 188 98 188 117 191.5 c 128,-1,56
 136 195 136 195 150 195 c 0,57,58
 162 195 162 195 170 193 c 1,59,-1
 170 147 l 2,60,61
 170 126 170 126 180 116 c 128,-1,62
 190 106 190 106 205 106 c 0,63,64
 223 106 223 106 237 118 c 1,65,66
 240 110 240 110 240.5 103.5 c 128,-1,67
 241 97 241 97 241 89 c 0,68,69
 241 77 241 77 236.5 61.5 c 128,-1,70
 232 46 232 46 220.5 32.5 c 128,-1,71
 209 19 209 19 190.5 9.5 c 128,-1,72
 172 0 172 0 144 0 c 0,73,74
 117 0 117 0 97.5 8.5 c 128,-1,75
 78 17 78 17 65.5 31 c 128,-1,76
 53 45 53 45 46.5 62 c 128,-1,77
 40 79 40 79 40 96 c 0,52,53
EndSplineSet
EndChar

StartChar: k
Encoding: 107 107 18
Width: 421
Flags: W
LayerCount: 2
Fore
SplineSet
220 275 m 1,0,1
 248 275 248 275 275 267.5 c 128,-1,2
 302 260 302 260 322 244 c 128,-1,3
 342 228 342 228 354.5 202.5 c 128,-1,4
 367 177 367 177 367 141 c 2,5,-1
 367 -7 l 1,6,7
 342 -7 342 -7 316 1.5 c 128,-1,8
 290 10 290 10 268.5 26 c 128,-1,9
 247 42 247 42 233.5 65.5 c 128,-1,10
 220 89 220 89 220 119 c 2,11,-1
 220 275 l 1,0,1
242 528 m 1,12,13
 255 528 255 528 278 523.5 c 128,-1,14
 301 519 301 519 322.5 506 c 128,-1,15
 344 493 344 493 360 470 c 128,-1,16
 376 447 376 447 376 410 c 0,17,18
 376 386 376 386 370.5 364 c 128,-1,19
 365 342 365 342 354 325.5 c 128,-1,20
 343 309 343 309 324.5 299 c 128,-1,21
 306 289 306 289 281 289 c 0,22,23
 240 289 240 289 221.5 314.5 c 128,-1,24
 203 340 203 340 203 374 c 2,25,-1
 203 385 l 1,26,27
 207 380 207 380 209.5 377.5 c 128,-1,28
 212 375 212 375 220 375 c 0,29,30
 234 375 234 375 238 388.5 c 128,-1,31
 242 402 242 402 242 429 c 2,32,-1
 242 528 l 1,12,13
45 726 m 1,33,-1
 56 726 l 2,34,35
 108 726 108 726 143.5 698 c 128,-1,36
 179 670 179 670 179 609 c 2,37,-1
 179 0 l 1,38,39
 175 0 175 0 172 -0.5 c 128,-1,40
 169 -1 169 -1 165 -1 c 0,41,42
 143 -1 143 -1 121.5 5 c 128,-1,43
 100 11 100 11 83 25 c 128,-1,44
 66 39 66 39 55.5 61.5 c 128,-1,45
 45 84 45 84 45 117 c 2,46,-1
 45 726 l 1,33,-1
EndSplineSet
EndChar

StartChar: c
Encoding: 99 99 19
Width: 436
Flags: W
LayerCount: 2
Fore
SplineSet
179 0 m 1,0,-1
 170 0 l 2,1,2
 147 0 147 0 124.5 5.5 c 128,-1,3
 102 11 102 11 84.5 24.5 c 128,-1,4
 67 38 67 38 56 60 c 128,-1,5
 45 82 45 82 45 114 c 2,6,-1
 45 390 l 2,7,8
 45 426 45 426 57 449 c 128,-1,9
 69 472 69 472 88 485 c 128,-1,10
 107 498 107 498 131 503 c 128,-1,11
 155 508 155 508 179 508 c 1,12,-1
 179 0 l 1,0,-1
400 409 m 0,13,14
 400 394 400 394 395.5 378 c 128,-1,15
 391 362 391 362 380 349 c 128,-1,16
 369 336 369 336 351.5 328 c 128,-1,17
 334 320 334 320 308 320 c 0,18,19
 287 320 287 320 272 324 c 1,20,-1
 272 358 l 2,21,22
 272 380 272 380 264 395 c 128,-1,23
 256 410 256 410 233 412 c 0,24,25
 222 412 222 412 214.5 408.5 c 128,-1,26
 207 405 207 405 200 400 c 1,27,28
 193 414 193 414 193 432 c 0,29,30
 193 462 193 462 219 485 c 128,-1,31
 245 508 245 508 291 508 c 2,32,-1
 298 508 l 1,33,34
 315 507 315 507 333 501 c 128,-1,35
 351 495 351 495 366 483 c 128,-1,36
 381 471 381 471 390.5 452.5 c 128,-1,37
 400 434 400 434 400 409 c 0,13,14
400 97 m 0,38,39
 400 73 400 73 390.5 55 c 128,-1,40
 381 37 381 37 366 25 c 128,-1,41
 351 13 351 13 333 7 c 128,-1,42
 315 1 315 1 298 0 c 1,43,-1
 291 0 l 2,44,45
 245 0 245 0 219 23 c 128,-1,46
 193 46 193 46 193 76 c 0,47,48
 193 94 193 94 200 108 c 1,49,50
 213 96 213 96 230 96 c 1,51,52
 255 98 255 98 263.5 113 c 128,-1,53
 272 128 272 128 272 150 c 2,54,-1
 272 184 l 1,55,56
 287 188 287 188 308 188 c 0,57,58
 334 188 334 188 351.5 180 c 128,-1,59
 369 172 369 172 380 159 c 128,-1,60
 391 146 391 146 395.5 129.5 c 128,-1,61
 400 113 400 113 400 97 c 0,38,39
EndSplineSet
EndChar

StartChar: j
Encoding: 106 106 20
Width: 265
Flags: W
LayerCount: 2
Fore
SplineSet
74 508 m 1,0,-1
 86 508 l 2,1,2
 139 508 139 508 173.5 480.5 c 128,-1,3
 208 453 208 453 208 391 c 2,4,-1
 208 -16 l 2,5,6
 208 -50 208 -50 197.5 -73 c 128,-1,7
 187 -96 187 -96 170 -110.5 c 128,-1,8
 153 -125 153 -125 131 -131 c 128,-1,9
 109 -137 109 -137 86 -137 c 2,10,-1
 74 -137 l 1,11,-1
 74 508 l 1,0,-1
59 662 m 256,12,13
 59 696 59 696 83 719.5 c 128,-1,14
 107 743 107 743 140 743 c 256,15,16
 173 743 173 743 196.5 719.5 c 128,-1,17
 220 696 220 696 220 662 c 256,18,19
 220 628 220 628 196.5 605 c 128,-1,20
 173 582 173 582 140 582 c 256,21,22
 107 582 107 582 83 605 c 128,-1,23
 59 628 59 628 59 662 c 256,12,13
-80 -173 m 0,24,25
 -80 -142 -80 -142 -68 -122.5 c 128,-1,26
 -56 -103 -56 -103 -39 -92 c 128,-1,27
 -22 -81 -22 -81 -3 -77.5 c 128,-1,28
 16 -74 16 -74 30 -74 c 0,29,30
 42 -74 42 -74 50 -76 c 1,31,-1
 50 -122 l 2,32,33
 50 -143 50 -143 60 -153 c 128,-1,34
 70 -163 70 -163 85 -163 c 0,35,36
 103 -163 103 -163 117 -151 c 1,37,38
 120 -159 120 -159 120.5 -165.5 c 128,-1,39
 121 -172 121 -172 121 -180 c 0,40,41
 121 -192 121 -192 115.5 -207.5 c 128,-1,42
 110 -223 110 -223 98.5 -236.5 c 128,-1,43
 87 -250 87 -250 68.5 -259.5 c 128,-1,44
 50 -269 50 -269 24 -269 c 0,45,46
 -3 -269 -3 -269 -22.5 -260 c 128,-1,47
 -42 -251 -42 -251 -54.5 -237.5 c 128,-1,48
 -67 -224 -67 -224 -73.5 -207 c 128,-1,49
 -80 -190 -80 -190 -80 -173 c 0,24,25
EndSplineSet
EndChar

StartChar: w
Encoding: 119 119 21
Width: 681
Flags: W
LayerCount: 2
Fore
SplineSet
158 2 m 0,0,1
 104 2 104 2 74.5 34.5 c 128,-1,2
 45 67 45 67 45 130 c 2,3,-1
 45 390 l 2,4,5
 45 449 45 449 75.5 478.5 c 128,-1,6
 106 508 106 508 161 508 c 0,7,8
 166 508 166 508 170 507.5 c 128,-1,9
 174 507 174 507 179 507 c 1,10,-1
 179 158 l 2,11,12
 179 146 179 146 180.5 135 c 128,-1,13
 182 124 182 124 186.5 115.5 c 128,-1,14
 191 107 191 107 199.5 101.5 c 128,-1,15
 208 96 208 96 223 96 c 0,16,17
 231 96 231 96 239.5 98.5 c 128,-1,18
 248 101 248 101 255 107 c 1,19,20
 259 99 259 99 260 91.5 c 128,-1,21
 261 84 261 84 261 76 c 0,22,23
 261 44 261 44 232 23 c 128,-1,24
 203 2 203 2 158 2 c 0,0,1
502 393 m 2,25,26
 502 424 502 424 512.5 445.5 c 128,-1,27
 523 467 523 467 540.5 481 c 128,-1,28
 558 495 558 495 580.5 501.5 c 128,-1,29
 603 508 603 508 627 508 c 2,30,-1
 636 508 l 1,31,-1
 636 229 l 2,32,33
 636 148 636 148 602 114 c 128,-1,34
 568 80 568 80 502 80 c 1,35,-1
 502 393 l 2,25,26
391 2 m 0,36,37
 274 2 274 2 274 130 c 2,38,-1
 274 390 l 2,39,40
 274 449 274 449 304.5 478.5 c 128,-1,41
 335 508 335 508 390 508 c 0,42,43
 395 508 395 508 399 507.5 c 128,-1,44
 403 507 403 507 408 507 c 1,45,-1
 408 158 l 2,46,47
 408 146 408 146 409.5 135 c 128,-1,48
 411 124 411 124 415.5 115.5 c 128,-1,49
 420 107 420 107 428.5 101.5 c 128,-1,50
 437 96 437 96 452 96 c 0,51,52
 460 96 460 96 469 98.5 c 128,-1,53
 478 101 478 101 484 107 c 1,54,55
 487 100 487 100 488.5 92 c 128,-1,56
 490 84 490 84 490 78 c 0,57,58
 490 41 490 41 461.5 21.5 c 128,-1,59
 433 2 433 2 391 2 c 0,36,37
EndSplineSet
EndChar

StartChar: f
Encoding: 102 102 22
Width: 306
Flags: W
LayerCount: 2
Fore
SplineSet
199 504 m 1,0,-1
 288 504 l 1,1,2
 288 481 288 481 284.5 462 c 128,-1,3
 281 443 281 443 271.5 428.5 c 128,-1,4
 262 414 262 414 246 406 c 128,-1,5
 230 398 230 398 205 398 c 2,6,-1
 199 398 l 1,7,-1
 199 504 l 1,0,-1
45 510 m 2,8,9
 45 546 45 546 54.5 570 c 128,-1,10
 64 594 64 594 80.5 608.5 c 128,-1,11
 97 623 97 623 120 629.5 c 128,-1,12
 143 636 143 636 169 636 c 2,13,-1
 179 636 l 1,14,-1
 179 108 l 2,15,16
 179 84 179 84 169.5 64 c 128,-1,17
 160 44 160 44 143.5 30 c 128,-1,18
 127 16 127 16 104.5 8 c 128,-1,19
 82 0 82 0 56 0 c 2,20,-1
 45 0 l 1,21,-1
 45 510 l 2,8,9
331 671 m 0,22,23
 331 652 331 652 325.5 634.5 c 128,-1,24
 320 617 320 617 309 604 c 128,-1,25
 298 591 298 591 280 583 c 128,-1,26
 262 575 262 575 238 575 c 0,27,28
 217 575 217 575 202 579 c 1,29,-1
 202 613 l 2,30,31
 202 635 202 635 194.5 651 c 128,-1,32
 187 667 187 667 166 667 c 0,33,34
 158 667 158 667 153 665 c 128,-1,35
 148 663 148 663 140 658 c 1,36,37
 138 664 138 664 137.5 671 c 128,-1,38
 137 678 137 678 137 692 c 1,39,40
 138 703 138 703 143.5 715.5 c 128,-1,41
 149 728 149 728 160 738.5 c 128,-1,42
 171 749 171 749 188.5 756 c 128,-1,43
 206 763 206 763 231 763 c 0,44,45
 274 763 274 763 302.5 737 c 128,-1,46
 331 711 331 711 331 671 c 0,22,23
EndSplineSet
EndChar

StartChar: r
Encoding: 114 114 23
Width: 382
Flags: W
LayerCount: 2
Fore
SplineSet
45 508 m 1,0,-1
 56 508 l 2,1,2
 108 508 108 508 143.5 480 c 128,-1,3
 179 452 179 452 179 391 c 2,4,-1
 179 0 l 1,5,-1
 173 0 l 2,6,7
 150 0 150 0 127.5 6 c 128,-1,8
 105 12 105 12 86.5 25.5 c 128,-1,9
 68 39 68 39 56.5 60.5 c 128,-1,10
 45 82 45 82 45 114 c 2,11,-1
 45 508 l 1,0,-1
376 420 m 0,12,13
 376 392 376 392 365 375 c 128,-1,14
 354 358 354 358 338.5 348.5 c 128,-1,15
 323 339 323 339 305 336 c 128,-1,16
 287 333 287 333 274 333 c 0,17,18
 260 333 260 333 250 335 c 1,19,-1
 250 371 l 2,20,21
 250 394 250 394 242.5 400 c 128,-1,22
 235 406 235 406 224 406 c 0,23,24
 214 406 214 406 208.5 402 c 128,-1,25
 203 398 203 398 196 390 c 1,26,27
 193 398 193 398 192.5 406.5 c 128,-1,28
 192 415 192 415 192 423 c 0,29,30
 192 436 192 436 196.5 451 c 128,-1,31
 201 466 201 466 211.5 478.5 c 128,-1,32
 222 491 222 491 239 499.5 c 128,-1,33
 256 508 256 508 282 508 c 0,34,35
 330 508 330 508 353 482.5 c 128,-1,36
 376 457 376 457 376 420 c 0,12,13
EndSplineSet
EndChar

StartChar: hyphen
Encoding: 45 45 24
Width: 389
Flags: W
LayerCount: 2
Fore
SplineSet
339 374 m 1,0,1
 339 351 339 351 330.5 331 c 128,-1,2
 322 311 322 311 307 296 c 128,-1,3
 292 281 292 281 271.5 272 c 128,-1,4
 251 263 251 263 226 263 c 2,5,-1
 50 263 l 1,6,7
 50 285 50 285 58 305.5 c 128,-1,8
 66 326 66 326 81 341 c 128,-1,9
 96 356 96 356 116.5 365 c 128,-1,10
 137 374 137 374 163 374 c 2,11,-1
 339 374 l 1,0,1
EndSplineSet
EndChar

StartChar: period
Encoding: 46 46 25
Width: 254
Flags: W
LayerCount: 2
Fore
SplineSet
55 67 m 0,0,1
 55 98 55 98 76 119 c 128,-1,2
 97 140 97 140 126 140 c 0,3,4
 157 140 157 140 178 119 c 128,-1,5
 199 98 199 98 199 67 c 0,6,7
 199 38 199 38 178 17 c 128,-1,8
 157 -4 157 -4 126 -4 c 0,9,10
 97 -4 97 -4 76 17 c 128,-1,11
 55 38 55 38 55 67 c 0,0,1
EndSplineSet
EndChar

StartChar: comma
Encoding: 44 44 26
Width: 208
Flags: W
LayerCount: 2
Fore
SplineSet
45 14 m 2,0,1
 45 41 45 41 54.5 60.5 c 128,-1,2
 64 80 64 80 79 92.5 c 128,-1,3
 94 105 94 105 114 111 c 128,-1,4
 134 117 134 117 155 117 c 2,5,-1
 163 117 l 1,6,-1
 163 -29 l 2,7,8
 163 -61 163 -61 153 -83 c 128,-1,9
 143 -105 143 -105 126.5 -118 c 128,-1,10
 110 -131 110 -131 88.5 -136.5 c 128,-1,11
 67 -142 67 -142 45 -142 c 1,12,-1
 45 14 l 2,0,1
EndSplineSet
EndChar

StartChar: semicolon
Encoding: 59 59 27
Width: 254
Flags: W
LayerCount: 2
Fore
SplineSet
69 14 m 2,0,1
 69 39 69 39 78 60 c 128,-1,2
 87 81 87 81 102 96 c 128,-1,3
 117 111 117 111 137 119 c 128,-1,4
 157 127 157 127 180 127 c 1,5,-1
 180 -49 l 2,6,7
 180 -74 180 -74 171 -94.5 c 128,-1,8
 162 -115 162 -115 147 -130 c 128,-1,9
 132 -145 132 -145 111.5 -153.5 c 128,-1,10
 91 -162 91 -162 69 -162 c 1,11,-1
 69 14 l 2,0,1
55 298 m 0,12,13
 55 329 55 329 76 350 c 128,-1,14
 97 371 97 371 126 371 c 0,15,16
 157 371 157 371 178 350 c 128,-1,17
 199 329 199 329 199 298 c 0,18,19
 199 269 199 269 178 248 c 128,-1,20
 157 227 157 227 126 227 c 0,21,22
 97 227 97 227 76 248 c 128,-1,23
 55 269 55 269 55 298 c 0,12,13
EndSplineSet
EndChar

StartChar: colon
Encoding: 58 58 28
Width: 254
Flags: W
LayerCount: 2
Fore
SplineSet
55 408 m 0,0,1
 55 439 55 439 76 460 c 128,-1,2
 97 481 97 481 126 481 c 0,3,4
 157 481 157 481 178 460 c 128,-1,5
 199 439 199 439 199 408 c 0,6,7
 199 379 199 379 178 358 c 128,-1,8
 157 337 157 337 126 337 c 0,9,10
 97 337 97 337 76 358 c 128,-1,11
 55 379 55 379 55 408 c 0,0,1
55 64 m 0,12,13
 55 95 55 95 76 116 c 128,-1,14
 97 137 97 137 126 137 c 0,15,16
 157 137 157 137 178 116 c 128,-1,17
 199 95 199 95 199 64 c 0,18,19
 199 35 199 35 178 14 c 128,-1,20
 157 -7 157 -7 126 -7 c 0,21,22
 97 -7 97 -7 76 14 c 128,-1,23
 55 35 55 35 55 64 c 0,12,13
EndSplineSet
EndChar

StartChar: e
Encoding: 101 101 29
Width: 442
Flags: W
LayerCount: 2
Fore
SplineSet
179 0 m 1,0,-1
 169 0 l 2,1,2
 146 0 146 0 124 5.5 c 128,-1,3
 102 11 102 11 84.5 24.5 c 128,-1,4
 67 38 67 38 56 60 c 128,-1,5
 45 82 45 82 45 114 c 2,6,-1
 45 383 l 2,7,8
 45 438 45 438 71.5 473 c 128,-1,9
 98 508 98 508 158 508 c 0,10,11
 198 508 198 508 224 487.5 c 128,-1,12
 250 467 250 467 250 422 c 0,13,14
 250 407 250 407 246 400 c 1,15,16
 232 412 232 412 216 412 c 0,17,18
 194 412 194 412 186.5 397 c 128,-1,19
 179 382 179 382 179 365 c 2,20,-1
 179 0 l 1,0,-1
268 507 m 1,21,22
 273 508 273 508 278 508 c 2,23,-1
 288 508 l 2,24,25
 342 508 342 508 372 480.5 c 128,-1,26
 402 453 402 453 402 402 c 2,27,-1
 402 347 l 2,28,29
 402 279 402 279 368 246 c 128,-1,30
 334 213 334 213 285 213 c 2,31,-1
 278 213 l 1,32,33
 240 215 240 215 216.5 238.5 c 128,-1,34
 193 262 193 262 193 295 c 0,35,36
 193 300 193 300 193.5 304 c 128,-1,37
 194 308 194 308 197 316 c 1,38,39
 205 308 205 308 211 304 c 128,-1,40
 217 300 217 300 231 300 c 0,41,42
 254 300 254 300 261 316.5 c 128,-1,43
 268 333 268 333 268 355 c 2,44,-1
 268 507 l 1,21,22
398 97 m 0,45,46
 398 69 398 69 388.5 50.5 c 128,-1,47
 379 32 379 32 364 20.5 c 128,-1,48
 349 9 349 9 331 4.5 c 128,-1,49
 313 0 313 0 296 0 c 0,50,51
 245 0 245 0 224 25 c 128,-1,52
 203 50 203 50 203 81 c 0,53,54
 203 86 203 86 203.5 93 c 128,-1,55
 204 100 204 100 208 108 c 1,56,57
 221 96 221 96 238 96 c 1,58,59
 262 98 262 98 266 112 c 128,-1,60
 270 126 270 126 270 147 c 2,61,-1
 270 184 l 1,62,63
 285 188 285 188 306 188 c 0,64,65
 332 188 332 188 349.5 180 c 128,-1,66
 367 172 367 172 378 159 c 128,-1,67
 389 146 389 146 393.5 129.5 c 128,-1,68
 398 113 398 113 398 97 c 0,45,46
EndSplineSet
EndChar

StartChar: z
Encoding: 122 122 30
Width: 423
Flags: W
LayerCount: 2
Fore
SplineSet
254 508 m 1,0,1
 278 508 278 508 302 503 c 128,-1,2
 326 498 326 498 345 485 c 128,-1,3
 364 472 364 472 376 449 c 128,-1,4
 388 426 388 426 388 390 c 2,5,-1
 388 364 l 2,6,7
 388 332 388 332 377 310 c 128,-1,8
 366 288 366 288 348.5 274.5 c 128,-1,9
 331 261 331 261 308.5 255.5 c 128,-1,10
 286 250 286 250 263 250 c 2,11,-1
 254 250 l 1,12,-1
 254 508 l 1,0,1
169 0 m 1,13,14
 145 0 145 0 121 5 c 128,-1,15
 97 10 97 10 78 23 c 128,-1,16
 59 36 59 36 47 59 c 128,-1,17
 35 82 35 82 35 118 c 2,18,-1
 35 144 l 2,19,20
 35 176 35 176 46 198 c 128,-1,21
 57 220 57 220 74.5 233.5 c 128,-1,22
 92 247 92 247 114.5 252.5 c 128,-1,23
 137 258 137 258 160 258 c 2,24,-1
 169 258 l 1,25,-1
 169 0 l 1,13,14
39 411 m 0,26,27
 39 428 39 428 45 445 c 128,-1,28
 51 462 51 462 64 476 c 128,-1,29
 77 490 77 490 96 498.5 c 128,-1,30
 115 507 115 507 141 507 c 0,31,32
 168 507 168 507 187 499 c 128,-1,33
 206 491 206 491 217.5 478 c 128,-1,34
 229 465 229 465 234.5 450 c 128,-1,35
 240 435 240 435 240 422 c 0,36,37
 240 414 240 414 239.5 405.5 c 128,-1,38
 239 397 239 397 236 389 c 1,39,40
 222 401 222 401 204 401 c 0,41,42
 189 401 189 401 179 391.5 c 128,-1,43
 169 382 169 382 169 363 c 2,44,-1
 169 314 l 1,45,46
 161 312 161 312 149 312 c 0,47,48
 135 312 135 312 116 315.5 c 128,-1,49
 97 319 97 319 80 330 c 128,-1,50
 63 341 63 341 51 360 c 128,-1,51
 39 379 39 379 39 411 c 0,26,27
383 96 m 0,52,53
 383 79 383 79 377 62 c 128,-1,54
 371 45 371 45 358 31 c 128,-1,55
 345 17 345 17 326 8.5 c 128,-1,56
 307 0 307 0 281 0 c 0,57,58
 254 0 254 0 235 9.5 c 128,-1,59
 216 19 216 19 204.5 32.5 c 128,-1,60
 193 46 193 46 187.5 61.5 c 128,-1,61
 182 77 182 77 182 89 c 0,62,63
 182 97 182 97 182.5 103.5 c 128,-1,64
 183 110 183 110 186 118 c 1,65,66
 199 106 199 106 218 106 c 0,67,68
 233 106 233 106 243 115.5 c 128,-1,69
 253 125 253 125 253 144 c 2,70,-1
 253 193 l 1,71,72
 261 195 261 195 273 195 c 0,73,74
 287 195 287 195 306 191.5 c 128,-1,75
 325 188 325 188 342 177 c 128,-1,76
 359 166 359 166 371 146.5 c 128,-1,77
 383 127 383 127 383 96 c 0,52,53
EndSplineSet
EndChar

StartChar: t
Encoding: 116 116 31
Width: 288
Flags: W
LayerCount: 2
Fore
SplineSet
179 153 m 2,0,1
 179 143 179 143 179.5 132 c 128,-1,2
 180 121 180 121 183.5 112 c 128,-1,3
 187 103 187 103 194 97 c 128,-1,4
 201 91 201 91 214 91 c 0,5,6
 230 91 230 91 238.5 99.5 c 128,-1,7
 247 108 247 108 251 114 c 1,8,9
 253 108 253 108 254.5 96 c 128,-1,10
 256 84 256 84 256 76 c 0,11,12
 256 38 256 38 230.5 19 c 128,-1,13
 205 0 205 0 163 0 c 0,14,15
 108 0 108 0 76.5 34 c 128,-1,16
 45 68 45 68 45 146 c 2,17,-1
 45 605 l 2,18,19
 45 630 45 630 51.5 652 c 128,-1,20
 58 674 58 674 72 690.5 c 128,-1,21
 86 707 86 707 108.5 716.5 c 128,-1,22
 131 726 131 726 163 726 c 0,23,24
 167 726 167 726 171 725.5 c 128,-1,25
 175 725 175 725 179 725 c 1,26,-1
 179 153 l 2,0,1
196 503 m 1,27,-1
 198 503 l 2,28,29
 200 503 200 503 207 503.5 c 128,-1,30
 214 504 214 504 229 504 c 2,31,-1
 274 504 l 1,32,33
 275 501 275 501 275 489 c 0,34,35
 275 451 275 451 257 429.5 c 128,-1,36
 239 408 239 408 196 408 c 1,37,-1
 196 503 l 1,27,-1
EndSplineSet
EndChar

StartChar: daggerdbl
Encoding: 8225 8225 32
Width: 528
Flags: W
LayerCount: 2
Fore
SplineSet
336 435 m 2,0,1
 336 384 336 384 310.5 353 c 128,-1,2
 285 322 285 322 225 322 c 1,3,-1
 225 518 l 2,4,5
 225 550 225 550 234 572 c 128,-1,6
 243 594 243 594 258 607 c 128,-1,7
 273 620 273 620 293 625.5 c 128,-1,8
 313 631 313 631 336 631 c 1,9,-1
 336 435 l 2,0,1
313 113 m 2,10,11
 313 62 313 62 287.5 31 c 128,-1,12
 262 0 262 0 202 0 c 1,13,-1
 202 206 l 2,14,15
 202 238 202 238 211 260 c 128,-1,16
 220 282 220 282 235 295 c 128,-1,17
 250 308 250 308 270 313.5 c 128,-1,18
 290 319 290 319 313 319 c 1,19,-1
 313 113 l 2,10,11
498 459 m 1,20,21
 498 436 498 436 495.5 416 c 128,-1,22
 493 396 493 396 483.5 381 c 128,-1,23
 474 366 474 366 455.5 357.5 c 128,-1,24
 437 349 437 349 405 349 c 2,25,-1
 349 349 l 1,26,-1
 349 353 l 2,27,28
 349 388 349 388 355.5 409 c 128,-1,29
 362 430 362 430 373 441 c 128,-1,30
 384 452 384 452 399.5 455.5 c 128,-1,31
 415 459 415 459 432 459 c 2,32,-1
 498 459 l 1,20,21
479 296 m 1,33,34
 479 273 479 273 476.5 253 c 128,-1,35
 474 233 474 233 464.5 218 c 128,-1,36
 455 203 455 203 436.5 194.5 c 128,-1,37
 418 186 418 186 386 186 c 2,38,-1
 330 186 l 1,39,-1
 330 190 l 2,40,41
 330 225 330 225 336.5 246 c 128,-1,42
 343 267 343 267 354 278 c 128,-1,43
 365 289 365 289 380.5 292.5 c 128,-1,44
 396 296 396 296 413 296 c 2,45,-1
 479 296 l 1,33,34
206 459 m 1,46,47
 206 436 206 436 203.5 416 c 128,-1,48
 201 396 201 396 191.5 381 c 128,-1,49
 182 366 182 366 163.5 357.5 c 128,-1,50
 145 349 145 349 113 349 c 2,51,-1
 57 349 l 1,52,-1
 57 353 l 2,53,54
 57 388 57 388 63.5 409 c 128,-1,55
 70 430 70 430 81 441 c 128,-1,56
 92 452 92 452 107.5 455.5 c 128,-1,57
 123 459 123 459 140 459 c 2,58,-1
 206 459 l 1,46,47
180 296 m 1,59,60
 180 273 180 273 177.5 253 c 128,-1,61
 175 233 175 233 165.5 218 c 128,-1,62
 156 203 156 203 137.5 194.5 c 128,-1,63
 119 186 119 186 87 186 c 2,64,-1
 31 186 l 1,65,-1
 31 190 l 2,66,67
 31 225 31 225 37.5 246 c 128,-1,68
 44 267 44 267 55 278 c 128,-1,69
 66 289 66 289 81.5 292.5 c 128,-1,70
 97 296 97 296 114 296 c 2,71,-1
 180 296 l 1,59,60
EndSplineSet
EndChar

StartChar: adieresis
Encoding: 228 228 33
Width: 452
Flags: W
LayerCount: 2
Fore
SplineSet
79 658 m 256,0,1
 79 687 79 687 99.5 707.5 c 128,-1,2
 120 728 120 728 149 728 c 256,3,4
 178 728 178 728 198.5 707.5 c 128,-1,5
 219 687 219 687 219 658 c 256,6,7
 219 629 219 629 198.5 609 c 128,-1,8
 178 589 178 589 149 589 c 256,9,10
 120 589 120 589 99.5 609 c 128,-1,11
 79 629 79 629 79 658 c 256,0,1
235 658 m 256,12,13
 235 687 235 687 256 707.5 c 128,-1,14
 277 728 277 728 306 728 c 256,15,16
 335 728 335 728 355 707.5 c 128,-1,17
 375 687 375 687 375 658 c 256,18,19
 375 629 375 629 355 609 c 128,-1,20
 335 589 335 589 306 589 c 256,21,22
 277 589 277 589 256 609 c 128,-1,23
 235 629 235 629 235 658 c 256,12,13
273 352 m 2,24,25
 273 364 273 364 271.5 375 c 128,-1,26
 270 386 270 386 265.5 394.5 c 128,-1,27
 261 403 261 403 252.5 408.5 c 128,-1,28
 244 414 244 414 229 414 c 0,29,30
 221 414 221 414 212.5 411.5 c 128,-1,31
 204 409 204 409 197 403 c 1,32,33
 193 411 193 411 192 418.5 c 128,-1,34
 191 426 191 426 191 434 c 0,35,36
 191 466 191 466 218 487 c 128,-1,37
 245 508 245 508 283 508 c 0,38,39
 343 508 343 508 375 477.5 c 128,-1,40
 407 447 407 447 407 390 c 2,41,-1
 407 0 l 1,42,43
 384 0 384 0 360.5 5.5 c 128,-1,44
 337 11 337 11 317.5 24.5 c 128,-1,45
 298 38 298 38 285.5 60.5 c 128,-1,46
 273 83 273 83 273 118 c 2,47,-1
 273 352 l 2,24,25
179 156 m 2,48,49
 179 144 179 144 180.5 133 c 128,-1,50
 182 122 182 122 186.5 113.5 c 128,-1,51
 191 105 191 105 199.5 99.5 c 128,-1,52
 208 94 208 94 223 94 c 0,53,54
 231 94 231 94 239.5 96.5 c 128,-1,55
 248 99 248 99 255 105 c 1,56,57
 259 97 259 97 260 89.5 c 128,-1,58
 261 82 261 82 261 74 c 0,59,60
 261 42 261 42 234 21 c 128,-1,61
 207 0 207 0 169 0 c 0,62,63
 109 0 109 0 77 32 c 128,-1,64
 45 64 45 64 45 112 c 2,65,-1
 45 390 l 2,66,67
 45 423 45 423 57.5 445.5 c 128,-1,68
 70 468 70 468 89.5 482 c 128,-1,69
 109 496 109 496 132.5 502 c 128,-1,70
 156 508 156 508 179 508 c 1,71,-1
 179 156 l 2,48,49
EndSplineSet
EndChar

StartChar: dieresis
Encoding: 168 168 34
Width: 406
Flags: W
LayerCount: 2
Fore
SplineSet
55 658 m 256,0,1
 55 687 55 687 75.5 707.5 c 128,-1,2
 96 728 96 728 125 728 c 256,3,4
 154 728 154 728 174.5 707.5 c 128,-1,5
 195 687 195 687 195 658 c 256,6,7
 195 629 195 629 174.5 609 c 128,-1,8
 154 589 154 589 125 589 c 256,9,10
 96 589 96 589 75.5 609 c 128,-1,11
 55 629 55 629 55 658 c 256,0,1
211 658 m 256,12,13
 211 687 211 687 232 707.5 c 128,-1,14
 253 728 253 728 282 728 c 256,15,16
 311 728 311 728 331 707.5 c 128,-1,17
 351 687 351 687 351 658 c 256,18,19
 351 629 351 629 331 609 c 128,-1,20
 311 589 311 589 282 589 c 256,21,22
 253 589 253 589 232 609 c 128,-1,23
 211 629 211 629 211 658 c 256,12,13
EndSplineSet
EndChar

StartChar: edieresis
Encoding: 235 235 35
Width: 442
Flags: W
LayerCount: 2
Fore
SplineSet
179 0 m 1,0,-1
 169 0 l 2,1,2
 146 0 146 0 124 5.5 c 128,-1,3
 102 11 102 11 84.5 24.5 c 128,-1,4
 67 38 67 38 56 60 c 128,-1,5
 45 82 45 82 45 114 c 2,6,-1
 45 383 l 2,7,8
 45 438 45 438 71.5 473 c 128,-1,9
 98 508 98 508 158 508 c 0,10,11
 198 508 198 508 224 487.5 c 128,-1,12
 250 467 250 467 250 422 c 0,13,14
 250 407 250 407 246 400 c 1,15,16
 232 412 232 412 216 412 c 0,17,18
 194 412 194 412 186.5 397 c 128,-1,19
 179 382 179 382 179 365 c 2,20,-1
 179 0 l 1,0,-1
268 507 m 1,21,22
 273 508 273 508 278 508 c 2,23,-1
 288 508 l 2,24,25
 342 508 342 508 372 480.5 c 128,-1,26
 402 453 402 453 402 402 c 2,27,-1
 402 347 l 2,28,29
 402 279 402 279 368 246 c 128,-1,30
 334 213 334 213 285 213 c 2,31,-1
 278 213 l 1,32,33
 240 215 240 215 216.5 238.5 c 128,-1,34
 193 262 193 262 193 295 c 0,35,36
 193 300 193 300 193.5 304 c 128,-1,37
 194 308 194 308 197 316 c 1,38,39
 205 308 205 308 211 304 c 128,-1,40
 217 300 217 300 231 300 c 0,41,42
 254 300 254 300 261 316.5 c 128,-1,43
 268 333 268 333 268 355 c 2,44,-1
 268 507 l 1,21,22
398 97 m 0,45,46
 398 69 398 69 388.5 50.5 c 128,-1,47
 379 32 379 32 364 20.5 c 128,-1,48
 349 9 349 9 331 4.5 c 128,-1,49
 313 0 313 0 296 0 c 0,50,51
 245 0 245 0 224 25 c 128,-1,52
 203 50 203 50 203 81 c 0,53,54
 203 86 203 86 203.5 93 c 128,-1,55
 204 100 204 100 208 108 c 1,56,57
 221 96 221 96 238 96 c 1,58,59
 262 98 262 98 266 112 c 128,-1,60
 270 126 270 126 270 147 c 2,61,-1
 270 184 l 1,62,63
 285 188 285 188 306 188 c 0,64,65
 332 188 332 188 349.5 180 c 128,-1,66
 367 172 367 172 378 159 c 128,-1,67
 389 146 389 146 393.5 129.5 c 128,-1,68
 398 113 398 113 398 97 c 0,45,46
66 658 m 256,69,70
 66 687 66 687 86.5 707.5 c 128,-1,71
 107 728 107 728 136 728 c 256,72,73
 165 728 165 728 185.5 707.5 c 128,-1,74
 206 687 206 687 206 658 c 256,75,76
 206 629 206 629 185.5 609 c 128,-1,77
 165 589 165 589 136 589 c 256,78,79
 107 589 107 589 86.5 609 c 128,-1,80
 66 629 66 629 66 658 c 256,69,70
222 658 m 256,81,82
 222 687 222 687 243 707.5 c 128,-1,83
 264 728 264 728 293 728 c 256,84,85
 322 728 322 728 342 707.5 c 128,-1,86
 362 687 362 687 362 658 c 256,87,88
 362 629 362 629 342 609 c 128,-1,89
 322 589 322 589 293 589 c 256,90,91
 264 589 264 589 243 609 c 128,-1,92
 222 629 222 629 222 658 c 256,81,82
EndSplineSet
EndChar

StartChar: odieresis
Encoding: 246 246 36
Width: 452
Flags: W
LayerCount: 2
Fore
SplineSet
179 156 m 2,0,1
 179 144 179 144 180.5 133 c 128,-1,2
 182 122 182 122 186.5 113.5 c 128,-1,3
 191 105 191 105 199.5 99.5 c 128,-1,4
 208 94 208 94 223 94 c 0,5,6
 231 94 231 94 239.5 96.5 c 128,-1,7
 248 99 248 99 255 105 c 1,8,9
 259 97 259 97 260 89.5 c 128,-1,10
 261 82 261 82 261 74 c 0,11,12
 261 42 261 42 234 21 c 128,-1,13
 207 0 207 0 169 0 c 0,14,15
 109 0 109 0 77 32 c 128,-1,16
 45 64 45 64 45 112 c 2,17,-1
 45 390 l 2,18,19
 45 423 45 423 57.5 445.5 c 128,-1,20
 70 468 70 468 89.5 482 c 128,-1,21
 109 496 109 496 132.5 502 c 128,-1,22
 156 508 156 508 179 508 c 1,23,-1
 179 156 l 2,0,1
407 118 m 2,24,25
 407 83 407 83 394.5 60.5 c 128,-1,26
 382 38 382 38 362.5 24.5 c 128,-1,27
 343 11 343 11 319 5.5 c 128,-1,28
 295 0 295 0 273 0 c 1,29,-1
 273 352 l 2,30,31
 273 364 273 364 271.5 375 c 128,-1,32
 270 386 270 386 265.5 394.5 c 128,-1,33
 261 403 261 403 252.5 408.5 c 128,-1,34
 244 414 244 414 229 414 c 0,35,36
 221 414 221 414 212.5 411.5 c 128,-1,37
 204 409 204 409 197 403 c 1,38,39
 193 411 193 411 192 418.5 c 128,-1,40
 191 426 191 426 191 434 c 0,41,42
 191 466 191 466 218 487 c 128,-1,43
 245 508 245 508 283 508 c 0,44,45
 343 508 343 508 375 477.5 c 128,-1,46
 407 447 407 447 407 390 c 2,47,-1
 407 118 l 2,24,25
72 658 m 256,48,49
 72 687 72 687 92.5 707.5 c 128,-1,50
 113 728 113 728 142 728 c 256,51,52
 171 728 171 728 191.5 707.5 c 128,-1,53
 212 687 212 687 212 658 c 256,54,55
 212 629 212 629 191.5 609 c 128,-1,56
 171 589 171 589 142 589 c 256,57,58
 113 589 113 589 92.5 609 c 128,-1,59
 72 629 72 629 72 658 c 256,48,49
228 658 m 256,60,61
 228 687 228 687 249 707.5 c 128,-1,62
 270 728 270 728 299 728 c 256,63,64
 328 728 328 728 348 707.5 c 128,-1,65
 368 687 368 687 368 658 c 256,66,67
 368 629 368 629 348 609 c 128,-1,68
 328 589 328 589 299 589 c 256,69,70
 270 589 270 589 249 609 c 128,-1,71
 228 629 228 629 228 658 c 256,60,61
EndSplineSet
EndChar

StartChar: idieresis
Encoding: 239 239 37
Width: 296
Flags: W
LayerCount: 2
Fore
SplineSet
79 508 m 1,0,1
 103 508 103 508 127 499.5 c 128,-1,2
 151 491 151 491 170 475.5 c 128,-1,3
 189 460 189 460 201 438.5 c 128,-1,4
 213 417 213 417 213 392 c 2,5,-1
 213 0 l 1,6,7
 190 0 190 0 166.5 8.5 c 128,-1,8
 143 17 143 17 123.5 32.5 c 128,-1,9
 104 48 104 48 91.5 70 c 128,-1,10
 79 92 79 92 79 120 c 2,11,-1
 79 508 l 1,0,1
0 658 m 256,12,13
 0 687 0 687 20.5 707.5 c 128,-1,14
 41 728 41 728 70 728 c 256,15,16
 99 728 99 728 119.5 707.5 c 128,-1,17
 140 687 140 687 140 658 c 256,18,19
 140 629 140 629 119.5 609 c 128,-1,20
 99 589 99 589 70 589 c 256,21,22
 41 589 41 589 20.5 609 c 128,-1,23
 0 629 0 629 0 658 c 256,12,13
156 658 m 256,24,25
 156 687 156 687 177 707.5 c 128,-1,26
 198 728 198 728 227 728 c 256,27,28
 256 728 256 728 276 707.5 c 128,-1,29
 296 687 296 687 296 658 c 256,30,31
 296 629 296 629 276 609 c 128,-1,32
 256 589 256 589 227 589 c 256,33,34
 198 589 198 589 177 609 c 128,-1,35
 156 629 156 629 156 658 c 256,24,25
EndSplineSet
EndChar

StartChar: exclam
Encoding: 33 33 38
Width: 258
Flags: W
LayerCount: 2
Fore
SplineSet
194 233 m 1,0,-1
 185 233 l 2,1,2
 162 233 162 233 140 240 c 128,-1,3
 118 247 118 247 100 261 c 128,-1,4
 82 275 82 275 71 297 c 128,-1,5
 60 319 60 319 60 349 c 2,6,-1
 60 752 l 1,7,8
 87 752 87 752 111 743.5 c 128,-1,9
 135 735 135 735 153.5 719.5 c 128,-1,10
 172 704 172 704 183 682 c 128,-1,11
 194 660 194 660 194 632 c 2,12,-1
 194 233 l 1,0,-1
64 66 m 0,13,14
 64 97 64 97 85 118 c 128,-1,15
 106 139 106 139 135 139 c 0,16,17
 166 139 166 139 187 118 c 128,-1,18
 208 97 208 97 208 66 c 0,19,20
 208 37 208 37 187 16 c 128,-1,21
 166 -5 166 -5 135 -5 c 0,22,23
 106 -5 106 -5 85 16 c 128,-1,24
 64 37 64 37 64 66 c 0,13,14
EndSplineSet
EndChar

StartChar: A
Encoding: 65 65 39
Width: 485
Flags: W
LayerCount: 2
Fore
SplineSet
184 0 m 2,0,1
 158 0 158 0 134 5 c 128,-1,2
 110 10 110 10 91.5 23 c 128,-1,3
 73 36 73 36 61.5 59 c 128,-1,4
 50 82 50 82 50 119 c 2,5,-1
 50 606 l 2,6,7
 50 640 50 640 64 663.5 c 128,-1,8
 78 687 78 687 99 700.5 c 128,-1,9
 120 714 120 714 145.5 720 c 128,-1,10
 171 726 171 726 194 726 c 1,11,-1
 194 0 l 1,12,-1
 184 0 l 2,0,1
204 416 m 1,13,-1
 285 416 l 1,14,15
 285 375 285 375 270 347.5 c 128,-1,16
 255 320 255 320 209 320 c 2,17,-1
 204 320 l 1,18,-1
 204 416 l 1,13,-1
292 559 m 2,19,20
 292 570 292 570 290.5 581.5 c 128,-1,21
 289 593 289 593 284.5 602.5 c 128,-1,22
 280 612 280 612 271.5 618 c 128,-1,23
 263 624 263 624 248 624 c 0,24,25
 229 624 229 624 216 612 c 1,26,27
 210 628 210 628 210 641 c 0,28,29
 210 657 210 657 215.5 672.5 c 128,-1,30
 221 688 221 688 233 700 c 128,-1,31
 245 712 245 712 263.5 719.5 c 128,-1,32
 282 727 282 727 309 727 c 0,33,34
 339 727 339 727 362.5 716.5 c 128,-1,35
 386 706 386 706 402 687.5 c 128,-1,36
 418 669 418 669 426.5 644.5 c 128,-1,37
 435 620 435 620 435 592 c 2,38,-1
 435 0 l 1,39,40
 408 0 408 0 382.5 4 c 128,-1,41
 357 8 357 8 336.5 20.5 c 128,-1,42
 316 33 316 33 304 58 c 128,-1,43
 292 83 292 83 292 125 c 2,44,-1
 292 559 l 2,19,20
EndSplineSet
EndChar

StartChar: B
Encoding: 66 66 40
Width: 463
Flags: W
LayerCount: 2
Fore
SplineSet
194 0 m 1,0,-1
 184 0 l 2,1,2
 158 0 158 0 134 5 c 128,-1,3
 110 10 110 10 91.5 23 c 128,-1,4
 73 36 73 36 61.5 59 c 128,-1,5
 50 82 50 82 50 119 c 2,6,-1
 50 606 l 2,7,8
 50 642 50 642 61 665 c 128,-1,9
 72 688 72 688 90 701.5 c 128,-1,10
 108 715 108 715 131 720.5 c 128,-1,11
 154 726 154 726 178 726 c 2,12,-1
 194 726 l 1,13,-1
 194 0 l 1,0,-1
428 135 m 2,14,15
 428 72 428 72 395.5 36 c 128,-1,16
 363 0 363 0 303 0 c 0,17,18
 261 0 261 0 235.5 20.5 c 128,-1,19
 210 41 210 41 210 81 c 0,20,21
 210 88 210 88 211.5 97.5 c 128,-1,22
 213 107 213 107 216 115 c 1,23,24
 220 103 220 103 232 103 c 256,25,26
 244 103 244 103 250 109 c 128,-1,27
 256 115 256 115 259 124.5 c 128,-1,28
 262 134 262 134 262.5 145.5 c 128,-1,29
 263 157 263 157 263 168 c 2,30,-1
 263 366 l 1,31,32
 268 367 268 367 273.5 367.5 c 128,-1,33
 279 368 279 368 286 368 c 0,34,35
 305 368 305 368 330 362.5 c 128,-1,36
 355 357 355 357 376.5 343 c 128,-1,37
 398 329 398 329 413 304.5 c 128,-1,38
 428 280 428 280 428 243 c 2,39,-1
 428 135 l 2,14,15
428 504 m 2,40,41
 428 466 428 466 413 442 c 128,-1,42
 398 418 398 418 376.5 404 c 128,-1,43
 355 390 355 390 330 384.5 c 128,-1,44
 305 379 305 379 286 379 c 0,45,46
 279 379 279 379 273.5 379.5 c 128,-1,47
 268 380 268 380 263 381 c 1,48,-1
 263 558 l 2,49,50
 263 569 263 569 262.5 580.5 c 128,-1,51
 262 592 262 592 259 601.5 c 128,-1,52
 256 611 256 611 250 617 c 128,-1,53
 244 623 244 623 232 623 c 0,54,55
 216 623 216 623 213 613 c 1,56,57
 210 626 210 626 210 639 c 256,58,59
 210 652 210 652 214 667 c 128,-1,60
 218 682 218 682 228.5 695 c 128,-1,61
 239 708 239 708 256 717 c 128,-1,62
 273 726 273 726 300 726 c 0,63,64
 360 726 360 726 394 687 c 128,-1,65
 428 648 428 648 428 591 c 2,66,-1
 428 504 l 2,40,41
EndSplineSet
EndChar

StartChar: C
Encoding: 67 67 41
Width: 438
Flags: W
LayerCount: 2
Fore
SplineSet
194 0 m 1,0,-1
 184 0 l 2,1,2
 158 0 158 0 134 5 c 128,-1,3
 110 10 110 10 91.5 23 c 128,-1,4
 73 36 73 36 61.5 59 c 128,-1,5
 50 82 50 82 50 119 c 2,6,-1
 50 606 l 2,7,8
 50 642 50 642 61 665 c 128,-1,9
 72 688 72 688 90 701.5 c 128,-1,10
 108 715 108 715 131 720.5 c 128,-1,11
 154 726 154 726 178 726 c 2,12,-1
 194 726 l 1,13,-1
 194 0 l 1,0,-1
413 96 m 0,14,15
 413 79 413 79 407 62 c 128,-1,16
 401 45 401 45 388 31.5 c 128,-1,17
 375 18 375 18 356 9 c 128,-1,18
 337 0 337 0 311 0 c 0,19,20
 269 0 269 0 240.5 23.5 c 128,-1,21
 212 47 212 47 212 89 c 0,22,23
 212 97 212 97 212.5 103.5 c 128,-1,24
 213 110 213 110 216 118 c 1,25,26
 229 106 229 106 248 106 c 0,27,28
 263 106 263 106 273 115.5 c 128,-1,29
 283 125 283 125 283 144 c 2,30,-1
 283 193 l 1,31,32
 291 195 291 195 303 195 c 0,33,34
 317 195 317 195 336 191.5 c 128,-1,35
 355 188 355 188 372 177 c 128,-1,36
 389 166 389 166 401 146.5 c 128,-1,37
 413 127 413 127 413 96 c 0,14,15
413 631 m 0,38,39
 413 599 413 599 401 580 c 128,-1,40
 389 561 389 561 372 550 c 128,-1,41
 355 539 355 539 336 535.5 c 128,-1,42
 317 532 317 532 303 532 c 0,43,44
 291 532 291 532 283 534 c 1,45,-1
 283 580 l 2,46,47
 283 598 283 598 274 609.5 c 128,-1,48
 265 621 265 621 248 621 c 0,49,50
 229 621 229 621 216 609 c 1,51,52
 213 617 213 617 212.5 623.5 c 128,-1,53
 212 630 212 630 212 638 c 0,54,55
 212 650 212 650 216.5 665.5 c 128,-1,56
 221 681 221 681 232 694.5 c 128,-1,57
 243 708 243 708 261.5 717.5 c 128,-1,58
 280 727 280 727 309 727 c 0,59,60
 330 727 330 727 349 720 c 128,-1,61
 368 713 368 713 382 700 c 128,-1,62
 396 687 396 687 404.5 669.5 c 128,-1,63
 413 652 413 652 413 631 c 0,38,39
EndSplineSet
EndChar

StartChar: D
Encoding: 68 68 42
Width: 485
Flags: W
LayerCount: 2
Fore
SplineSet
435 135 m 2,0,1
 435 72 435 72 403 36 c 128,-1,2
 371 0 371 0 311 0 c 0,3,4
 291 0 291 0 273 5.5 c 128,-1,5
 255 11 255 11 241 22 c 128,-1,6
 227 33 227 33 218.5 49 c 128,-1,7
 210 65 210 65 210 86 c 0,8,9
 210 94 210 94 211.5 100.5 c 128,-1,10
 213 107 213 107 216 115 c 1,11,12
 229 103 229 103 248 103 c 0,13,14
 260 103 260 103 266.5 109 c 128,-1,15
 273 115 273 115 277 124.5 c 128,-1,16
 281 134 281 134 282 145.5 c 128,-1,17
 283 157 283 157 283 168 c 2,18,-1
 283 558 l 2,19,20
 283 569 283 569 282 580.5 c 128,-1,21
 281 592 281 592 277 601.5 c 128,-1,22
 273 611 273 611 266.5 617 c 128,-1,23
 260 623 260 623 248 623 c 0,24,25
 229 623 229 623 216 611 c 1,26,27
 210 627 210 627 210 640 c 0,28,29
 210 656 210 656 215.5 671.5 c 128,-1,30
 221 687 221 687 233 699 c 128,-1,31
 245 711 245 711 263.5 718.5 c 128,-1,32
 282 726 282 726 309 726 c 0,33,34
 339 726 339 726 362.5 715.5 c 128,-1,35
 386 705 386 705 402 686.5 c 128,-1,36
 418 668 418 668 426.5 643.5 c 128,-1,37
 435 619 435 619 435 591 c 2,38,-1
 435 135 l 2,0,1
194 0 m 1,39,-1
 184 0 l 2,40,41
 158 0 158 0 134 5 c 128,-1,42
 110 10 110 10 91.5 23 c 128,-1,43
 73 36 73 36 61.5 59 c 128,-1,44
 50 82 50 82 50 119 c 2,45,-1
 50 726 l 1,46,-1
 66 726 l 2,47,48
 90 726 90 726 113 720.5 c 128,-1,49
 136 715 136 715 154 701.5 c 128,-1,50
 172 688 172 688 183 665 c 128,-1,51
 194 642 194 642 194 606 c 2,52,-1
 194 0 l 1,39,-1
EndSplineSet
EndChar

StartChar: E
Encoding: 69 69 43
Width: 438
Flags: W
LayerCount: 2
Fore
SplineSet
194 0 m 1,0,-1
 184 0 l 2,1,2
 158 0 158 0 134 5 c 128,-1,3
 110 10 110 10 91.5 23 c 128,-1,4
 73 36 73 36 61.5 59 c 128,-1,5
 50 82 50 82 50 119 c 2,6,-1
 50 606 l 2,7,8
 50 642 50 642 61 665 c 128,-1,9
 72 688 72 688 90 701.5 c 128,-1,10
 108 715 108 715 131 720.5 c 128,-1,11
 154 726 154 726 178 726 c 2,12,-1
 194 726 l 1,13,-1
 194 0 l 1,0,-1
215 416 m 1,14,-1
 304 416 l 1,15,16
 304 393 304 393 300.5 374 c 128,-1,17
 297 355 297 355 287.5 340.5 c 128,-1,18
 278 326 278 326 262 318 c 128,-1,19
 246 310 246 310 221 310 c 2,20,-1
 215 310 l 1,21,-1
 215 416 l 1,14,-1
413 96 m 0,22,23
 413 79 413 79 407 62 c 128,-1,24
 401 45 401 45 388 31.5 c 128,-1,25
 375 18 375 18 356 9 c 128,-1,26
 337 0 337 0 311 0 c 0,27,28
 292 0 292 0 274 6.5 c 128,-1,29
 256 13 256 13 242.5 25 c 128,-1,30
 229 37 229 37 220.5 53 c 128,-1,31
 212 69 212 69 212 89 c 0,32,33
 212 97 212 97 212.5 103.5 c 128,-1,34
 213 110 213 110 216 118 c 1,35,36
 229 106 229 106 248 106 c 0,37,38
 263 106 263 106 273 115.5 c 128,-1,39
 283 125 283 125 283 144 c 2,40,-1
 283 193 l 1,41,42
 291 195 291 195 303 195 c 0,43,44
 317 195 317 195 336 191.5 c 128,-1,45
 355 188 355 188 372 177 c 128,-1,46
 389 166 389 166 401 146.5 c 128,-1,47
 413 127 413 127 413 96 c 0,22,23
413 631 m 0,48,49
 413 599 413 599 401 580 c 128,-1,50
 389 561 389 561 372 550 c 128,-1,51
 355 539 355 539 336 535.5 c 128,-1,52
 317 532 317 532 303 532 c 0,53,54
 291 532 291 532 283 534 c 1,55,-1
 283 580 l 2,56,57
 283 600 283 600 273.5 610.5 c 128,-1,58
 264 621 264 621 248 621 c 0,59,60
 229 621 229 621 216 609 c 1,61,62
 213 617 213 617 212.5 623.5 c 128,-1,63
 212 630 212 630 212 638 c 0,64,65
 212 650 212 650 217.5 665.5 c 128,-1,66
 223 681 223 681 234.5 694.5 c 128,-1,67
 246 708 246 708 264.5 717.5 c 128,-1,68
 283 727 283 727 309 727 c 0,69,70
 330 727 330 727 349 720 c 128,-1,71
 368 713 368 713 382 700 c 128,-1,72
 396 687 396 687 404.5 669.5 c 128,-1,73
 413 652 413 652 413 631 c 0,48,49
EndSplineSet
EndChar

StartChar: F
Encoding: 70 70 44
Width: 418
Flags: W
LayerCount: 2
Fore
SplineSet
194 0 m 1,0,-1
 184 0 l 2,1,2
 158 0 158 0 134 5 c 128,-1,3
 110 10 110 10 91.5 23 c 128,-1,4
 73 36 73 36 61.5 59 c 128,-1,5
 50 82 50 82 50 119 c 2,6,-1
 50 606 l 2,7,8
 50 642 50 642 61 665 c 128,-1,9
 72 688 72 688 90 701.5 c 128,-1,10
 108 715 108 715 131 720.5 c 128,-1,11
 154 726 154 726 178 726 c 2,12,-1
 194 726 l 1,13,-1
 194 0 l 1,0,-1
215 416 m 1,14,-1
 304 416 l 1,15,16
 304 393 304 393 300.5 374 c 128,-1,17
 297 355 297 355 287.5 340.5 c 128,-1,18
 278 326 278 326 262 318 c 128,-1,19
 246 310 246 310 221 310 c 2,20,-1
 215 310 l 1,21,-1
 215 416 l 1,14,-1
413 631 m 0,22,23
 413 599 413 599 401 580 c 128,-1,24
 389 561 389 561 372 550 c 128,-1,25
 355 539 355 539 336 535.5 c 128,-1,26
 317 532 317 532 303 532 c 0,27,28
 291 532 291 532 283 534 c 1,29,-1
 283 580 l 2,30,31
 283 598 283 598 274 609.5 c 128,-1,32
 265 621 265 621 248 621 c 0,33,34
 229 621 229 621 216 609 c 1,35,36
 213 617 213 617 212.5 623.5 c 128,-1,37
 212 630 212 630 212 638 c 0,38,39
 212 652 212 652 217.5 668 c 128,-1,40
 223 684 223 684 234.5 697 c 128,-1,41
 246 710 246 710 264.5 718.5 c 128,-1,42
 283 727 283 727 309 727 c 0,43,44
 330 727 330 727 349 720 c 128,-1,45
 368 713 368 713 382 700 c 128,-1,46
 396 687 396 687 404.5 669.5 c 128,-1,47
 413 652 413 652 413 631 c 0,22,23
EndSplineSet
EndChar

StartChar: G
Encoding: 71 71 45
Width: 451
Flags: W
LayerCount: 2
Fore
SplineSet
194 0 m 1,0,-1
 184 0 l 2,1,2
 158 0 158 0 134 5 c 128,-1,3
 110 10 110 10 91.5 23 c 128,-1,4
 73 36 73 36 61.5 59 c 128,-1,5
 50 82 50 82 50 119 c 2,6,-1
 50 606 l 2,7,8
 50 642 50 642 61 665 c 128,-1,9
 72 688 72 688 90 701.5 c 128,-1,10
 108 715 108 715 131 720.5 c 128,-1,11
 154 726 154 726 178 726 c 2,12,-1
 194 726 l 1,13,-1
 194 0 l 1,0,-1
409 123 m 2,14,15
 409 85 409 85 396.5 61 c 128,-1,16
 384 37 384 37 365.5 23.5 c 128,-1,17
 347 10 347 10 325.5 5 c 128,-1,18
 304 0 304 0 286 0 c 2,19,-1
 264 0 l 1,20,-1
 264 204 l 2,21,22
 264 225 264 225 261 243.5 c 128,-1,23
 258 262 258 262 241 262 c 0,24,25
 232 262 232 262 227 260 c 128,-1,26
 222 258 222 258 217 253 c 1,27,-1
 214 264 l 2,28,29
 211 274 211 274 211 294 c 0,30,31
 211 323 211 323 234 347 c 128,-1,32
 257 371 257 371 302 371 c 0,33,34
 352 371 352 371 381 339.5 c 128,-1,35
 410 308 410 308 409 245 c 1,36,-1
 409 123 l 2,14,15
412 631 m 0,37,38
 412 599 412 599 400 580 c 128,-1,39
 388 561 388 561 371 550 c 128,-1,40
 354 539 354 539 335 535.5 c 128,-1,41
 316 532 316 532 302 532 c 0,42,43
 290 532 290 532 282 534 c 1,44,-1
 282 580 l 2,45,46
 282 601 282 601 272 611 c 128,-1,47
 262 621 262 621 247 621 c 0,48,49
 228 621 228 621 215 609 c 1,50,51
 212 617 212 617 211.5 623.5 c 128,-1,52
 211 630 211 630 211 638 c 0,53,54
 211 650 211 650 216.5 665.5 c 128,-1,55
 222 681 222 681 233.5 694.5 c 128,-1,56
 245 708 245 708 263.5 717.5 c 128,-1,57
 282 727 282 727 308 727 c 0,58,59
 335 727 335 727 354.5 718 c 128,-1,60
 374 709 374 709 386.5 695.5 c 128,-1,61
 399 682 399 682 405.5 664.5 c 128,-1,62
 412 647 412 647 412 631 c 0,37,38
EndSplineSet
EndChar

StartChar: H
Encoding: 72 72 46
Width: 491
Flags: W
LayerCount: 2
Fore
SplineSet
50 726 m 1,0,-1
 66 726 l 2,1,2
 90 726 90 726 113 720.5 c 128,-1,3
 136 715 136 715 154 701.5 c 128,-1,4
 172 688 172 688 183 665 c 128,-1,5
 194 642 194 642 194 606 c 2,6,-1
 194 119 l 2,7,8
 194 82 194 82 182.5 59 c 128,-1,9
 171 36 171 36 152.5 23 c 128,-1,10
 134 10 134 10 109.5 5 c 128,-1,11
 85 0 85 0 60 0 c 2,12,-1
 50 0 l 1,13,-1
 50 726 l 1,0,-1
297 726 m 1,14,-1
 313 726 l 2,15,16
 337 726 337 726 360 720.5 c 128,-1,17
 383 715 383 715 401 701.5 c 128,-1,18
 419 688 419 688 430 665 c 128,-1,19
 441 642 441 642 441 606 c 2,20,-1
 441 119 l 2,21,22
 441 82 441 82 429.5 59 c 128,-1,23
 418 36 418 36 399.5 23 c 128,-1,24
 381 10 381 10 356.5 5 c 128,-1,25
 332 0 332 0 307 0 c 2,26,-1
 297 0 l 1,27,-1
 297 726 l 1,14,-1
206 416 m 1,28,-1
 297 416 l 1,29,30
 293 395 293 395 288 377.5 c 128,-1,31
 283 360 283 360 273.5 347.5 c 128,-1,32
 264 335 264 335 249 327.5 c 128,-1,33
 234 320 234 320 211 320 c 2,34,-1
 206 320 l 1,35,-1
 206 416 l 1,28,-1
EndSplineSet
EndChar

StartChar: I
Encoding: 73 73 47
Width: 244
Flags: W
LayerCount: 2
Fore
SplineSet
194 0 m 1,0,-1
 184 0 l 2,1,2
 158 0 158 0 134 5 c 128,-1,3
 110 10 110 10 91.5 23 c 128,-1,4
 73 36 73 36 61.5 59 c 128,-1,5
 50 82 50 82 50 119 c 2,6,-1
 50 726 l 1,7,-1
 66 726 l 2,8,9
 90 726 90 726 113 720.5 c 128,-1,10
 136 715 136 715 154 701.5 c 128,-1,11
 172 688 172 688 183 665 c 128,-1,12
 194 642 194 642 194 606 c 2,13,-1
 194 0 l 1,0,-1
EndSplineSet
EndChar

StartChar: J
Encoding: 74 74 48
Width: 343
Flags: W
LayerCount: 2
Fore
SplineSet
164 726 m 1,0,-1
 180 726 l 2,1,2
 204 726 204 726 227 720.5 c 128,-1,3
 250 715 250 715 268 701.5 c 128,-1,4
 286 688 286 688 297 665 c 128,-1,5
 308 642 308 642 308 606 c 2,6,-1
 308 259 l 2,7,8
 308 222 308 222 296.5 199 c 128,-1,9
 285 176 285 176 266.5 163 c 128,-1,10
 248 150 248 150 223.5 145 c 128,-1,11
 199 140 199 140 174 140 c 2,12,-1
 164 140 l 1,13,-1
 164 726 l 1,0,-1
5 96 m 0,14,15
 5 127 5 127 17 146.5 c 128,-1,16
 29 166 29 166 46 177 c 128,-1,17
 63 188 63 188 82 191.5 c 128,-1,18
 101 195 101 195 115 195 c 0,19,20
 127 195 127 195 135 193 c 1,21,-1
 135 147 l 2,22,23
 135 126 135 126 145 116 c 128,-1,24
 155 106 155 106 170 106 c 0,25,26
 188 106 188 106 202 118 c 1,27,28
 205 110 205 110 205.5 103.5 c 128,-1,29
 206 97 206 97 206 89 c 0,30,31
 206 77 206 77 200.5 61.5 c 128,-1,32
 195 46 195 46 183.5 32.5 c 128,-1,33
 172 19 172 19 153.5 9.5 c 128,-1,34
 135 0 135 0 109 0 c 0,35,36
 82 0 82 0 62.5 9 c 128,-1,37
 43 18 43 18 30.5 31.5 c 128,-1,38
 18 45 18 45 11.5 62 c 128,-1,39
 5 79 5 79 5 96 c 0,14,15
EndSplineSet
EndChar

StartChar: K
Encoding: 75 75 49
Width: 442
Flags: W
LayerCount: 2
Fore
SplineSet
55 726 m 1,0,-1
 71 726 l 2,1,2
 95 726 95 726 118 720.5 c 128,-1,3
 141 715 141 715 159 701.5 c 128,-1,4
 177 688 177 688 188 665 c 128,-1,5
 199 642 199 642 199 606 c 2,6,-1
 199 119 l 2,7,8
 199 82 199 82 187.5 59 c 128,-1,9
 176 36 176 36 157.5 23 c 128,-1,10
 139 10 139 10 114.5 5 c 128,-1,11
 90 0 90 0 65 0 c 2,12,-1
 55 0 l 1,13,-1
 55 726 l 1,0,-1
397 0 m 1,14,-1
 387 0 l 2,15,16
 361 0 361 0 335.5 5 c 128,-1,17
 310 10 310 10 289.5 23 c 128,-1,18
 269 36 269 36 256 59 c 128,-1,19
 243 82 243 82 243 119 c 2,20,-1
 243 361 l 1,21,-1
 259 361 l 2,22,23
 284 361 284 361 309 355.5 c 128,-1,24
 334 350 334 350 353.5 336.5 c 128,-1,25
 373 323 373 323 385 300 c 128,-1,26
 397 277 397 277 397 241 c 2,27,-1
 397 0 l 1,14,-1
407 507 m 2,28,29
 407 447 407 447 382 409.5 c 128,-1,30
 357 372 357 372 302 372 c 0,31,32
 282 372 282 372 266 378.5 c 128,-1,33
 250 385 250 385 239 395 c 128,-1,34
 228 405 228 405 222 418 c 128,-1,35
 216 431 216 431 216 443 c 256,36,37
 216 455 216 455 217 462 c 128,-1,38
 218 469 218 469 219 474 c 1,39,40
 224 468 224 468 228.5 465 c 128,-1,41
 233 462 233 462 241 462 c 0,42,43
 255 463 255 463 258 473.5 c 128,-1,44
 261 484 261 484 261 499 c 2,45,-1
 261 725 l 1,46,-1
 274 725 l 2,47,48
 295 725 295 725 318 721 c 128,-1,49
 341 717 341 717 361 704.5 c 128,-1,50
 381 692 381 692 394 667.5 c 128,-1,51
 407 643 407 643 407 602 c 2,52,-1
 407 507 l 2,28,29
EndSplineSet
EndChar

StartChar: L
Encoding: 76 76 50
Width: 433
Flags: W
LayerCount: 2
Fore
SplineSet
194 0 m 1,0,-1
 184 0 l 2,1,2
 158 0 158 0 134 5 c 128,-1,3
 110 10 110 10 91.5 23 c 128,-1,4
 73 36 73 36 61.5 59 c 128,-1,5
 50 82 50 82 50 119 c 2,6,-1
 50 726 l 1,7,-1
 66 726 l 2,8,9
 90 726 90 726 113 720.5 c 128,-1,10
 136 715 136 715 154 701.5 c 128,-1,11
 172 688 172 688 183 665 c 128,-1,12
 194 642 194 642 194 606 c 2,13,-1
 194 0 l 1,0,-1
413 96 m 0,14,15
 413 79 413 79 406.5 62 c 128,-1,16
 400 45 400 45 387.5 31.5 c 128,-1,17
 375 18 375 18 355.5 9 c 128,-1,18
 336 0 336 0 311 0 c 2,19,-1
 307 0 l 2,20,21
 280 0 280 0 262 9.5 c 128,-1,22
 244 19 244 19 232.5 32.5 c 128,-1,23
 221 46 221 46 216.5 61.5 c 128,-1,24
 212 77 212 77 212 89 c 0,25,26
 212 97 212 97 212.5 103.5 c 128,-1,27
 213 110 213 110 216 118 c 1,28,29
 229 106 229 106 248 106 c 0,30,31
 263 106 263 106 273 115.5 c 128,-1,32
 283 125 283 125 283 144 c 2,33,-1
 283 193 l 1,34,35
 285 194 285 194 296.5 194.5 c 128,-1,36
 308 195 308 195 315 195 c 0,37,38
 326 195 326 195 343 191.5 c 128,-1,39
 360 188 360 188 375.5 177 c 128,-1,40
 391 166 391 166 402 146.5 c 128,-1,41
 413 127 413 127 413 96 c 0,14,15
EndSplineSet
EndChar

StartChar: M
Encoding: 77 77 51
Width: 724
Flags: W
LayerCount: 2
Fore
SplineSet
291 559 m 2,0,1
 291 570 291 570 289.5 581.5 c 128,-1,2
 288 593 288 593 283.5 602.5 c 128,-1,3
 279 612 279 612 270.5 618 c 128,-1,4
 262 624 262 624 247 624 c 0,5,6
 228 624 228 624 215 612 c 1,7,8
 209 628 209 628 209 641 c 0,9,10
 209 657 209 657 214.5 672.5 c 128,-1,11
 220 688 220 688 232 700 c 128,-1,12
 244 712 244 712 262.5 719.5 c 128,-1,13
 281 727 281 727 308 727 c 0,14,15
 368 727 368 727 401 691 c 128,-1,16
 434 655 434 655 434 592 c 2,17,-1
 434 0 l 1,18,19
 407 0 407 0 381.5 4 c 128,-1,20
 356 8 356 8 335.5 20.5 c 128,-1,21
 315 33 315 33 303 58 c 128,-1,22
 291 83 291 83 291 125 c 2,23,-1
 291 559 l 2,0,1
194 0 m 1,24,-1
 184 0 l 2,25,26
 158 0 158 0 134 5 c 128,-1,27
 110 10 110 10 91.5 23 c 128,-1,28
 73 36 73 36 61.5 59 c 128,-1,29
 50 82 50 82 50 119 c 2,30,-1
 50 726 l 1,31,-1
 66 726 l 2,32,33
 90 726 90 726 113 720.5 c 128,-1,34
 136 715 136 715 154 701.5 c 128,-1,35
 172 688 172 688 183 665 c 128,-1,36
 194 642 194 642 194 606 c 2,37,-1
 194 0 l 1,24,-1
531 559 m 2,38,39
 531 570 531 570 529.5 581.5 c 128,-1,40
 528 593 528 593 523.5 602.5 c 128,-1,41
 519 612 519 612 510.5 618 c 128,-1,42
 502 624 502 624 487 624 c 0,43,44
 468 624 468 624 455 612 c 1,45,46
 449 628 449 628 449 641 c 0,47,48
 449 657 449 657 454.5 672.5 c 128,-1,49
 460 688 460 688 472 700 c 128,-1,50
 484 712 484 712 502.5 719.5 c 128,-1,51
 521 727 521 727 548 727 c 0,52,53
 608 727 608 727 641 691 c 128,-1,54
 674 655 674 655 674 592 c 2,55,-1
 674 0 l 1,56,57
 647 0 647 0 621.5 4 c 128,-1,58
 596 8 596 8 575.5 20.5 c 128,-1,59
 555 33 555 33 543 58 c 128,-1,60
 531 83 531 83 531 125 c 2,61,-1
 531 559 l 2,38,39
EndSplineSet
EndChar

StartChar: N
Encoding: 78 78 52
Width: 484
Flags: W
LayerCount: 2
Fore
SplineSet
291 559 m 2,0,1
 291 570 291 570 289.5 581.5 c 128,-1,2
 288 593 288 593 283.5 602.5 c 128,-1,3
 279 612 279 612 270.5 618 c 128,-1,4
 262 624 262 624 247 624 c 0,5,6
 228 624 228 624 215 612 c 1,7,8
 209 628 209 628 209 641 c 0,9,10
 209 657 209 657 214.5 672.5 c 128,-1,11
 220 688 220 688 232 700 c 128,-1,12
 244 712 244 712 262.5 719.5 c 128,-1,13
 281 727 281 727 308 727 c 0,14,15
 368 727 368 727 401 691 c 128,-1,16
 434 655 434 655 434 592 c 2,17,-1
 434 0 l 1,18,19
 407 0 407 0 381.5 4 c 128,-1,20
 356 8 356 8 335.5 20.5 c 128,-1,21
 315 33 315 33 303 58 c 128,-1,22
 291 83 291 83 291 125 c 2,23,-1
 291 559 l 2,0,1
194 0 m 1,24,-1
 184 0 l 2,25,26
 158 0 158 0 134 5 c 128,-1,27
 110 10 110 10 91.5 23 c 128,-1,28
 73 36 73 36 61.5 59 c 128,-1,29
 50 82 50 82 50 119 c 2,30,-1
 50 726 l 1,31,-1
 66 726 l 2,32,33
 90 726 90 726 113 720.5 c 128,-1,34
 136 715 136 715 154 701.5 c 128,-1,35
 172 688 172 688 183 665 c 128,-1,36
 194 642 194 642 194 606 c 2,37,-1
 194 0 l 1,24,-1
EndSplineSet
EndChar

StartChar: O
Encoding: 79 79 53
Width: 484
Flags: W
LayerCount: 2
Fore
SplineSet
291 559 m 2,0,1
 291 570 291 570 289.5 581.5 c 128,-1,2
 288 593 288 593 283.5 602.5 c 128,-1,3
 279 612 279 612 270.5 618 c 128,-1,4
 262 624 262 624 247 624 c 0,5,6
 228 624 228 624 215 612 c 1,7,8
 209 628 209 628 209 641 c 0,9,10
 209 657 209 657 214.5 672.5 c 128,-1,11
 220 688 220 688 232 700 c 128,-1,12
 244 712 244 712 262.5 719.5 c 128,-1,13
 281 727 281 727 308 727 c 0,14,15
 368 727 368 727 401 691 c 128,-1,16
 434 655 434 655 434 592 c 2,17,-1
 434 125 l 2,18,19
 434 83 434 83 422 58 c 128,-1,20
 410 33 410 33 389.5 20.5 c 128,-1,21
 369 8 369 8 343.5 4 c 128,-1,22
 318 0 318 0 291 0 c 1,23,-1
 291 559 l 2,0,1
193 169 m 2,24,25
 193 158 193 158 194.5 146.5 c 128,-1,26
 196 135 196 135 200.5 125.5 c 128,-1,27
 205 116 205 116 213.5 110 c 128,-1,28
 222 104 222 104 237 104 c 0,29,30
 255 104 255 104 269 116 c 1,31,32
 272 108 272 108 273.5 101.5 c 128,-1,33
 275 95 275 95 275 87 c 0,34,35
 275 71 275 71 269.5 55.5 c 128,-1,36
 264 40 264 40 252 28 c 128,-1,37
 240 16 240 16 221.5 8.5 c 128,-1,38
 203 1 203 1 176 1 c 0,39,40
 116 1 116 1 83 37 c 128,-1,41
 50 73 50 73 50 136 c 2,42,-1
 50 603 l 2,43,44
 50 645 50 645 62 670 c 128,-1,45
 74 695 74 695 94.5 707.5 c 128,-1,46
 115 720 115 720 140.5 724 c 128,-1,47
 166 728 166 728 193 728 c 1,48,-1
 193 169 l 2,24,25
EndSplineSet
EndChar

StartChar: P
Encoding: 80 80 54
Width: 446
Flags: W
LayerCount: 2
Fore
SplineSet
194 120 m 2,0,1
 194 85 194 85 180 62 c 128,-1,2
 166 39 166 39 145 25.5 c 128,-1,3
 124 12 124 12 98.5 6 c 128,-1,4
 73 0 73 0 50 0 c 1,5,-1
 50 589 l 2,6,7
 50 655 50 655 80 691 c 128,-1,8
 110 727 110 727 167 727 c 0,9,10
 195 727 195 727 215 717.5 c 128,-1,11
 235 708 235 708 247 693 c 128,-1,12
 259 678 259 678 264.5 658.5 c 128,-1,13
 270 639 270 639 270 618 c 2,14,-1
 270 608 l 1,15,16
 263 614 263 614 254.5 616.5 c 128,-1,17
 246 619 246 619 238 619 c 0,18,19
 223 619 223 619 214.5 613.5 c 128,-1,20
 206 608 206 608 201.5 599.5 c 128,-1,21
 197 591 197 591 195.5 580 c 128,-1,22
 194 569 194 569 194 557 c 2,23,-1
 194 120 l 2,0,1
282 725 m 1,24,25
 287 725 287 725 290.5 725.5 c 128,-1,26
 294 726 294 726 299 726 c 0,27,28
 360 726 360 726 393 693 c 128,-1,29
 426 660 426 660 426 587 c 2,30,-1
 426 408 l 2,31,32
 426 375 426 375 416.5 350 c 128,-1,33
 407 325 407 325 391.5 307.5 c 128,-1,34
 376 290 376 290 354.5 281 c 128,-1,35
 333 272 333 272 309 272 c 0,36,37
 278 272 278 272 258 282 c 128,-1,38
 238 292 238 292 226.5 308.5 c 128,-1,39
 215 325 215 325 210.5 346 c 128,-1,40
 206 367 206 367 206 388 c 1,41,42
 220 380 220 380 238 380 c 0,43,44
 253 380 253 380 261.5 385.5 c 128,-1,45
 270 391 270 391 274.5 399.5 c 128,-1,46
 279 408 279 408 280.5 419 c 128,-1,47
 282 430 282 430 282 442 c 2,48,-1
 282 725 l 1,24,25
EndSplineSet
EndChar

StartChar: Q
Encoding: 81 81 55
Width: 489
Flags: W
LayerCount: 2
Fore
SplineSet
296 559 m 2,0,1
 296 570 296 570 294.5 581.5 c 128,-1,2
 293 593 293 593 288.5 602.5 c 128,-1,3
 284 612 284 612 275.5 618 c 128,-1,4
 267 624 267 624 252 624 c 0,5,6
 233 624 233 624 220 612 c 1,7,8
 214 628 214 628 214 641 c 0,9,10
 214 657 214 657 219.5 672.5 c 128,-1,11
 225 688 225 688 237 700 c 128,-1,12
 249 712 249 712 267.5 719.5 c 128,-1,13
 286 727 286 727 313 727 c 0,14,15
 373 727 373 727 406 691 c 128,-1,16
 439 655 439 655 439 592 c 2,17,-1
 439 125 l 2,18,19
 439 83 439 83 427 58 c 128,-1,20
 415 33 415 33 394.5 20.5 c 128,-1,21
 374 8 374 8 348.5 4 c 128,-1,22
 323 0 323 0 296 0 c 1,23,-1
 296 559 l 2,0,1
198 169 m 2,24,25
 198 158 198 158 199.5 146.5 c 128,-1,26
 201 135 201 135 205.5 125.5 c 128,-1,27
 210 116 210 116 218.5 110 c 128,-1,28
 227 104 227 104 242 104 c 0,29,30
 260 104 260 104 274 116 c 1,31,32
 277 108 277 108 278.5 101.5 c 128,-1,33
 280 95 280 95 280 87 c 0,34,35
 280 71 280 71 274.5 55.5 c 128,-1,36
 269 40 269 40 257 28 c 128,-1,37
 245 16 245 16 226.5 8.5 c 128,-1,38
 208 1 208 1 181 1 c 0,39,40
 121 1 121 1 88 37 c 128,-1,41
 55 73 55 73 55 136 c 2,42,-1
 55 603 l 2,43,44
 55 645 55 645 67 670 c 128,-1,45
 79 695 79 695 99.5 707.5 c 128,-1,46
 120 720 120 720 145.5 724 c 128,-1,47
 171 728 171 728 198 728 c 1,48,-1
 198 169 l 2,24,25
166 -104 m 0,49,50
 166 -73 166 -73 178 -53.5 c 128,-1,51
 190 -34 190 -34 207 -23 c 128,-1,52
 224 -12 224 -12 243 -8.5 c 128,-1,53
 262 -5 262 -5 276 -5 c 0,54,55
 288 -5 288 -5 296 -7 c 1,56,-1
 296 -53 l 2,57,58
 296 -74 296 -74 306 -84 c 128,-1,59
 316 -94 316 -94 331 -94 c 0,60,61
 349 -94 349 -94 363 -82 c 1,62,63
 366 -90 366 -90 366.5 -96.5 c 128,-1,64
 367 -103 367 -103 367 -111 c 0,65,66
 367 -123 367 -123 361.5 -138.5 c 128,-1,67
 356 -154 356 -154 344.5 -167.5 c 128,-1,68
 333 -181 333 -181 314.5 -190.5 c 128,-1,69
 296 -200 296 -200 270 -200 c 0,70,71
 243 -200 243 -200 223.5 -191 c 128,-1,72
 204 -182 204 -182 191.5 -168.5 c 128,-1,73
 179 -155 179 -155 172.5 -138 c 128,-1,74
 166 -121 166 -121 166 -104 c 0,49,50
EndSplineSet
EndChar

StartChar: R
Encoding: 82 82 56
Width: 466
Flags: W
LayerCount: 2
Fore
SplineSet
194 120 m 2,0,1
 194 85 194 85 180 62 c 128,-1,2
 166 39 166 39 145 25.5 c 128,-1,3
 124 12 124 12 98.5 6 c 128,-1,4
 73 0 73 0 50 0 c 1,5,-1
 50 581 l 2,6,7
 50 651 50 651 82 689 c 128,-1,8
 114 727 114 727 174 727 c 0,9,10
 204 727 204 727 223 717 c 128,-1,11
 242 707 242 707 252.5 691 c 128,-1,12
 263 675 263 675 267 656.5 c 128,-1,13
 271 638 271 638 271 621 c 0,14,15
 271 612 271 612 269 608 c 1,16,17
 256 619 256 619 238 619 c 0,18,19
 223 619 223 619 214.5 613.5 c 128,-1,20
 206 608 206 608 201.5 599.5 c 128,-1,21
 197 591 197 591 195.5 580 c 128,-1,22
 194 569 194 569 194 557 c 2,23,-1
 194 120 l 2,0,1
282 725 m 1,24,-1
 295 725 l 2,25,26
 352 725 352 725 389 689.5 c 128,-1,27
 426 654 426 654 426 587 c 2,28,-1
 426 482 l 2,29,30
 426 416 426 416 393.5 382 c 128,-1,31
 361 348 361 348 315 346 c 1,32,-1
 308 346 l 2,33,34
 280 346 280 346 261 356 c 128,-1,35
 242 366 242 366 230.5 381.5 c 128,-1,36
 219 397 219 397 214 415.5 c 128,-1,37
 209 434 209 434 209 452 c 1,38,39
 216 446 216 446 222 443.5 c 128,-1,40
 228 441 228 441 246 441 c 0,41,42
 259 441 259 441 266.5 448.5 c 128,-1,43
 274 456 274 456 277.5 467 c 128,-1,44
 281 478 281 478 281.5 491.5 c 128,-1,45
 282 505 282 505 282 516 c 2,46,-1
 282 725 l 1,24,-1
410 0 m 1,47,-1
 400 0 l 2,48,49
 374 0 374 0 348.5 5 c 128,-1,50
 323 10 323 10 302.5 23 c 128,-1,51
 282 36 282 36 269 59 c 128,-1,52
 256 82 256 82 256 119 c 2,53,-1
 256 331 l 1,54,-1
 272 331 l 2,55,56
 297 331 297 331 322 325.5 c 128,-1,57
 347 320 347 320 366.5 306.5 c 128,-1,58
 386 293 386 293 398 270 c 128,-1,59
 410 247 410 247 410 211 c 2,60,-1
 410 0 l 1,47,-1
EndSplineSet
EndChar

StartChar: S
Encoding: 83 83 57
Width: 446
Flags: W
LayerCount: 2
Fore
SplineSet
196 320 m 1,0,-1
 184 320 l 2,1,2
 161 320 161 320 138 325 c 128,-1,3
 115 330 115 330 95.5 343.5 c 128,-1,4
 76 357 76 357 64 380.5 c 128,-1,5
 52 404 52 404 52 440 c 2,6,-1
 52 606 l 2,7,8
 52 642 52 642 64 665.5 c 128,-1,9
 76 689 76 689 95.5 702.5 c 128,-1,10
 115 716 115 716 138 721 c 128,-1,11
 161 726 161 726 184 726 c 2,12,-1
 196 726 l 1,13,-1
 196 320 l 1,0,-1
45 96 m 0,14,15
 45 127 45 127 57 146.5 c 128,-1,16
 69 166 69 166 86 177 c 128,-1,17
 103 188 103 188 122 191.5 c 128,-1,18
 141 195 141 195 155 195 c 0,19,20
 167 195 167 195 175 193 c 1,21,-1
 175 143 l 2,22,23
 175 106 175 106 204 106 c 0,24,25
 213 106 213 106 219 109 c 128,-1,26
 225 112 225 112 232 118 c 1,27,28
 235 110 235 110 235.5 98 c 128,-1,29
 236 86 236 86 236 79 c 0,30,31
 236 67 236 67 232 53 c 128,-1,32
 228 39 228 39 218.5 27.5 c 128,-1,33
 209 16 209 16 192 8 c 128,-1,34
 175 0 175 0 149 0 c 0,35,36
 122 0 122 0 102.5 9 c 128,-1,37
 83 18 83 18 70.5 31.5 c 128,-1,38
 58 45 58 45 51.5 62 c 128,-1,39
 45 79 45 79 45 96 c 0,14,15
252 405 m 1,40,-1
 264 405 l 2,41,42
 286 405 286 405 309.5 400 c 128,-1,43
 333 395 333 395 352.5 381.5 c 128,-1,44
 372 368 372 368 384 344.5 c 128,-1,45
 396 321 396 321 396 285 c 2,46,-1
 396 119 l 2,47,48
 396 83 396 83 384 59.5 c 128,-1,49
 372 36 372 36 352.5 22.5 c 128,-1,50
 333 9 333 9 309.5 4 c 128,-1,51
 286 -1 286 -1 264 -1 c 2,52,-1
 252 -1 l 1,53,-1
 252 405 l 1,40,-1
401 630 m 0,54,55
 401 598 401 598 389 579 c 128,-1,56
 377 560 377 560 360 549 c 128,-1,57
 343 538 343 538 324 534.5 c 128,-1,58
 305 531 305 531 291 531 c 0,59,60
 279 531 279 531 271 533 c 1,61,-1
 271 583 l 2,62,63
 271 620 271 620 242 620 c 0,64,65
 233 620 233 620 227 617 c 128,-1,66
 221 614 221 614 214 608 c 1,67,68
 211 616 211 616 210.5 628 c 128,-1,69
 210 640 210 640 210 647 c 0,70,71
 210 659 210 659 214 673 c 128,-1,72
 218 687 218 687 227.5 698.5 c 128,-1,73
 237 710 237 710 254 718 c 128,-1,74
 271 726 271 726 297 726 c 0,75,76
 324 726 324 726 343.5 717 c 128,-1,77
 363 708 363 708 375.5 694.5 c 128,-1,78
 388 681 388 681 394.5 663.5 c 128,-1,79
 401 646 401 646 401 630 c 0,54,55
EndSplineSet
EndChar

StartChar: T
Encoding: 84 84 58
Width: 587
Flags: W
LayerCount: 2
Fore
SplineSet
365 0 m 1,0,-1
 355 0 l 2,1,2
 329 0 329 0 305 5 c 128,-1,3
 281 10 281 10 262.5 23 c 128,-1,4
 244 36 244 36 232.5 59 c 128,-1,5
 221 82 221 82 221 119 c 2,6,-1
 221 726 l 1,7,-1
 237 726 l 2,8,9
 261 726 261 726 284 720.5 c 128,-1,10
 307 715 307 715 325 701.5 c 128,-1,11
 343 688 343 688 354 665 c 128,-1,12
 365 642 365 642 365 606 c 2,13,-1
 365 0 l 1,0,-1
5 627 m 0,14,15
 5 644 5 644 11 661 c 128,-1,16
 17 678 17 678 30 692 c 128,-1,17
 43 706 43 706 62 714.5 c 128,-1,18
 81 723 81 723 107 723 c 0,19,20
 134 723 134 723 153 713.5 c 128,-1,21
 172 704 172 704 183.5 690.5 c 128,-1,22
 195 677 195 677 200.5 661.5 c 128,-1,23
 206 646 206 646 206 634 c 0,24,25
 206 626 206 626 205.5 619.5 c 128,-1,26
 205 613 205 613 202 605 c 1,27,28
 188 617 188 617 170 617 c 0,29,30
 155 617 155 617 145 607.5 c 128,-1,31
 135 598 135 598 135 579 c 2,32,-1
 135 530 l 1,33,34
 127 528 127 528 115 528 c 0,35,36
 101 528 101 528 82 531.5 c 128,-1,37
 63 535 63 535 46 546 c 128,-1,38
 29 557 29 557 17 576 c 128,-1,39
 5 595 5 595 5 627 c 0,14,15
582 627 m 0,40,41
 582 595 582 595 570 576 c 128,-1,42
 558 557 558 557 541 546 c 128,-1,43
 524 535 524 535 505 531.5 c 128,-1,44
 486 528 486 528 472 528 c 0,45,46
 460 528 460 528 452 530 c 1,47,-1
 452 576 l 2,48,49
 452 597 452 597 442 607 c 128,-1,50
 432 617 432 617 417 617 c 0,51,52
 398 617 398 617 385 605 c 1,53,54
 382 613 382 613 381.5 619.5 c 128,-1,55
 381 626 381 626 381 634 c 0,56,57
 381 646 381 646 386.5 661.5 c 128,-1,58
 392 677 392 677 403.5 690.5 c 128,-1,59
 415 704 415 704 433.5 713.5 c 128,-1,60
 452 723 452 723 478 723 c 0,61,62
 505 723 505 723 524.5 714 c 128,-1,63
 544 705 544 705 556.5 691.5 c 128,-1,64
 569 678 569 678 575.5 660.5 c 128,-1,65
 582 643 582 643 582 627 c 0,40,41
EndSplineSet
EndChar

StartChar: U
Encoding: 85 85 59
Width: 485
Flags: W
LayerCount: 2
Fore
SplineSet
193 169 m 2,0,1
 193 158 193 158 194.5 146.5 c 128,-1,2
 196 135 196 135 200.5 125.5 c 128,-1,3
 205 116 205 116 213.5 110 c 128,-1,4
 222 104 222 104 237 104 c 0,5,6
 255 104 255 104 269 116 c 1,7,8
 272 108 272 108 273.5 101.5 c 128,-1,9
 275 95 275 95 275 87 c 0,10,11
 275 71 275 71 269.5 55.5 c 128,-1,12
 264 40 264 40 252 28 c 128,-1,13
 240 16 240 16 221.5 8.5 c 128,-1,14
 203 1 203 1 176 1 c 0,15,16
 116 1 116 1 83 37 c 128,-1,17
 50 73 50 73 50 136 c 2,18,-1
 50 728 l 1,19,20
 77 728 77 728 102.5 724 c 128,-1,21
 128 720 128 720 148.5 707.5 c 128,-1,22
 169 695 169 695 181 670 c 128,-1,23
 193 645 193 645 193 603 c 2,24,-1
 193 169 l 2,0,1
435 0 m 1,25,-1
 425 0 l 2,26,27
 399 0 399 0 375 5 c 128,-1,28
 351 10 351 10 332.5 23 c 128,-1,29
 314 36 314 36 302.5 59 c 128,-1,30
 291 82 291 82 291 119 c 2,31,-1
 291 726 l 1,32,-1
 307 726 l 2,33,34
 331 726 331 726 354 720.5 c 128,-1,35
 377 715 377 715 395 701.5 c 128,-1,36
 413 688 413 688 424 665 c 128,-1,37
 435 642 435 642 435 606 c 2,38,-1
 435 0 l 1,25,-1
EndSplineSet
EndChar

StartChar: V
Encoding: 86 86 60
Width: 480
Flags: W
LayerCount: 2
Fore
SplineSet
193 169 m 2,0,1
 193 158 193 158 194.5 146.5 c 128,-1,2
 196 135 196 135 200.5 125.5 c 128,-1,3
 205 116 205 116 213.5 110 c 128,-1,4
 222 104 222 104 237 104 c 0,5,6
 255 104 255 104 269 116 c 1,7,8
 272 108 272 108 273.5 101.5 c 128,-1,9
 275 95 275 95 275 87 c 0,10,11
 275 71 275 71 269.5 55.5 c 128,-1,12
 264 40 264 40 252 28 c 128,-1,13
 240 16 240 16 221.5 8.5 c 128,-1,14
 203 1 203 1 176 1 c 0,15,16
 116 1 116 1 83 37 c 128,-1,17
 50 73 50 73 50 136 c 2,18,-1
 50 728 l 1,19,20
 77 728 77 728 102.5 724 c 128,-1,21
 128 720 128 720 148.5 707.5 c 128,-1,22
 169 695 169 695 181 670 c 128,-1,23
 193 645 193 645 193 603 c 2,24,-1
 193 169 l 2,0,1
291 726 m 1,25,-1
 307 726 l 2,26,27
 331 726 331 726 354 720.5 c 128,-1,28
 377 715 377 715 395 701.5 c 128,-1,29
 413 688 413 688 424 665 c 128,-1,30
 435 642 435 642 435 606 c 2,31,-1
 435 273 l 2,32,33
 435 225 435 225 424 193 c 128,-1,34
 413 161 413 161 394 142.5 c 128,-1,35
 375 124 375 124 350 116 c 128,-1,36
 325 108 325 108 297 108 c 2,37,-1
 291 108 l 1,38,-1
 291 726 l 1,25,-1
EndSplineSet
EndChar

StartChar: W
Encoding: 87 87 61
Width: 722
Flags: W
LayerCount: 2
Fore
SplineSet
436 169 m 2,0,1
 436 158 436 158 437 146.5 c 128,-1,2
 438 135 438 135 442.5 125.5 c 128,-1,3
 447 116 447 116 455.5 110 c 128,-1,4
 464 104 464 104 479 104 c 0,5,6
 497 104 497 104 511 116 c 1,7,8
 514 108 514 108 515.5 101.5 c 128,-1,9
 517 95 517 95 517 87 c 0,10,11
 517 71 517 71 511.5 55.5 c 128,-1,12
 506 40 506 40 494 28 c 128,-1,13
 482 16 482 16 463.5 8.5 c 128,-1,14
 445 1 445 1 418 1 c 0,15,16
 358 1 358 1 325 37 c 128,-1,17
 292 73 292 73 292 136 c 2,18,-1
 292 606 l 2,19,20
 292 642 292 642 303 665 c 128,-1,21
 314 688 314 688 332 701.5 c 128,-1,22
 350 715 350 715 373.5 720.5 c 128,-1,23
 397 726 397 726 421 726 c 2,24,-1
 437 726 l 1,25,-1
 436 169 l 2,0,1
175 1 m 0,26,27
 115 1 115 1 82.5 37 c 128,-1,28
 50 73 50 73 50 136 c 2,29,-1
 50 606 l 2,30,31
 50 642 50 642 61 665 c 128,-1,32
 72 688 72 688 90 701.5 c 128,-1,33
 108 715 108 715 131 720.5 c 128,-1,34
 154 726 154 726 178 726 c 2,35,-1
 194 726 l 1,36,-1
 194 169 l 2,37,38
 194 158 194 158 195.5 146.5 c 128,-1,39
 197 135 197 135 201.5 125.5 c 128,-1,40
 206 116 206 116 214.5 110 c 128,-1,41
 223 104 223 104 238 104 c 0,42,43
 256 104 256 104 270 116 c 1,44,45
 273 108 273 108 274.5 101.5 c 128,-1,46
 276 95 276 95 276 87 c 0,47,48
 276 72 276 72 270.5 56.5 c 128,-1,49
 265 41 265 41 253 28.5 c 128,-1,50
 241 16 241 16 221.5 8.5 c 128,-1,51
 202 1 202 1 175 1 c 0,26,27
677 273 m 2,52,53
 677 225 677 225 666 193 c 128,-1,54
 655 161 655 161 636 142.5 c 128,-1,55
 617 124 617 124 592 116 c 128,-1,56
 567 108 567 108 539 108 c 2,57,-1
 533 108 l 1,58,-1
 533 606 l 2,59,60
 533 642 533 642 544 665 c 128,-1,61
 555 688 555 688 573 701.5 c 128,-1,62
 591 715 591 715 614 720.5 c 128,-1,63
 637 726 637 726 661 726 c 2,64,-1
 677 726 l 1,65,-1
 677 273 l 2,52,53
EndSplineSet
EndChar

StartChar: X
Encoding: 88 88 62
Width: 466
Flags: W
LayerCount: 2
Fore
SplineSet
40 231 m 2,0,1
 40 265 40 265 49 291 c 128,-1,2
 58 317 58 317 74 334.5 c 128,-1,3
 90 352 90 352 110 361 c 128,-1,4
 130 370 130 370 153 370 c 0,5,6
 178 370 178 370 196 362.5 c 128,-1,7
 214 355 214 355 224.5 343 c 128,-1,8
 235 331 235 331 240 317 c 128,-1,9
 245 303 245 303 245 291 c 0,10,11
 245 285 245 285 243.5 276 c 128,-1,12
 242 267 242 267 239 259 c 1,13,14
 230 270 230 270 216 270 c 0,15,16
 197 270 197 270 190.5 255.5 c 128,-1,17
 184 241 184 241 184 219 c 2,18,-1
 184 0 l 1,19,-1
 180 0 l 2,20,21
 158 0 158 0 133.5 5 c 128,-1,22
 109 10 109 10 88 23 c 128,-1,23
 67 36 67 36 53.5 59.5 c 128,-1,24
 40 83 40 83 40 119 c 2,25,-1
 40 231 l 2,0,1
426 500 m 2,26,27
 426 466 426 466 416.5 440.5 c 128,-1,28
 407 415 407 415 390.5 397.5 c 128,-1,29
 374 380 374 380 353 371.5 c 128,-1,30
 332 363 332 363 309 363 c 0,31,32
 284 363 284 363 267 370.5 c 128,-1,33
 250 378 250 378 240 389.5 c 128,-1,34
 230 401 230 401 225.5 414.5 c 128,-1,35
 221 428 221 428 221 440 c 0,36,37
 221 446 221 446 222.5 455 c 128,-1,38
 224 464 224 464 227 472 c 1,39,40
 234 466 234 466 239.5 464 c 128,-1,41
 245 462 245 462 254 461 c 1,42,43
 264 461 264 461 269.5 466.5 c 128,-1,44
 275 472 275 472 278 479.5 c 128,-1,45
 281 487 281 487 281.5 496 c 128,-1,46
 282 505 282 505 282 512 c 2,47,-1
 282 726 l 1,48,-1
 286 726 l 2,49,50
 308 726 308 726 332.5 721 c 128,-1,51
 357 716 357 716 378 703 c 128,-1,52
 399 690 399 690 412.5 666.5 c 128,-1,53
 426 643 426 643 426 607 c 2,54,-1
 426 500 l 2,26,27
204 379 m 1,55,-1
 194 379 l 2,56,57
 168 379 168 379 144 384 c 128,-1,58
 120 389 120 389 101.5 402 c 128,-1,59
 83 415 83 415 71.5 438 c 128,-1,60
 60 461 60 461 60 498 c 2,61,-1
 60 726 l 1,62,-1
 76 726 l 2,63,64
 100 726 100 726 123 720.5 c 128,-1,65
 146 715 146 715 164 701.5 c 128,-1,66
 182 688 182 688 193 665 c 128,-1,67
 204 642 204 642 204 606 c 2,68,-1
 204 379 l 1,55,-1
410 0 m 1,69,-1
 400 0 l 2,70,71
 374 0 374 0 350 5 c 128,-1,72
 326 10 326 10 307.5 23 c 128,-1,73
 289 36 289 36 277.5 59 c 128,-1,74
 266 82 266 82 266 119 c 2,75,-1
 266 347 l 1,76,-1
 282 347 l 2,77,78
 306 347 306 347 329 341.5 c 128,-1,79
 352 336 352 336 370 322.5 c 128,-1,80
 388 309 388 309 399 286 c 128,-1,81
 410 263 410 263 410 227 c 2,82,-1
 410 0 l 1,69,-1
EndSplineSet
EndChar

StartChar: Y
Encoding: 89 89 63
Width: 476
Flags: W
LayerCount: 2
Fore
SplineSet
287 726 m 1,0,-1
 303 726 l 2,1,2
 327 726 327 726 350 720.5 c 128,-1,3
 373 715 373 715 391 701.5 c 128,-1,4
 409 688 409 688 420 665 c 128,-1,5
 431 642 431 642 431 606 c 2,6,-1
 431 270 l 2,7,8
 431 235 431 235 421 210.5 c 128,-1,9
 411 186 411 186 394.5 170 c 128,-1,10
 378 154 378 154 356.5 146.5 c 128,-1,11
 335 139 335 139 311 139 c 0,12,13
 305 139 305 139 299 139.5 c 128,-1,14
 293 140 293 140 287 141 c 1,15,-1
 287 726 l 1,0,-1
160 280 m 0,16,17
 137 280 137 280 116.5 288.5 c 128,-1,18
 96 297 96 297 80 313.5 c 128,-1,19
 64 330 64 330 54.5 354.5 c 128,-1,20
 45 379 45 379 45 412 c 2,21,-1
 45 726 l 1,22,-1
 66 726 l 2,23,24
 127 726 127 726 158 693.5 c 128,-1,25
 189 661 189 661 189 588 c 2,26,-1
 189 446 l 2,27,28
 189 434 189 434 190.5 423 c 128,-1,29
 192 412 192 412 196.5 403.5 c 128,-1,30
 201 395 201 395 209.5 389.5 c 128,-1,31
 218 384 218 384 233 384 c 0,32,33
 241 384 241 384 249.5 386.5 c 128,-1,34
 258 389 258 389 265 395 c 1,35,36
 265 372 265 372 259 351.5 c 128,-1,37
 253 331 253 331 240 315 c 128,-1,38
 227 299 227 299 207 289.5 c 128,-1,39
 187 280 187 280 160 280 c 0,16,17
120 95 m 0,40,41
 120 126 120 126 131 145.5 c 128,-1,42
 142 165 142 165 158.5 176 c 128,-1,43
 175 187 175 187 193.5 190.5 c 128,-1,44
 212 194 212 194 226 194 c 0,45,46
 233 194 233 194 240.5 193.5 c 128,-1,47
 248 193 248 193 250 192 c 1,48,-1
 250 146 l 2,49,50
 250 125 250 125 260 115 c 128,-1,51
 270 105 270 105 285 105 c 0,52,53
 303 105 303 105 317 117 c 1,54,55
 320 109 320 109 320.5 102.5 c 128,-1,56
 321 96 321 96 321 88 c 0,57,58
 321 76 321 76 315.5 60.5 c 128,-1,59
 310 45 310 45 298.5 31.5 c 128,-1,60
 287 18 287 18 268.5 8.5 c 128,-1,61
 250 -1 250 -1 224 -1 c 0,62,63
 197 -1 197 -1 177.5 8 c 128,-1,64
 158 17 158 17 145.5 30.5 c 128,-1,65
 133 44 133 44 126.5 61 c 128,-1,66
 120 78 120 78 120 95 c 0,40,41
EndSplineSet
EndChar

StartChar: Z
Encoding: 90 90 64
Width: 450
Flags: W
LayerCount: 2
Fore
SplineSet
250 726 m 1,0,-1
 262 726 l 2,1,2
 284 726 284 726 307.5 721 c 128,-1,3
 331 716 331 716 350.5 702.5 c 128,-1,4
 370 689 370 689 382 665.5 c 128,-1,5
 394 642 394 642 394 606 c 2,6,-1
 394 440 l 2,7,8
 394 404 394 404 382 380.5 c 128,-1,9
 370 357 370 357 350.5 343.5 c 128,-1,10
 331 330 331 330 307.5 325 c 128,-1,11
 284 320 284 320 262 320 c 2,12,-1
 250 320 l 1,13,-1
 250 726 l 1,0,-1
405 96 m 0,14,15
 405 79 405 79 399 62 c 128,-1,16
 393 45 393 45 380.5 31 c 128,-1,17
 368 17 368 17 349.5 8.5 c 128,-1,18
 331 0 331 0 307 0 c 0,19,20
 280 0 280 0 262.5 8 c 128,-1,21
 245 16 245 16 234 27.5 c 128,-1,22
 223 39 223 39 218.5 53 c 128,-1,23
 214 67 214 67 214 79 c 0,24,25
 214 86 214 86 214.5 98 c 128,-1,26
 215 110 215 110 218 118 c 1,27,28
 225 112 225 112 231 109 c 128,-1,29
 237 106 237 106 246 106 c 0,30,31
 275 106 275 106 275 143 c 2,32,-1
 275 193 l 1,33,34
 283 195 283 195 295 195 c 0,35,36
 309 195 309 195 328 191.5 c 128,-1,37
 347 188 347 188 364 177 c 128,-1,38
 381 166 381 166 393 146.5 c 128,-1,39
 405 127 405 127 405 96 c 0,14,15
198 0 m 1,40,-1
 186 0 l 2,41,42
 163 0 163 0 140 5 c 128,-1,43
 117 10 117 10 97.5 23 c 128,-1,44
 78 36 78 36 66 59.5 c 128,-1,45
 54 83 54 83 54 119 c 2,46,-1
 54 285 l 2,47,48
 54 321 54 321 66 344.5 c 128,-1,49
 78 368 78 368 97.5 381.5 c 128,-1,50
 117 395 117 395 140 400 c 128,-1,51
 163 405 163 405 186 405 c 2,52,-1
 198 405 l 1,53,-1
 198 0 l 1,40,-1
45 630 m 0,54,55
 45 647 45 647 51 664 c 128,-1,56
 57 681 57 681 69 695 c 128,-1,57
 81 709 81 709 99.5 717.5 c 128,-1,58
 118 726 118 726 144 726 c 256,59,60
 170 726 170 726 187.5 718 c 128,-1,61
 205 710 205 710 216 698.5 c 128,-1,62
 227 687 227 687 231.5 673 c 128,-1,63
 236 659 236 659 236 647 c 0,64,65
 236 640 236 640 235.5 628 c 128,-1,66
 235 616 235 616 232 608 c 1,67,68
 225 614 225 614 219 617 c 128,-1,69
 213 620 213 620 204 620 c 0,70,71
 175 620 175 620 175 583 c 2,72,-1
 175 533 l 1,73,74
 167 531 167 531 155 531 c 0,75,76
 141 531 141 531 122 534.5 c 128,-1,77
 103 538 103 538 86 549 c 128,-1,78
 69 560 69 560 57 579 c 128,-1,79
 45 598 45 598 45 630 c 0,54,55
EndSplineSet
EndChar

StartChar: zero
Encoding: 48 48 65
Width: 453
Flags: W
LayerCount: 2
Fore
SplineSet
204 0 m 1,0,-1
 194 0 l 2,1,2
 168 0 168 0 144 5 c 128,-1,3
 120 10 120 10 101.5 23 c 128,-1,4
 83 36 83 36 71.5 59 c 128,-1,5
 60 82 60 82 60 119 c 2,6,-1
 60 606 l 2,7,8
 60 642 60 642 71 665 c 128,-1,9
 82 688 82 688 100 701.5 c 128,-1,10
 118 715 118 715 141 720.5 c 128,-1,11
 164 726 164 726 188 726 c 2,12,-1
 204 726 l 1,13,-1
 204 0 l 1,0,-1
249 728 m 1,14,-1
 259 726 l 1,15,16
 284 727 284 727 308.5 722.5 c 128,-1,17
 333 718 333 718 351.5 705 c 128,-1,18
 370 692 370 692 381.5 669 c 128,-1,19
 393 646 393 646 393 609 c 2,20,-1
 393 122 l 2,21,22
 393 86 393 86 382 62.5 c 128,-1,23
 371 39 371 39 353 25.5 c 128,-1,24
 335 12 335 12 312 7 c 128,-1,25
 289 2 289 2 265 2 c 2,26,-1
 249 2 l 1,27,-1
 249 728 l 1,14,-1
EndSplineSet
EndChar

StartChar: one
Encoding: 49 49 66
Width: 259
Flags: W
LayerCount: 2
Fore
SplineSet
60 726 m 1,0,1
 84 726 84 726 109.5 720 c 128,-1,2
 135 714 135 714 156 700.5 c 128,-1,3
 177 687 177 687 190.5 663.5 c 128,-1,4
 204 640 204 640 204 606 c 2,5,-1
 204 119 l 2,6,7
 204 82 204 82 192.5 59 c 128,-1,8
 181 36 181 36 162.5 23 c 128,-1,9
 144 10 144 10 119.5 5 c 128,-1,10
 95 0 95 0 70 0 c 2,11,-1
 60 0 l 1,12,-1
 60 726 l 1,0,1
EndSplineSet
EndChar

StartChar: two
Encoding: 50 50 67
Width: 464
Flags: W
LayerCount: 2
Fore
SplineSet
255 726 m 1,0,-1
 267 726 l 2,1,2
 289 726 289 726 312.5 721 c 128,-1,3
 336 716 336 716 355.5 702.5 c 128,-1,4
 375 689 375 689 387 665.5 c 128,-1,5
 399 642 399 642 399 606 c 2,6,-1
 399 440 l 2,7,8
 399 404 399 404 387 380.5 c 128,-1,9
 375 357 375 357 355.5 343.5 c 128,-1,10
 336 330 336 330 312.5 325 c 128,-1,11
 289 320 289 320 267 320 c 2,12,-1
 255 320 l 1,13,-1
 255 726 l 1,0,-1
390 0 m 1,14,-1
 378 0 l 2,15,16
 355 0 355 0 332 5 c 128,-1,17
 309 10 309 10 289.5 23 c 128,-1,18
 270 36 270 36 258 59.5 c 128,-1,19
 246 83 246 83 246 119 c 2,20,-1
 246 142 l 2,21,22
 246 178 246 178 258 201.5 c 128,-1,23
 270 225 270 225 289.5 238.5 c 128,-1,24
 309 252 309 252 332 257 c 128,-1,25
 355 262 355 262 378 262 c 2,26,-1
 390 262 l 1,27,-1
 390 0 l 1,14,-1
50 630 m 0,28,29
 50 647 50 647 56 664 c 128,-1,30
 62 681 62 681 75 695 c 128,-1,31
 88 709 88 709 107 717.5 c 128,-1,32
 126 726 126 726 152 726 c 0,33,34
 179 726 179 726 196 718 c 128,-1,35
 213 710 213 710 223 698.5 c 128,-1,36
 233 687 233 687 237 673 c 128,-1,37
 241 659 241 659 241 647 c 0,38,39
 241 640 241 640 240.5 628 c 128,-1,40
 240 616 240 616 237 608 c 1,41,42
 230 614 230 614 224 617 c 128,-1,43
 218 620 218 620 209 620 c 0,44,45
 180 620 180 620 180 583 c 2,46,-1
 180 533 l 1,47,48
 172 531 172 531 160 531 c 0,49,50
 146 531 146 531 127 534.5 c 128,-1,51
 108 538 108 538 91 549 c 128,-1,52
 74 560 74 560 62 579 c 128,-1,53
 50 598 50 598 50 630 c 0,28,29
206 0 m 1,54,-1
 194 0 l 2,55,56
 171 0 171 0 148 6 c 128,-1,57
 125 12 125 12 105.5 26.5 c 128,-1,58
 86 41 86 41 74 65.5 c 128,-1,59
 62 90 62 90 62 126 c 2,60,-1
 62 202 l 2,61,62
 62 238 62 238 74 261.5 c 128,-1,63
 86 285 86 285 105.5 298.5 c 128,-1,64
 125 312 125 312 148 317 c 128,-1,65
 171 322 171 322 194 322 c 2,66,-1
 206 322 l 1,67,-1
 206 0 l 1,54,-1
EndSplineSet
EndChar

StartChar: three
Encoding: 51 51 68
Width: 478
Flags: W
LayerCount: 2
Fore
SplineSet
269 726 m 1,0,-1
 281 726 l 2,1,2
 303 726 303 726 326.5 721 c 128,-1,3
 350 716 350 716 369.5 702.5 c 128,-1,4
 389 689 389 689 401 665.5 c 128,-1,5
 413 642 413 642 413 606 c 2,6,-1
 413 492 l 2,7,8
 413 456 413 456 401 432.5 c 128,-1,9
 389 409 389 409 369.5 395.5 c 128,-1,10
 350 382 350 382 326.5 377 c 128,-1,11
 303 372 303 372 281 372 c 2,12,-1
 269 372 l 1,13,-1
 269 726 l 1,0,-1
50 630 m 0,14,15
 50 647 50 647 56 664 c 128,-1,16
 62 681 62 681 75 695 c 128,-1,17
 88 709 88 709 107 717.5 c 128,-1,18
 126 726 126 726 152 726 c 0,19,20
 179 726 179 726 196 718 c 128,-1,21
 213 710 213 710 223 698.5 c 128,-1,22
 233 687 233 687 237 673 c 128,-1,23
 241 659 241 659 241 647 c 0,24,25
 241 640 241 640 240.5 628 c 128,-1,26
 240 616 240 616 237 608 c 1,27,28
 230 614 230 614 224 617 c 128,-1,29
 218 620 218 620 209 620 c 0,30,31
 180 620 180 620 180 583 c 2,32,-1
 180 533 l 1,33,34
 172 531 172 531 160 531 c 0,35,36
 146 531 146 531 127 534.5 c 128,-1,37
 108 538 108 538 91 549 c 128,-1,38
 74 560 74 560 62 579 c 128,-1,39
 50 598 50 598 50 630 c 0,14,15
269 355 m 1,40,-1
 281 355 l 2,41,42
 303 355 303 355 326.5 350 c 128,-1,43
 350 345 350 345 369.5 331.5 c 128,-1,44
 389 318 389 318 401 294.5 c 128,-1,45
 413 271 413 271 413 235 c 2,46,-1
 413 121 l 2,47,48
 413 85 413 85 401 61.5 c 128,-1,49
 389 38 389 38 369.5 24.5 c 128,-1,50
 350 11 350 11 326.5 6 c 128,-1,51
 303 1 303 1 281 1 c 2,52,-1
 269 1 l 1,53,-1
 269 355 l 1,40,-1
50 95 m 0,54,55
 50 126 50 126 62 145.5 c 128,-1,56
 74 165 74 165 91 176 c 128,-1,57
 108 187 108 187 127 190.5 c 128,-1,58
 146 194 146 194 160 194 c 0,59,60
 172 194 172 194 180 192 c 1,61,-1
 180 142 l 2,62,63
 180 105 180 105 209 105 c 0,64,65
 218 105 218 105 224 108 c 128,-1,66
 230 111 230 111 237 117 c 1,67,68
 240 109 240 109 240.5 97 c 128,-1,69
 241 85 241 85 241 78 c 0,70,71
 241 66 241 66 237 52 c 128,-1,72
 233 38 233 38 223.5 26.5 c 128,-1,73
 214 15 214 15 197 7 c 128,-1,74
 180 -1 180 -1 154 -1 c 0,75,76
 127 -1 127 -1 107.5 8 c 128,-1,77
 88 17 88 17 75.5 30.5 c 128,-1,78
 63 44 63 44 56.5 61 c 128,-1,79
 50 78 50 78 50 95 c 0,54,55
EndSplineSet
EndChar

StartChar: four
Encoding: 52 52 69
Width: 550
Flags: W
LayerCount: 2
Fore
SplineSet
194 242 m 1,0,-1
 182 242 l 2,1,2
 159 242 159 242 136 247 c 128,-1,3
 113 252 113 252 93.5 265.5 c 128,-1,4
 74 279 74 279 62 302.5 c 128,-1,5
 50 326 50 326 50 362 c 2,6,-1
 50 606 l 2,7,8
 50 642 50 642 62 665.5 c 128,-1,9
 74 689 74 689 93.5 702.5 c 128,-1,10
 113 716 113 716 136 721 c 128,-1,11
 159 726 159 726 182 726 c 2,12,-1
 194 726 l 1,13,-1
 194 242 l 1,0,-1
230 507 m 2,14,15
 230 543 230 543 242 566.5 c 128,-1,16
 254 590 254 590 273.5 603.5 c 128,-1,17
 293 617 293 617 316 622 c 128,-1,18
 339 627 339 627 362 627 c 2,19,-1
 374 627 l 1,20,-1
 374 121 l 2,21,22
 374 85 374 85 362 61.5 c 128,-1,23
 350 38 350 38 330.5 24.5 c 128,-1,24
 311 11 311 11 287.5 6 c 128,-1,25
 264 1 264 1 242 1 c 2,26,-1
 230 1 l 1,27,-1
 230 507 l 2,14,15
539 383 m 1,28,-1
 539 381 l 2,29,30
 539 312 539 312 501 276.5 c 128,-1,31
 463 241 463 241 406 239 c 1,32,-1
 406 383 l 1,33,-1
 539 383 l 1,28,-1
EndSplineSet
EndChar

StartChar: five
Encoding: 53 53 70
Width: 484
Flags: W
LayerCount: 2
Fore
SplineSet
224 322 m 1,0,-1
 212 322 l 2,1,2
 189 322 189 322 166 327 c 128,-1,3
 143 332 143 332 123.5 345.5 c 128,-1,4
 104 359 104 359 92 382.5 c 128,-1,5
 80 406 80 406 80 442 c 2,6,-1
 80 606 l 2,7,8
 80 642 80 642 92 665.5 c 128,-1,9
 104 689 104 689 123.5 702.5 c 128,-1,10
 143 716 143 716 166 721 c 128,-1,11
 189 726 189 726 212 726 c 2,12,-1
 224 726 l 1,13,-1
 224 322 l 1,0,-1
272 416 m 1,14,-1
 284 416 l 2,15,16
 306 416 306 416 329.5 411 c 128,-1,17
 353 406 353 406 372.5 392.5 c 128,-1,18
 392 379 392 379 404 355.5 c 128,-1,19
 416 332 416 332 416 296 c 2,20,-1
 416 122 l 2,21,22
 416 86 416 86 404 62.5 c 128,-1,23
 392 39 392 39 372.5 25.5 c 128,-1,24
 353 12 353 12 329.5 7 c 128,-1,25
 306 2 306 2 284 2 c 2,26,-1
 272 2 l 1,27,-1
 272 416 l 1,14,-1
55 95 m 0,28,29
 55 126 55 126 67 145.5 c 128,-1,30
 79 165 79 165 96 176 c 128,-1,31
 113 187 113 187 132 190.5 c 128,-1,32
 151 194 151 194 165 194 c 0,33,34
 177 194 177 194 185 192 c 1,35,-1
 185 142 l 2,36,37
 185 105 185 105 214 105 c 0,38,39
 223 105 223 105 229 108 c 128,-1,40
 235 111 235 111 242 117 c 1,41,42
 245 109 245 109 245.5 97 c 128,-1,43
 246 85 246 85 246 78 c 0,44,45
 246 66 246 66 242 52 c 128,-1,46
 238 38 238 38 228.5 26.5 c 128,-1,47
 219 15 219 15 202 7 c 128,-1,48
 185 -1 185 -1 159 -1 c 0,49,50
 132 -1 132 -1 112.5 8 c 128,-1,51
 93 17 93 17 80.5 30.5 c 128,-1,52
 68 44 68 44 61.5 61 c 128,-1,53
 55 78 55 78 55 95 c 0,28,29
428 725 m 1,54,55
 428 682 428 682 416 651 c 128,-1,56
 404 620 404 620 382.5 599 c 128,-1,57
 361 578 361 578 332 567 c 128,-1,58
 303 556 303 556 270 554 c 1,59,-1
 270 725 l 1,60,-1
 428 725 l 1,54,55
EndSplineSet
EndChar

StartChar: six
Encoding: 54 54 71
Width: 466
Flags: W
LayerCount: 2
Fore
SplineSet
199 -1 m 1,0,-1
 188 -1 l 2,1,2
 165 -1 165 -1 141.5 4 c 128,-1,3
 118 9 118 9 99 22.5 c 128,-1,4
 80 36 80 36 67.5 59.5 c 128,-1,5
 55 83 55 83 55 120 c 2,6,-1
 55 606 l 2,7,8
 55 642 55 642 67 665.5 c 128,-1,9
 79 689 79 689 98.5 702.5 c 128,-1,10
 118 716 118 716 141 721 c 128,-1,11
 164 726 164 726 187 726 c 2,12,-1
 199 726 l 1,13,-1
 199 -1 l 1,0,-1
248 386 m 1,14,-1
 260 386 l 2,15,16
 282 386 282 386 305.5 381 c 128,-1,17
 329 376 329 376 348.5 362.5 c 128,-1,18
 368 349 368 349 380 325.5 c 128,-1,19
 392 302 392 302 392 266 c 2,20,-1
 392 122 l 2,21,22
 392 86 392 86 380 62.5 c 128,-1,23
 368 39 368 39 348.5 25.5 c 128,-1,24
 329 12 329 12 305.5 7 c 128,-1,25
 282 2 282 2 260 2 c 2,26,-1
 248 2 l 1,27,-1
 248 386 l 1,14,-1
411 627 m 0,28,29
 411 595 411 595 399 576 c 128,-1,30
 387 557 387 557 370 546 c 128,-1,31
 353 535 353 535 334 531.5 c 128,-1,32
 315 528 315 528 301 528 c 0,33,34
 289 528 289 528 281 530 c 1,35,-1
 281 580 l 2,36,37
 281 617 281 617 252 617 c 0,38,39
 243 617 243 617 237 614 c 128,-1,40
 231 611 231 611 224 605 c 1,41,42
 221 613 221 613 220.5 625 c 128,-1,43
 220 637 220 637 220 644 c 0,44,45
 220 656 220 656 225 670.5 c 128,-1,46
 230 685 230 685 241 697 c 128,-1,47
 252 709 252 709 269.5 717.5 c 128,-1,48
 287 726 287 726 313 726 c 0,49,50
 340 726 340 726 358.5 716.5 c 128,-1,51
 377 707 377 707 389 693 c 128,-1,52
 401 679 401 679 406 661 c 128,-1,53
 411 643 411 643 411 627 c 0,28,29
EndSplineSet
EndChar

StartChar: seven
Encoding: 55 55 72
Width: 446
Flags: W
LayerCount: 2
Fore
SplineSet
247 726 m 1,0,-1
 259 726 l 2,1,2
 281 726 281 726 304.5 721 c 128,-1,3
 328 716 328 716 347 702.5 c 128,-1,4
 366 689 366 689 378.5 665.5 c 128,-1,5
 391 642 391 642 391 606 c 2,6,-1
 391 120 l 2,7,8
 391 83 391 83 378.5 59.5 c 128,-1,9
 366 36 366 36 347 22.5 c 128,-1,10
 328 9 328 9 304 4 c 128,-1,11
 280 -1 280 -1 258 -1 c 2,12,-1
 247 -1 l 1,13,-1
 247 726 l 1,0,-1
35 627 m 0,14,15
 35 643 35 643 40 661 c 128,-1,16
 45 679 45 679 56.5 693 c 128,-1,17
 68 707 68 707 86.5 716.5 c 128,-1,18
 105 726 105 726 131 726 c 0,19,20
 158 726 158 726 176 718 c 128,-1,21
 194 710 194 710 205 697.5 c 128,-1,22
 216 685 216 685 221 670.5 c 128,-1,23
 226 656 226 656 226 644 c 0,24,25
 226 637 226 637 225.5 625 c 128,-1,26
 225 613 225 613 222 605 c 1,27,28
 215 611 215 611 209 614 c 128,-1,29
 203 617 203 617 194 617 c 0,30,31
 177 617 177 617 171 606.5 c 128,-1,32
 165 596 165 596 165 576 c 2,33,-1
 165 530 l 1,34,35
 157 528 157 528 144 528 c 0,36,37
 130 528 130 528 111 531.5 c 128,-1,38
 92 535 92 535 75 546 c 128,-1,39
 58 557 58 557 46.5 576 c 128,-1,40
 35 595 35 595 35 627 c 0,14,15
222 413 m 1,41,-1
 222 269 l 1,42,43
 165 271 165 271 127 306.5 c 128,-1,44
 89 342 89 342 89 413 c 1,45,-1
 222 413 l 1,41,-1
EndSplineSet
EndChar

StartChar: eight
Encoding: 56 56 73
Width: 450
Flags: W
LayerCount: 2
Fore
SplineSet
251 366 m 1,0,-1
 251 573 l 2,1,2
 251 596 251 596 248.5 613.5 c 128,-1,3
 246 631 246 631 232 631 c 0,4,5
 223 631 223 631 220 628.5 c 128,-1,6
 217 626 217 626 210 620 c 1,7,-1
 210 631 l 2,8,9
 210 672 210 672 230 699 c 128,-1,10
 250 726 250 726 297 726 c 0,11,12
 343 726 343 726 367 697 c 128,-1,13
 391 668 391 668 391 631 c 2,14,-1
 391 482 l 2,15,16
 391 446 391 446 376 423.5 c 128,-1,17
 361 401 361 401 339.5 388 c 128,-1,18
 318 375 318 375 293.5 370.5 c 128,-1,19
 269 366 269 366 251 366 c 1,0,-1
198 360 m 1,20,-1
 198 153 l 2,21,22
 198 130 198 130 200.5 112.5 c 128,-1,23
 203 95 203 95 217 95 c 0,24,25
 226 95 226 95 229 97.5 c 128,-1,26
 232 100 232 100 239 106 c 1,27,-1
 239 95 l 2,28,29
 239 54 239 54 219 27 c 128,-1,30
 199 0 199 0 152 0 c 0,31,32
 106 0 106 0 82 29 c 128,-1,33
 58 58 58 58 58 95 c 2,34,-1
 58 244 l 2,35,36
 58 280 58 280 73 302.5 c 128,-1,37
 88 325 88 325 109.5 338 c 128,-1,38
 131 351 131 351 155.5 355.5 c 128,-1,39
 180 360 180 360 198 360 c 1,20,-1
199 370 m 1,40,-1
 188 370 l 2,41,42
 165 370 165 370 141.5 375 c 128,-1,43
 118 380 118 380 99 393.5 c 128,-1,44
 80 407 80 407 67.5 430.5 c 128,-1,45
 55 454 55 454 55 491 c 2,46,-1
 55 606 l 2,47,48
 55 642 55 642 67 665.5 c 128,-1,49
 79 689 79 689 98.5 702.5 c 128,-1,50
 118 716 118 716 141 721 c 128,-1,51
 164 726 164 726 187 726 c 2,52,-1
 199 726 l 1,53,-1
 199 370 l 1,40,-1
251 355 m 1,54,-1
 262 355 l 2,55,56
 284 355 284 355 308 350 c 128,-1,57
 332 345 332 345 351 331.5 c 128,-1,58
 370 318 370 318 382.5 294.5 c 128,-1,59
 395 271 395 271 395 234 c 2,60,-1
 395 119 l 2,61,62
 395 83 395 83 383 59.5 c 128,-1,63
 371 36 371 36 351.5 22.5 c 128,-1,64
 332 9 332 9 308.5 4 c 128,-1,65
 285 -1 285 -1 263 -1 c 2,66,-1
 251 -1 l 1,67,-1
 251 355 l 1,54,-1
EndSplineSet
EndChar

StartChar: nine
Encoding: 57 57 74
Width: 455
Flags: W
LayerCount: 2
Fore
SplineSet
206 366 m 1,0,1
 188 366 188 366 163.5 369 c 128,-1,2
 139 372 139 372 117.5 383 c 128,-1,3
 96 394 96 394 81 415 c 128,-1,4
 66 436 66 436 66 472 c 2,5,-1
 66 628 l 2,6,7
 66 646 66 646 72.5 664 c 128,-1,8
 79 682 79 682 91 695.5 c 128,-1,9
 103 709 103 709 121 717.5 c 128,-1,10
 139 726 139 726 162 726 c 0,11,12
 210 726 210 726 228.5 699.5 c 128,-1,13
 247 673 247 673 247 631 c 2,14,-1
 247 620 l 1,15,16
 240 626 240 626 237 628.5 c 128,-1,17
 234 631 234 631 225 631 c 0,18,19
 211 631 211 631 208.5 613.5 c 128,-1,20
 206 596 206 596 206 573 c 2,21,-1
 206 366 l 1,0,1
50 95 m 0,22,23
 50 126 50 126 62 145.5 c 128,-1,24
 74 165 74 165 91 176 c 128,-1,25
 108 187 108 187 127 190.5 c 128,-1,26
 146 194 146 194 160 194 c 0,27,28
 172 194 172 194 180 192 c 1,29,-1
 180 142 l 2,30,31
 180 105 180 105 209 105 c 0,32,33
 218 105 218 105 224 108 c 128,-1,34
 230 111 230 111 237 117 c 1,35,36
 240 109 240 109 240.5 97 c 128,-1,37
 241 85 241 85 241 78 c 0,38,39
 241 66 241 66 237 52 c 128,-1,40
 233 38 233 38 223.5 26.5 c 128,-1,41
 214 15 214 15 197 7 c 128,-1,42
 180 -1 180 -1 154 -1 c 0,43,44
 127 -1 127 -1 107.5 8 c 128,-1,45
 88 17 88 17 75.5 30.5 c 128,-1,46
 63 44 63 44 56.5 61 c 128,-1,47
 50 78 50 78 50 95 c 0,22,23
256 726 m 1,48,-1
 268 726 l 2,49,50
 290 726 290 726 313.5 721 c 128,-1,51
 337 716 337 716 356.5 702.5 c 128,-1,52
 376 689 376 689 388 665.5 c 128,-1,53
 400 642 400 642 400 606 c 2,54,-1
 400 120 l 2,55,56
 400 83 400 83 387.5 59.5 c 128,-1,57
 375 36 375 36 356 22.5 c 128,-1,58
 337 9 337 9 313 4 c 128,-1,59
 289 -1 289 -1 267 -1 c 2,60,-1
 256 -1 l 1,61,-1
 256 726 l 1,48,-1
EndSplineSet
EndChar

StartChar: uni00AD
Encoding: 173 173 75
Width: 619
Flags: W
LayerCount: 2
Fore
SplineSet
574 413 m 1,0,1
 574 390 574 390 568.5 367.5 c 128,-1,2
 563 345 563 345 550 327 c 128,-1,3
 537 309 537 309 515 298 c 128,-1,4
 493 287 493 287 461 287 c 2,5,-1
 45 287 l 1,6,7
 45 309 45 309 52.5 331.5 c 128,-1,8
 60 354 60 354 76.5 372 c 128,-1,9
 93 390 93 390 120.5 401.5 c 128,-1,10
 148 413 148 413 188 413 c 2,11,-1
 574 413 l 1,0,1
EndSplineSet
EndChar

StartChar: equal
Encoding: 61 61 76
Width: 506
Flags: W
LayerCount: 2
Fore
SplineSet
456 483 m 1,0,1
 456 460 456 460 447.5 437.5 c 128,-1,2
 439 415 439 415 424 397 c 128,-1,3
 409 379 409 379 388.5 368 c 128,-1,4
 368 357 368 357 343 357 c 2,5,-1
 50 357 l 1,6,7
 50 379 50 379 58.5 401.5 c 128,-1,8
 67 424 67 424 85 442 c 128,-1,9
 103 460 103 460 130 471.5 c 128,-1,10
 157 483 157 483 193 483 c 2,11,-1
 456 483 l 1,0,1
456 286 m 1,12,13
 456 263 456 263 447.5 240.5 c 128,-1,14
 439 218 439 218 424 200 c 128,-1,15
 409 182 409 182 388.5 171 c 128,-1,16
 368 160 368 160 343 160 c 2,17,-1
 50 160 l 1,18,19
 50 182 50 182 58.5 204.5 c 128,-1,20
 67 227 67 227 85 245 c 128,-1,21
 103 263 103 263 130 274.5 c 128,-1,22
 157 286 157 286 193 286 c 2,23,-1
 456 286 l 1,12,13
EndSplineSet
EndChar

StartChar: ampersand
Encoding: 38 38 77
Width: 572
Flags: W
LayerCount: 2
Fore
SplineSet
408 -1 m 1,0,-1
 396 -1 l 2,1,2
 373 -1 373 -1 350 4 c 128,-1,3
 327 9 327 9 307.5 22.5 c 128,-1,4
 288 36 288 36 276 59.5 c 128,-1,5
 264 83 264 83 264 119 c 2,6,-1
 264 407 l 1,7,-1
 276 407 l 2,8,9
 298 407 298 407 321.5 402 c 128,-1,10
 345 397 345 397 364.5 383.5 c 128,-1,11
 384 370 384 370 396 346.5 c 128,-1,12
 408 323 408 323 408 287 c 2,13,-1
 408 -1 l 1,0,-1
204 155 m 2,14,15
 204 129 204 129 206.5 111 c 128,-1,16
 209 93 209 93 223 93 c 0,17,18
 232 93 232 93 235 95.5 c 128,-1,19
 238 98 238 98 245 104 c 1,20,-1
 245 93 l 2,21,22
 245 52 245 52 224 25 c 128,-1,23
 203 -2 203 -2 155 -2 c 0,24,25
 109 -2 109 -2 84.5 24.5 c 128,-1,26
 60 51 60 51 60 96 c 2,27,-1
 60 242 l 2,28,29
 60 276 60 276 70.5 298.5 c 128,-1,30
 81 321 81 321 98 334.5 c 128,-1,31
 115 348 115 348 136 354 c 128,-1,32
 157 360 157 360 177 360 c 0,33,34
 184 360 184 360 190.5 359.5 c 128,-1,35
 197 359 197 359 204 358 c 1,36,-1
 204 155 l 2,14,15
204 372 m 1,37,-1
 192 372 l 2,38,39
 169 372 169 372 146 377 c 128,-1,40
 123 382 123 382 103.5 395.5 c 128,-1,41
 84 409 84 409 72 432.5 c 128,-1,42
 60 456 60 456 60 492 c 2,43,-1
 60 606 l 2,44,45
 60 642 60 642 72 665.5 c 128,-1,46
 84 689 84 689 103.5 702.5 c 128,-1,47
 123 716 123 716 146 721 c 128,-1,48
 169 726 169 726 192 726 c 2,49,-1
 204 726 l 1,50,-1
 204 372 l 1,37,-1
264 424 m 1,51,-1
 264 573 l 2,52,53
 264 596 264 596 261.5 613.5 c 128,-1,54
 259 631 259 631 245 631 c 0,55,56
 236 631 236 631 233 628.5 c 128,-1,57
 230 626 230 626 223 620 c 1,58,59
 222 625 222 625 222 628 c 2,60,-1
 222 637 l 2,61,62
 222 674 222 674 242.5 700 c 128,-1,63
 263 726 263 726 308 726 c 0,64,65
 354 726 354 726 379 697 c 128,-1,66
 404 668 404 668 404 631 c 2,67,-1
 404 532 l 2,68,69
 404 501 404 501 392.5 480 c 128,-1,70
 381 459 381 459 363.5 446 c 128,-1,71
 346 433 346 433 325.5 427.5 c 128,-1,72
 305 422 305 422 286 422 c 0,73,74
 280 422 280 422 274.5 422.5 c 128,-1,75
 269 423 269 423 264 424 c 1,51,-1
541 410 m 1,76,77
 542 405 542 405 542 401 c 2,78,-1
 542 393 l 2,79,80
 542 344 542 344 515 312.5 c 128,-1,81
 488 281 488 281 439 281 c 2,82,-1
 428 281 l 1,83,84
 428 286 428 286 428.5 290.5 c 128,-1,85
 429 295 429 295 429 300 c 0,86,87
 429 354 429 354 411 378 c 128,-1,88
 393 402 393 402 364 410 c 1,89,-1
 541 410 l 1,76,77
EndSplineSet
EndChar

StartChar: question
Encoding: 63 63 78
Width: 423
Flags: W
LayerCount: 2
Fore
SplineSet
174 473 m 1,0,1
 154 473 154 473 130.5 479 c 128,-1,2
 107 485 107 485 87 498.5 c 128,-1,3
 67 512 67 512 53.5 535 c 128,-1,4
 40 558 40 558 40 593 c 2,5,-1
 40 611 l 2,6,7
 40 642 40 642 49 664 c 128,-1,8
 58 686 58 686 73.5 700 c 128,-1,9
 89 714 89 714 108.5 720 c 128,-1,10
 128 726 128 726 149 726 c 0,11,12
 197 726 197 726 219 698 c 128,-1,13
 241 670 241 670 241 632 c 2,14,-1
 241 623 l 2,15,16
 241 619 241 619 240 614 c 1,17,18
 228 629 228 629 210 629 c 1,19,20
 196 628 196 628 189 621.5 c 128,-1,21
 182 615 182 615 178.5 606.5 c 128,-1,22
 175 598 175 598 174.5 588 c 128,-1,23
 174 578 174 578 174 570 c 2,24,-1
 174 473 l 1,0,1
260 726 m 1,25,-1
 274 726 l 2,26,27
 328 726 328 726 360.5 697.5 c 128,-1,28
 393 669 393 669 393 603 c 2,29,-1
 393 566 l 2,30,31
 393 511 393 511 361.5 486.5 c 128,-1,32
 330 462 330 462 279 462 c 0,33,34
 274 462 274 462 269.5 462.5 c 128,-1,35
 265 463 265 463 260 463 c 1,36,-1
 260 726 l 1,25,-1
255 230 m 1,37,-1
 242 230 l 2,38,39
 188 230 188 230 154.5 258 c 128,-1,40
 121 286 121 286 121 343 c 0,41,42
 121 374 121 374 133 395 c 128,-1,43
 145 416 145 416 163 428 c 128,-1,44
 181 440 181 440 202.5 445 c 128,-1,45
 224 450 224 450 243 450 c 2,46,-1
 255 450 l 1,47,-1
 255 230 l 1,37,-1
143 67 m 0,48,49
 143 98 143 98 164 119 c 128,-1,50
 185 140 185 140 214 140 c 0,51,52
 245 140 245 140 266 119 c 128,-1,53
 287 98 287 98 287 67 c 0,54,55
 287 38 287 38 266 17 c 128,-1,56
 245 -4 245 -4 214 -4 c 0,57,58
 185 -4 185 -4 164 17 c 128,-1,59
 143 38 143 38 143 67 c 0,48,49
EndSplineSet
EndChar

StartChar: bar
Encoding: 124 124 79
Width: 344
Flags: W
LayerCount: 2
Fore
SplineSet
100 726 m 1,0,1
 178 726 178 726 211 695.5 c 128,-1,2
 244 665 244 665 244 596 c 2,3,-1
 244 -211 l 2,4,5
 244 -248 244 -248 232.5 -271 c 128,-1,6
 221 -294 221 -294 202.5 -307 c 128,-1,7
 184 -320 184 -320 159.5 -325 c 128,-1,8
 135 -330 135 -330 110 -330 c 2,9,-1
 100 -330 l 1,10,-1
 100 726 l 1,0,1
EndSplineSet
EndChar

StartChar: plus
Encoding: 43 43 80
Width: 495
Flags: W
LayerCount: 2
Fore
SplineSet
305 87 m 1,0,1
 248 87 248 87 220 110.5 c 128,-1,2
 192 134 192 134 192 189 c 2,3,-1
 192 245 l 1,4,-1
 45 245 l 1,5,6
 45 302 45 302 68.5 330 c 128,-1,7
 92 358 92 358 147 358 c 2,8,-1
 192 358 l 1,9,-1
 192 512 l 1,10,11
 249 512 249 512 277 490 c 128,-1,12
 305 468 305 468 305 420 c 2,13,-1
 305 358 l 1,14,-1
 450 358 l 1,15,16
 450 301 450 301 428 273 c 128,-1,17
 406 245 406 245 358 245 c 2,18,-1
 305 245 l 1,19,-1
 305 87 l 1,0,1
EndSplineSet
EndChar

StartChar: asterisk
Encoding: 42 42 81
Width: 511
Flags: W
LayerCount: 2
Fore
SplineSet
228 528 m 1,0,1
 221 521 221 521 215 516 c 1,2,3
 225 507 225 507 234 498 c 1,4,-1
 179 446 l 2,5,6
 161 429 161 429 144.5 422 c 128,-1,7
 128 415 128 415 109 415 c 0,8,9
 83 415 83 415 58 428 c 128,-1,10
 33 441 33 441 10 464 c 1,11,-1
 57 510 l 1,12,-1
 10 555 l 1,13,14
 30 576 30 576 55 591 c 128,-1,15
 80 606 80 606 109 606 c 0,16,17
 126 606 126 606 144.5 598.5 c 128,-1,18
 163 591 163 591 181 574 c 2,19,-1
 228 528 l 1,0,1
210 264 m 1,20,21
 187 287 187 287 174 312 c 128,-1,22
 161 337 161 337 161 363 c 0,23,24
 161 381 161 381 168 399 c 128,-1,25
 175 417 175 417 191 434 c 2,26,-1
 244 489 l 1,27,28
 250 483 250 483 255 477 c 1,29,30
 261 483 261 483 267 489 c 1,31,-1
 319 434 l 2,32,33
 336 416 336 416 343 399.5 c 128,-1,34
 350 383 350 383 350 364 c 0,35,36
 350 338 350 338 337 313 c 128,-1,37
 324 288 324 288 301 265 c 1,38,-1
 255 311 l 1,39,-1
 210 264 l 1,20,21
329 573 m 2,40,41
 346 590 346 590 364.5 597.5 c 128,-1,42
 383 605 383 605 401 605 c 0,43,44
 429 605 429 605 454.5 590 c 128,-1,45
 480 575 480 575 500 555 c 1,46,-1
 453 510 l 1,47,-1
 501 465 l 1,48,49
 478 442 478 442 453 429 c 128,-1,50
 428 416 428 416 402 416 c 0,51,52
 383 416 383 416 365 423 c 128,-1,53
 347 430 347 430 331 446 c 2,54,-1
 276 499 l 1,55,56
 285 508 285 508 295 516 c 1,57,58
 289 521 289 521 283 528 c 1,59,-1
 329 573 l 2,40,41
273 537 m 1,60,61
 263 547 263 547 254 557 c 1,62,63
 247 548 247 548 237 538 c 1,64,-1
 192 584 l 2,65,66
 175 601 175 601 167.5 619.5 c 128,-1,67
 160 638 160 638 160 656 c 0,68,69
 160 684 160 684 175 709.5 c 128,-1,70
 190 735 190 735 210 755 c 1,71,-1
 255 707 l 1,72,-1
 300 755 l 1,73,74
 321 735 321 735 336 710 c 128,-1,75
 351 685 351 685 351 656 c 0,76,77
 351 639 351 639 343.5 620.5 c 128,-1,78
 336 602 336 602 319 584 c 2,79,-1
 273 537 l 1,60,61
EndSplineSet
EndChar

StartChar: logicalnot
Encoding: 172 172 82
Width: 634
Flags: W
LayerCount: 2
Fore
SplineSet
573 402 m 1,0,-1
 573 138 l 1,1,2
 550 138 550 138 527.5 143.5 c 128,-1,3
 505 149 505 149 487 162 c 128,-1,4
 469 175 469 175 458 197 c 128,-1,5
 447 219 447 219 447 251 c 2,6,-1
 447 280 l 2,7,8
 447 289 447 289 447 297 c 1,9,-1
 45 297 l 1,10,11
 45 319 45 319 52.5 341.5 c 128,-1,12
 60 364 60 364 76.5 382 c 128,-1,13
 93 400 93 400 120.5 411.5 c 128,-1,14
 148 423 148 423 188 423 c 2,15,-1
 565 423 l 1,16,-1
 573 423 l 1,17,-1
 574 423 l 1,18,19
 574 412 574 412 573 402 c 1,0,-1
EndSplineSet
EndChar

StartChar: less
Encoding: 60 60 83
Width: 417
Flags: W
LayerCount: 2
Fore
SplineSet
184 425 m 2,0,1
 240 484 240 484 289 484 c 0,2,3
 332 484 332 484 375 435 c 1,4,-1
 205 270 l 1,5,-1
 377 103 l 1,6,7
 359 81 359 81 337.5 68 c 128,-1,8
 316 55 316 55 290 55 c 0,9,10
 267 55 267 55 241 68.5 c 128,-1,11
 215 82 215 82 186 113 c 2,12,-1
 35 271 l 1,13,-1
 184 425 l 2,0,1
EndSplineSet
EndChar

StartChar: greater
Encoding: 62 62 84
Width: 417
Flags: W
LayerCount: 2
Fore
SplineSet
382 271 m 1,0,-1
 231 113 l 2,1,2
 202 82 202 82 175 68.5 c 128,-1,3
 148 55 148 55 125 55 c 0,4,5
 100 55 100 55 79 68 c 128,-1,6
 58 81 58 81 40 103 c 1,7,-1
 212 270 l 1,8,-1
 42 435 l 1,9,10
 85 484 85 484 128 484 c 0,11,12
 176 484 176 484 233 425 c 2,13,-1
 382 271 l 1,0,-1
EndSplineSet
EndChar

StartChar: questiondown
Encoding: 191 191 85
Width: 423
Flags: W
LayerCount: 2
Fore
SplineSet
249 20 m 1,0,1
 269 20 269 20 292.5 14 c 128,-1,2
 316 8 316 8 336 -5.5 c 128,-1,3
 356 -19 356 -19 369.5 -42.5 c 128,-1,4
 383 -66 383 -66 383 -100 c 2,5,-1
 383 -118 l 2,6,7
 383 -149 383 -149 373.5 -171.5 c 128,-1,8
 364 -194 364 -194 349 -208.5 c 128,-1,9
 334 -223 334 -223 314.5 -230 c 128,-1,10
 295 -237 295 -237 275 -237 c 0,11,12
 250 -237 250 -237 232.5 -229.5 c 128,-1,13
 215 -222 215 -222 203.5 -209 c 128,-1,14
 192 -196 192 -196 187 -180 c 128,-1,15
 182 -164 182 -164 182 -147 c 2,16,-1
 182 -135 l 2,17,18
 182 -126 182 -126 183 -121 c 1,19,20
 193 -136 193 -136 215 -136 c 0,21,22
 227 -136 227 -136 233.5 -131 c 128,-1,23
 240 -126 240 -126 243.5 -118 c 128,-1,24
 247 -110 247 -110 248 -101 c 128,-1,25
 249 -92 249 -92 249 -84 c 2,26,-1
 249 20 l 1,0,1
163 -233 m 1,27,-1
 149 -233 l 2,28,29
 95 -233 95 -233 62.5 -204.5 c 128,-1,30
 30 -176 30 -176 30 -110 c 2,31,-1
 30 -79 l 2,32,33
 30 -52 30 -52 40 -31 c 128,-1,34
 50 -10 50 -10 66 3.5 c 128,-1,35
 82 17 82 17 103 24 c 128,-1,36
 124 31 124 31 147 31 c 2,37,-1
 163 31 l 1,38,-1
 163 -233 l 1,27,-1
168 263 m 1,39,-1
 181 263 l 2,40,41
 235 263 235 263 268.5 235 c 128,-1,42
 302 207 302 207 302 150 c 0,43,44
 302 118 302 118 290 97.5 c 128,-1,45
 278 77 278 77 260 65 c 128,-1,46
 242 53 242 53 220.5 48 c 128,-1,47
 199 43 199 43 180 43 c 2,48,-1
 168 43 l 1,49,-1
 168 263 l 1,39,-1
280 426 m 0,50,51
 280 395 280 395 259 374 c 128,-1,52
 238 353 238 353 209 353 c 0,53,54
 178 353 178 353 157 374 c 128,-1,55
 136 395 136 395 136 426 c 0,56,57
 136 455 136 455 157 476 c 128,-1,58
 178 497 178 497 209 497 c 0,59,60
 238 497 238 497 259 476 c 128,-1,61
 280 455 280 455 280 426 c 0,50,51
EndSplineSet
EndChar

StartChar: exclamdown
Encoding: 161 161 86
Width: 254
Flags: W
LayerCount: 2
Fore
SplineSet
60 270 m 1,0,-1
 69 270 l 2,1,2
 91 270 91 270 113.5 263 c 128,-1,3
 136 256 136 256 154 242 c 128,-1,4
 172 228 172 228 183 206 c 128,-1,5
 194 184 194 184 194 154 c 2,6,-1
 194 -249 l 1,7,8
 167 -249 167 -249 143 -240.5 c 128,-1,9
 119 -232 119 -232 100.5 -216.5 c 128,-1,10
 82 -201 82 -201 71 -179 c 128,-1,11
 60 -157 60 -157 60 -129 c 2,12,-1
 60 270 l 1,0,-1
194 437 m 0,13,14
 194 406 194 406 173 385 c 128,-1,15
 152 364 152 364 123 364 c 0,16,17
 92 364 92 364 71 385 c 128,-1,18
 50 406 50 406 50 437 c 0,19,20
 50 466 50 466 71 487 c 128,-1,21
 92 508 92 508 123 508 c 0,22,23
 152 508 152 508 173 487 c 128,-1,24
 194 466 194 466 194 437 c 0,13,14
EndSplineSet
EndChar

StartChar: bracketleft
Encoding: 91 91 87
Width: 355
Flags: W
LayerCount: 2
Fore
SplineSet
60 762 m 1,0,-1
 345 762 l 1,1,2
 345 739 345 739 339.5 716.5 c 128,-1,3
 334 694 334 694 321 676 c 128,-1,4
 308 658 308 658 286 647 c 128,-1,5
 264 636 264 636 232 636 c 2,6,-1
 186 636 l 1,7,-1
 186 -88 l 1,8,-1
 232 -88 l 2,9,10
 264 -88 264 -88 286 -99.5 c 128,-1,11
 308 -111 308 -111 321 -129 c 128,-1,12
 334 -147 334 -147 339.5 -169.5 c 128,-1,13
 345 -192 345 -192 345 -214 c 1,14,-1
 60 -214 l 1,15,-1
 60 762 l 1,0,-1
EndSplineSet
EndChar

StartChar: bracketright
Encoding: 93 93 88
Width: 355
Flags: W
LayerCount: 2
Fore
SplineSet
295 763 m 1,0,-1
 295 -214 l 1,1,-1
 10 -214 l 1,2,3
 10 -192 10 -192 15.5 -169.5 c 128,-1,4
 21 -147 21 -147 34 -129 c 128,-1,5
 47 -111 47 -111 69 -99.5 c 128,-1,6
 91 -88 91 -88 123 -88 c 2,7,-1
 170 -88 l 1,8,9
 169 -83 169 -83 169 -71 c 2,10,-1
 169 636 l 1,11,-1
 123 636 l 2,12,13
 91 636 91 636 69 647 c 128,-1,14
 47 658 47 658 34 676 c 128,-1,15
 21 694 21 694 15.5 716.5 c 128,-1,16
 10 739 10 739 10 762 c 1,17,-1
 277 762 l 2,18,19
 282 762 282 762 286 762.5 c 128,-1,20
 290 763 290 763 295 763 c 1,0,-1
EndSplineSet
EndChar

StartChar: underscore
Encoding: 95 95 89
Width: 649
Flags: W
LayerCount: 2
Fore
SplineSet
589 -93 m 1,0,1
 589 -116 589 -116 583.5 -138.5 c 128,-1,2
 578 -161 578 -161 565 -179 c 128,-1,3
 552 -197 552 -197 530 -208 c 128,-1,4
 508 -219 508 -219 476 -219 c 2,5,-1
 60 -219 l 1,6,7
 60 -197 60 -197 67.5 -174.5 c 128,-1,8
 75 -152 75 -152 91.5 -134 c 128,-1,9
 108 -116 108 -116 135.5 -104.5 c 128,-1,10
 163 -93 163 -93 203 -93 c 2,11,-1
 589 -93 l 1,0,1
EndSplineSet
EndChar

StartChar: quotedbl
Encoding: 34 34 90
Width: 404
Flags: W
LayerCount: 2
Fore
SplineSet
176 615 m 2,0,1
 176 564 176 564 150.5 533 c 128,-1,2
 125 502 125 502 65 502 c 1,3,-1
 65 648 l 2,4,5
 65 680 65 680 74 702 c 128,-1,6
 83 724 83 724 98 737 c 128,-1,7
 113 750 113 750 133 755.5 c 128,-1,8
 153 761 153 761 176 761 c 1,9,-1
 176 615 l 2,0,1
339 615 m 2,10,11
 339 564 339 564 313.5 533 c 128,-1,12
 288 502 288 502 228 502 c 1,13,-1
 228 648 l 2,14,15
 228 680 228 680 237 702 c 128,-1,16
 246 724 246 724 261 737 c 128,-1,17
 276 750 276 750 296 755.5 c 128,-1,18
 316 761 316 761 339 761 c 1,19,-1
 339 615 l 2,10,11
EndSplineSet
EndChar

StartChar: cent
Encoding: 162 162 91
Width: 456
Flags: W
LayerCount: 2
Fore
SplineSet
189 0 m 1,0,-1
 180 0 l 2,1,2
 157 0 157 0 134.5 5.5 c 128,-1,3
 112 11 112 11 94.5 24.5 c 128,-1,4
 77 38 77 38 66 60 c 128,-1,5
 55 82 55 82 55 114 c 2,6,-1
 55 390 l 2,7,8
 55 426 55 426 67 449 c 128,-1,9
 79 472 79 472 98 485 c 128,-1,10
 117 498 117 498 141 503 c 128,-1,11
 165 508 165 508 189 508 c 1,12,-1
 189 0 l 1,0,-1
410 409 m 0,13,14
 410 394 410 394 404.5 378 c 128,-1,15
 399 362 399 362 387 349.5 c 128,-1,16
 375 337 375 337 356.5 329 c 128,-1,17
 338 321 338 321 312 321 c 0,18,19
 304 321 304 321 298 321.5 c 128,-1,20
 292 322 292 322 282 324 c 1,21,-1
 282 358 l 2,22,23
 282 378 282 378 274 395 c 128,-1,24
 266 412 266 412 243 412 c 0,25,26
 232 412 232 412 224.5 408.5 c 128,-1,27
 217 405 217 405 210 400 c 1,28,29
 203 414 203 414 203 432 c 0,30,31
 203 462 203 462 229 485 c 128,-1,32
 255 508 255 508 301 508 c 0,33,34
 320 508 320 508 339.5 502 c 128,-1,35
 359 496 359 496 374.5 483.5 c 128,-1,36
 390 471 390 471 400 452.5 c 128,-1,37
 410 434 410 434 410 409 c 0,13,14
410 97 m 0,38,39
 410 73 410 73 400 54.5 c 128,-1,40
 390 36 390 36 374.5 24 c 128,-1,41
 359 12 359 12 340.5 6 c 128,-1,42
 322 0 322 0 306 0 c 0,43,44
 255 0 255 0 229 23 c 128,-1,45
 203 46 203 46 203 76 c 0,46,47
 203 94 203 94 210 108 c 1,48,49
 223 96 223 96 240 96 c 1,50,51
 265 98 265 98 273.5 113 c 128,-1,52
 282 128 282 128 282 150 c 2,53,-1
 282 184 l 1,54,55
 297 188 297 188 313 188 c 0,56,57
 339 188 339 188 357.5 180 c 128,-1,58
 376 172 376 172 387.5 159 c 128,-1,59
 399 146 399 146 404.5 129.5 c 128,-1,60
 410 113 410 113 410 97 c 0,38,39
195 -15 m 1,61,62
 202 -18 202 -18 219 -20 c 128,-1,63
 236 -22 236 -22 255 -22 c 0,64,65
 272 -22 272 -22 285.5 -20.5 c 128,-1,66
 299 -19 299 -19 304 -16 c 1,67,-1
 304 -142 l 1,68,69
 300 -142 300 -142 297 -142.5 c 128,-1,70
 294 -143 294 -143 291 -143 c 0,71,72
 267 -143 267 -143 249 -135 c 128,-1,73
 231 -127 231 -127 219 -114.5 c 128,-1,74
 207 -102 207 -102 201 -87 c 128,-1,75
 195 -72 195 -72 195 -58 c 2,76,-1
 195 -15 l 1,61,62
195 567 m 2,77,78
 195 581 195 581 201 596 c 128,-1,79
 207 611 207 611 219 623.5 c 128,-1,80
 231 636 231 636 249 644 c 128,-1,81
 267 652 267 652 291 652 c 0,82,83
 294 652 294 652 297 651.5 c 128,-1,84
 300 651 300 651 304 651 c 1,85,-1
 304 525 l 1,86,87
 299 528 299 528 285.5 529.5 c 128,-1,88
 272 531 272 531 255 531 c 0,89,90
 236 531 236 531 219 529 c 128,-1,91
 202 527 202 527 195 524 c 1,92,-1
 195 567 l 2,77,78
EndSplineSet
EndChar

StartChar: sterling
Encoding: 163 163 92
Width: 494
Flags: W
LayerCount: 2
Fore
SplineSet
204 278 m 1,0,-1
 192 278 l 2,1,2
 169 278 169 278 146 283 c 128,-1,3
 123 288 123 288 103.5 301.5 c 128,-1,4
 84 315 84 315 72 338.5 c 128,-1,5
 60 362 60 362 60 398 c 2,6,-1
 60 606 l 2,7,8
 60 642 60 642 72 665.5 c 128,-1,9
 84 689 84 689 103.5 702.5 c 128,-1,10
 123 716 123 716 146 721 c 128,-1,11
 169 726 169 726 192 726 c 2,12,-1
 204 726 l 1,13,-1
 204 278 l 1,0,-1
264 593 m 2,14,15
 264 597 264 597 263.5 603.5 c 128,-1,16
 263 610 263 610 261 616 c 128,-1,17
 259 622 259 622 254.5 626.5 c 128,-1,18
 250 631 250 631 241 631 c 0,19,20
 229 631 229 631 223 620 c 1,21,-1
 223 634 l 2,22,23
 223 680 223 680 245.5 703 c 128,-1,24
 268 726 268 726 310 726 c 0,25,26
 356 726 356 726 380 697 c 128,-1,27
 404 668 404 668 404 631 c 2,28,-1
 404 613 l 2,29,30
 404 582 404 582 392.5 561 c 128,-1,31
 381 540 381 540 363.5 527 c 128,-1,32
 346 514 346 514 325.5 508.5 c 128,-1,33
 305 503 305 503 286 503 c 0,34,35
 280 503 280 503 274.5 503.5 c 128,-1,36
 269 504 269 504 264 505 c 1,37,-1
 264 593 l 2,14,15
408 1 m 1,38,-1
 396 1 l 2,39,40
 373 1 373 1 350 6 c 128,-1,41
 327 11 327 11 307.5 24.5 c 128,-1,42
 288 38 288 38 276 61.5 c 128,-1,43
 264 85 264 85 264 121 c 2,44,-1
 264 270 l 1,45,-1
 276 270 l 2,46,47
 298 270 298 270 321.5 265 c 128,-1,48
 345 260 345 260 364.5 246.5 c 128,-1,49
 384 233 384 233 396 209.5 c 128,-1,50
 408 186 408 186 408 150 c 2,51,-1
 408 1 l 1,38,-1
204 136 m 2,52,53
 204 116 204 116 206.5 104.5 c 128,-1,54
 209 93 209 93 223 93 c 0,55,56
 232 93 232 93 235.5 95 c 128,-1,57
 239 97 239 97 245 104 c 1,58,-1
 245 93 l 2,59,60
 245 52 245 52 224 25 c 128,-1,61
 203 -2 203 -2 155 -2 c 0,62,63
 132 -2 132 -2 115 6 c 128,-1,64
 98 14 98 14 86.5 27 c 128,-1,65
 75 40 75 40 69.5 57.5 c 128,-1,66
 64 75 64 75 64 93 c 2,67,-1
 64 152 l 2,68,69
 64 186 64 186 74 208.5 c 128,-1,70
 84 231 84 231 100 244.5 c 128,-1,71
 116 258 116 258 136.5 264 c 128,-1,72
 157 270 157 270 177 270 c 0,73,74
 184 270 184 270 190.5 269.5 c 128,-1,75
 197 269 197 269 204 268 c 1,76,-1
 204 136 l 2,52,53
264 392 m 1,77,-1
 369 392 l 2,78,79
 411 392 411 392 435 366 c 128,-1,80
 459 340 459 340 459 298 c 0,81,82
 459 286 459 286 458 283 c 1,83,-1
 264 283 l 1,84,-1
 264 392 l 1,77,-1
EndSplineSet
EndChar

StartChar: quotesingle
Encoding: 39 39 93
Width: 216
Flags: W
LayerCount: 2
Fore
SplineSet
171 595 m 2,0,1
 171 544 171 544 145.5 513 c 128,-1,2
 120 482 120 482 60 482 c 1,3,-1
 60 648 l 2,4,5
 60 680 60 680 69 702 c 128,-1,6
 78 724 78 724 93 737 c 128,-1,7
 108 750 108 750 128 755.5 c 128,-1,8
 148 761 148 761 171 761 c 1,9,-1
 171 595 l 2,0,1
EndSplineSet
EndChar

StartChar: dollar
Encoding: 36 36 94
Width: 466
Flags: W
LayerCount: 2
Fore
SplineSet
206 260 m 1,0,-1
 194 260 l 2,1,2
 171 260 171 260 148 265 c 128,-1,3
 125 270 125 270 105.5 283.5 c 128,-1,4
 86 297 86 297 74 320.5 c 128,-1,5
 62 344 62 344 62 380 c 2,6,-1
 62 526 l 2,7,8
 62 562 62 562 74 585.5 c 128,-1,9
 86 609 86 609 105.5 622.5 c 128,-1,10
 125 636 125 636 148 641 c 128,-1,11
 171 646 171 646 194 646 c 2,12,-1
 206 646 l 1,13,-1
 206 260 l 1,0,-1
55 96 m 0,14,15
 55 127 55 127 67 146.5 c 128,-1,16
 79 166 79 166 96 177 c 128,-1,17
 113 188 113 188 132 191.5 c 128,-1,18
 151 195 151 195 165 195 c 0,19,20
 177 195 177 195 185 193 c 1,21,-1
 185 143 l 2,22,23
 185 106 185 106 214 106 c 0,24,25
 223 106 223 106 229 109 c 128,-1,26
 235 112 235 112 242 118 c 1,27,28
 245 110 245 110 245.5 98 c 128,-1,29
 246 86 246 86 246 79 c 0,30,31
 246 67 246 67 242 53 c 128,-1,32
 238 39 238 39 228.5 27.5 c 128,-1,33
 219 16 219 16 202 8 c 128,-1,34
 185 0 185 0 159 0 c 0,35,36
 132 0 132 0 112.5 9 c 128,-1,37
 93 18 93 18 80.5 31.5 c 128,-1,38
 68 45 68 45 61.5 62 c 128,-1,39
 55 79 55 79 55 96 c 0,14,15
262 375 m 1,40,-1
 274 375 l 2,41,42
 296 375 296 375 319.5 370 c 128,-1,43
 343 365 343 365 362.5 351.5 c 128,-1,44
 382 338 382 338 394 314.5 c 128,-1,45
 406 291 406 291 406 255 c 2,46,-1
 406 119 l 2,47,48
 406 83 406 83 394 59.5 c 128,-1,49
 382 36 382 36 362.5 22.5 c 128,-1,50
 343 9 343 9 319.5 4 c 128,-1,51
 296 -1 296 -1 274 -1 c 2,52,-1
 262 -1 l 1,53,-1
 262 375 l 1,40,-1
411 550 m 0,54,55
 411 518 411 518 399 499 c 128,-1,56
 387 480 387 480 370 469 c 128,-1,57
 353 458 353 458 334 454.5 c 128,-1,58
 315 451 315 451 301 451 c 0,59,60
 289 451 289 451 281 453 c 1,61,-1
 281 503 l 2,62,63
 281 540 281 540 252 540 c 0,64,65
 243 540 243 540 237 537 c 128,-1,66
 231 534 231 534 224 528 c 1,67,68
 221 536 221 536 220.5 548 c 128,-1,69
 220 560 220 560 220 567 c 0,70,71
 220 579 220 579 224 593 c 128,-1,72
 228 607 228 607 237.5 618.5 c 128,-1,73
 247 630 247 630 264 638 c 128,-1,74
 281 646 281 646 307 646 c 0,75,76
 334 646 334 646 353.5 637 c 128,-1,77
 373 628 373 628 385.5 614.5 c 128,-1,78
 398 601 398 601 404.5 583.5 c 128,-1,79
 411 566 411 566 411 550 c 0,54,55
206 -23 m 1,80,81
 211 -26 211 -26 224.5 -27 c 128,-1,82
 238 -28 238 -28 253 -28 c 0,83,84
 273 -28 273 -28 291 -26 c 128,-1,85
 309 -24 309 -24 315 -21 c 1,86,-1
 315 -187 l 1,87,88
 311 -187 311 -187 308 -187.5 c 128,-1,89
 305 -188 305 -188 301 -188 c 0,90,91
 277 -188 277 -188 259 -180.5 c 128,-1,92
 241 -173 241 -173 229.5 -161 c 128,-1,93
 218 -149 218 -149 212 -134.5 c 128,-1,94
 206 -120 206 -120 206 -106 c 2,95,-1
 206 -23 l 1,80,81
206 757 m 2,96,97
 206 771 206 771 212 785.5 c 128,-1,98
 218 800 218 800 229.5 812 c 128,-1,99
 241 824 241 824 259 831.5 c 128,-1,100
 277 839 277 839 301 839 c 0,101,102
 305 839 305 839 308 838.5 c 128,-1,103
 311 838 311 838 315 838 c 1,104,-1
 315 672 l 1,105,106
 309 675 309 675 291 677 c 128,-1,107
 273 679 273 679 253 679 c 0,108,109
 238 679 238 679 224.5 678 c 128,-1,110
 211 677 211 677 206 674 c 1,111,-1
 206 757 l 2,96,97
EndSplineSet
EndChar

StartChar: asciicircum
Encoding: 94 94 95
Width: 531
Flags: W
LayerCount: 2
Fore
SplineSet
264 764 m 1,0,-1
 422 613 l 2,1,2
 453 584 453 584 466.5 557 c 128,-1,3
 480 530 480 530 480 507 c 0,4,5
 480 482 480 482 467 461 c 128,-1,6
 454 440 454 440 432 422 c 1,7,-1
 265 594 l 1,8,-1
 100 424 l 1,9,10
 51 467 51 467 51 510 c 0,11,12
 51 558 51 558 110 615 c 2,13,-1
 264 764 l 1,0,-1
EndSplineSet
EndChar

StartChar: brokenbar
Encoding: 166 166 96
Width: 344
Flags: W
LayerCount: 2
Fore
SplineSet
100 761 m 1,0,1
 124 761 124 761 149.5 755 c 128,-1,2
 175 749 175 749 196 735.5 c 128,-1,3
 217 722 217 722 230.5 698.5 c 128,-1,4
 244 675 244 675 244 641 c 2,5,-1
 244 415 l 2,6,7
 244 378 244 378 232.5 355 c 128,-1,8
 221 332 221 332 202.5 319 c 128,-1,9
 184 306 184 306 159.5 301 c 128,-1,10
 135 296 135 296 110 296 c 2,11,-1
 100 296 l 1,12,-1
 100 761 l 1,0,1
100 220 m 1,13,14
 124 220 124 220 149.5 214 c 128,-1,15
 175 208 175 208 196 194.5 c 128,-1,16
 217 181 217 181 230.5 157.5 c 128,-1,17
 244 134 244 134 244 100 c 2,18,-1
 244 -131 l 2,19,20
 244 -168 244 -168 232.5 -191 c 128,-1,21
 221 -214 221 -214 202.5 -227 c 128,-1,22
 184 -240 184 -240 159.5 -245 c 128,-1,23
 135 -250 135 -250 110 -250 c 2,24,-1
 100 -250 l 1,25,-1
 100 220 l 1,13,14
EndSplineSet
EndChar

StartChar: guillemotleft
Encoding: 171 171 97
Width: 651
Flags: W
LayerCount: 2
Fore
SplineSet
184 425 m 2,0,1
 240 484 240 484 289 484 c 0,2,3
 332 484 332 484 375 435 c 1,4,-1
 205 270 l 1,5,-1
 377 103 l 1,6,7
 359 81 359 81 337.5 68 c 128,-1,8
 316 55 316 55 290 55 c 0,9,10
 267 55 267 55 241 68.5 c 128,-1,11
 215 82 215 82 186 113 c 2,12,-1
 35 271 l 1,13,-1
 184 425 l 2,0,1
418 425 m 2,14,15
 474 484 474 484 523 484 c 0,16,17
 566 484 566 484 609 435 c 1,18,-1
 439 270 l 1,19,-1
 611 103 l 1,20,21
 593 81 593 81 571.5 68 c 128,-1,22
 550 55 550 55 524 55 c 0,23,24
 501 55 501 55 475 68.5 c 128,-1,25
 449 82 449 82 420 113 c 2,26,-1
 269 271 l 1,27,-1
 418 425 l 2,14,15
EndSplineSet
EndChar

StartChar: guillemotright
Encoding: 187 187 98
Width: 651
Flags: W
LayerCount: 2
Fore
SplineSet
467 103 m 2,0,1
 410 44 410 44 362 44 c 0,2,3
 319 44 319 44 276 93 c 1,4,-1
 446 258 l 1,5,-1
 274 425 l 1,6,7
 292 447 292 447 313.5 460 c 128,-1,8
 335 473 335 473 361 473 c 0,9,10
 384 473 384 473 410 459.5 c 128,-1,11
 436 446 436 446 465 415 c 2,12,-1
 616 257 l 1,13,-1
 467 103 l 2,0,1
233 103 m 2,14,15
 176 44 176 44 128 44 c 0,16,17
 85 44 85 44 42 93 c 1,18,-1
 212 258 l 1,19,-1
 40 425 l 1,20,21
 58 447 58 447 79.5 460 c 128,-1,22
 101 473 101 473 127 473 c 0,23,24
 150 473 150 473 176 459.5 c 128,-1,25
 202 446 202 446 231 415 c 2,26,-1
 382 257 l 1,27,-1
 233 103 l 2,14,15
EndSplineSet
EndChar

StartChar: asciitilde
Encoding: 126 126 99
Width: 388
Flags: W
LayerCount: 2
Fore
SplineSet
122 609 m 256,0,1
 105 609 105 609 89 601.5 c 128,-1,2
 73 594 73 594 59 574 c 1,3,4
 40 602 40 602 40 633 c 0,5,6
 40 652 40 652 47.5 669 c 128,-1,7
 55 686 55 686 68.5 699 c 128,-1,8
 82 712 82 712 99.5 719 c 128,-1,9
 117 726 117 726 137 726 c 256,10,11
 157 726 157 726 172.5 722 c 128,-1,12
 188 718 188 718 202 713 c 128,-1,13
 216 708 216 708 229.5 704 c 128,-1,14
 243 700 243 700 259 700 c 256,15,16
 275 700 275 700 291 705.5 c 128,-1,17
 307 711 307 711 324 726 c 1,18,19
 348 690 348 690 348 659 c 0,20,21
 348 627 348 627 326 603 c 128,-1,22
 304 579 304 579 262 579 c 0,23,24
 242 579 242 579 224 583.5 c 128,-1,25
 206 588 206 588 189 594 c 128,-1,26
 172 600 172 600 155.5 604.5 c 128,-1,27
 139 609 139 609 122 609 c 256,0,1
EndSplineSet
EndChar

StartChar: grave
Encoding: 96 96 100
Width: 309
Flags: W
LayerCount: 2
Fore
SplineSet
168 566 m 2,0,1
 132 566 132 566 111 579.5 c 128,-1,2
 90 593 90 593 80 614 c 128,-1,3
 70 635 70 635 67.5 660 c 128,-1,4
 65 685 65 685 65 708 c 1,5,-1
 141 708 l 2,6,7
 177 708 177 708 197.5 694 c 128,-1,8
 218 680 218 680 228.5 659 c 128,-1,9
 239 638 239 638 241.5 613 c 128,-1,10
 244 588 244 588 244 566 c 1,11,-1
 168 566 l 2,0,1
EndSplineSet
EndChar

StartChar: acute
Encoding: 180 180 101
Width: 309
Flags: W
LayerCount: 2
Fore
SplineSet
65 566 m 1,0,1
 65 588 65 588 67.5 613 c 128,-1,2
 70 638 70 638 80.5 659 c 128,-1,3
 91 680 91 680 111.5 694 c 128,-1,4
 132 708 132 708 168 708 c 2,5,-1
 244 708 l 1,6,7
 244 685 244 685 241.5 660 c 128,-1,8
 239 635 239 635 229 614 c 128,-1,9
 219 593 219 593 198 579.5 c 128,-1,10
 177 566 177 566 141 566 c 2,11,-1
 65 566 l 1,0,1
EndSplineSet
EndChar

StartChar: plusminus
Encoding: 177 177 102
Width: 495
Flags: W
LayerCount: 2
Fore
SplineSet
310 159 m 1,0,1
 253 159 253 159 225 182.5 c 128,-1,2
 197 206 197 206 197 261 c 2,3,-1
 197 280 l 1,4,-1
 60 280 l 1,5,6
 60 337 60 337 83.5 365 c 128,-1,7
 107 393 107 393 162 393 c 2,8,-1
 197 393 l 1,9,-1
 197 508 l 1,10,11
 254 508 254 508 282 486 c 128,-1,12
 310 464 310 464 310 416 c 2,13,-1
 310 393 l 1,14,-1
 435 393 l 1,15,16
 435 336 435 336 413 308 c 128,-1,17
 391 280 391 280 343 280 c 2,18,-1
 310 280 l 1,19,-1
 310 159 l 1,0,1
60 0 m 1,20,21
 60 57 60 57 83.5 85 c 128,-1,22
 107 113 107 113 162 113 c 2,23,-1
 435 113 l 1,24,25
 435 56 435 56 413 28 c 128,-1,26
 391 0 391 0 343 0 c 2,27,-1
 60 0 l 1,20,21
EndSplineSet
EndChar

StartChar: acircumflex
Encoding: 226 226 103
Width: 452
Flags: W
LayerCount: 2
Fore
SplineSet
338 663 m 2,0,1
 350 652 350 652 356 637 c 128,-1,2
 362 622 362 622 362 607 c 0,3,4
 362 589 362 589 354 571.5 c 128,-1,5
 346 554 346 554 329 542 c 1,6,-1
 232 633 l 1,7,-1
 136 541 l 1,8,9
 119 553 119 553 110 571 c 128,-1,10
 101 589 101 589 101 608 c 0,11,12
 101 624 101 624 107 638.5 c 128,-1,13
 113 653 113 653 125 663 c 2,14,-1
 232 754 l 1,15,-1
 338 663 l 2,0,1
273 352 m 2,16,17
 273 364 273 364 271.5 375 c 128,-1,18
 270 386 270 386 265.5 394.5 c 128,-1,19
 261 403 261 403 252.5 408.5 c 128,-1,20
 244 414 244 414 229 414 c 0,21,22
 221 414 221 414 212.5 411.5 c 128,-1,23
 204 409 204 409 197 403 c 1,24,25
 193 411 193 411 192 418.5 c 128,-1,26
 191 426 191 426 191 434 c 0,27,28
 191 466 191 466 218 487 c 128,-1,29
 245 508 245 508 283 508 c 0,30,31
 343 508 343 508 375 477.5 c 128,-1,32
 407 447 407 447 407 390 c 2,33,-1
 407 0 l 1,34,35
 384 0 384 0 360.5 5.5 c 128,-1,36
 337 11 337 11 317.5 24.5 c 128,-1,37
 298 38 298 38 285.5 60.5 c 128,-1,38
 273 83 273 83 273 118 c 2,39,-1
 273 352 l 2,16,17
179 156 m 2,40,41
 179 144 179 144 180.5 133 c 128,-1,42
 182 122 182 122 186.5 113.5 c 128,-1,43
 191 105 191 105 199.5 99.5 c 128,-1,44
 208 94 208 94 223 94 c 0,45,46
 231 94 231 94 239.5 96.5 c 128,-1,47
 248 99 248 99 255 105 c 1,48,49
 259 97 259 97 260 89.5 c 128,-1,50
 261 82 261 82 261 74 c 0,51,52
 261 42 261 42 234 21 c 128,-1,53
 207 0 207 0 169 0 c 0,54,55
 109 0 109 0 77 32 c 128,-1,56
 45 64 45 64 45 112 c 2,57,-1
 45 390 l 2,58,59
 45 423 45 423 57.5 445.5 c 128,-1,60
 70 468 70 468 89.5 482 c 128,-1,61
 109 496 109 496 132.5 502 c 128,-1,62
 156 508 156 508 179 508 c 1,63,-1
 179 156 l 2,40,41
EndSplineSet
EndChar

StartChar: ecircumflex
Encoding: 234 234 104
Width: 442
Flags: W
LayerCount: 2
Fore
SplineSet
179 0 m 1,0,-1
 169 0 l 2,1,2
 146 0 146 0 124 5.5 c 128,-1,3
 102 11 102 11 84.5 24.5 c 128,-1,4
 67 38 67 38 56 60 c 128,-1,5
 45 82 45 82 45 114 c 2,6,-1
 45 383 l 2,7,8
 45 438 45 438 71.5 473 c 128,-1,9
 98 508 98 508 158 508 c 0,10,11
 198 508 198 508 224 487.5 c 128,-1,12
 250 467 250 467 250 422 c 0,13,14
 250 407 250 407 246 400 c 1,15,16
 232 412 232 412 216 412 c 0,17,18
 194 412 194 412 186.5 397 c 128,-1,19
 179 382 179 382 179 365 c 2,20,-1
 179 0 l 1,0,-1
268 507 m 1,21,22
 273 508 273 508 278 508 c 2,23,-1
 288 508 l 2,24,25
 342 508 342 508 372 480.5 c 128,-1,26
 402 453 402 453 402 402 c 2,27,-1
 402 347 l 2,28,29
 402 279 402 279 368 246 c 128,-1,30
 334 213 334 213 285 213 c 2,31,-1
 278 213 l 1,32,33
 240 215 240 215 216.5 238.5 c 128,-1,34
 193 262 193 262 193 295 c 0,35,36
 193 300 193 300 193.5 304 c 128,-1,37
 194 308 194 308 197 316 c 1,38,39
 205 308 205 308 211 304 c 128,-1,40
 217 300 217 300 231 300 c 0,41,42
 254 300 254 300 261 316.5 c 128,-1,43
 268 333 268 333 268 355 c 2,44,-1
 268 507 l 1,21,22
332 663 m 2,45,46
 344 652 344 652 350 637 c 128,-1,47
 356 622 356 622 356 607 c 0,48,49
 356 589 356 589 348 571.5 c 128,-1,50
 340 554 340 554 323 542 c 1,51,-1
 226 633 l 1,52,-1
 130 541 l 1,53,54
 113 553 113 553 104 571 c 128,-1,55
 95 589 95 589 95 608 c 0,56,57
 95 624 95 624 101 638.5 c 128,-1,58
 107 653 107 653 119 663 c 2,59,-1
 226 754 l 1,60,-1
 332 663 l 2,45,46
398 97 m 0,61,62
 398 69 398 69 388.5 50.5 c 128,-1,63
 379 32 379 32 364 20.5 c 128,-1,64
 349 9 349 9 331 4.5 c 128,-1,65
 313 0 313 0 296 0 c 0,66,67
 245 0 245 0 224 25 c 128,-1,68
 203 50 203 50 203 81 c 0,69,70
 203 86 203 86 203.5 93 c 128,-1,71
 204 100 204 100 208 108 c 1,72,73
 221 96 221 96 238 96 c 1,74,75
 262 98 262 98 266 112 c 128,-1,76
 270 126 270 126 270 147 c 2,77,-1
 270 184 l 1,78,79
 285 188 285 188 306 188 c 0,80,81
 332 188 332 188 349.5 180 c 128,-1,82
 367 172 367 172 378 159 c 128,-1,83
 389 146 389 146 393.5 129.5 c 128,-1,84
 398 113 398 113 398 97 c 0,61,62
EndSplineSet
EndChar

StartChar: icircumflex
Encoding: 238 238 105
Width: 301
Flags: W
LayerCount: 2
Fore
SplineSet
256 663 m 2,0,1
 280 640 280 640 280 607 c 0,2,3
 280 589 280 589 272 571.5 c 128,-1,4
 264 554 264 554 247 542 c 1,5,-1
 150 633 l 1,6,-1
 54 541 l 1,7,8
 37 553 37 553 28.5 570.5 c 128,-1,9
 20 588 20 588 20 607 c 0,10,11
 20 641 20 641 43 663 c 2,12,-1
 150 764 l 1,13,-1
 256 663 l 2,0,1
83 508 m 1,14,-1
 94 508 l 2,15,16
 146 508 146 508 181.5 480 c 128,-1,17
 217 452 217 452 217 391 c 2,18,-1
 217 0 l 1,19,-1
 211 0 l 2,20,21
 188 0 188 0 165.5 6 c 128,-1,22
 143 12 143 12 124.5 25.5 c 128,-1,23
 106 39 106 39 94.5 60.5 c 128,-1,24
 83 82 83 82 83 114 c 2,25,-1
 83 508 l 1,14,-1
EndSplineSet
EndChar

StartChar: ocircumflex
Encoding: 244 244 106
Width: 452
Flags: W
LayerCount: 2
Fore
SplineSet
338 663 m 2,0,1
 350 652 350 652 356 637 c 128,-1,2
 362 622 362 622 362 607 c 0,3,4
 362 589 362 589 354 571.5 c 128,-1,5
 346 554 346 554 329 542 c 1,6,-1
 232 633 l 1,7,-1
 136 541 l 1,8,9
 119 553 119 553 110 571 c 128,-1,10
 101 589 101 589 101 608 c 0,11,12
 101 624 101 624 107 638.5 c 128,-1,13
 113 653 113 653 125 663 c 2,14,-1
 232 754 l 1,15,-1
 338 663 l 2,0,1
179 156 m 2,16,17
 179 144 179 144 180.5 133 c 128,-1,18
 182 122 182 122 186.5 113.5 c 128,-1,19
 191 105 191 105 199.5 99.5 c 128,-1,20
 208 94 208 94 223 94 c 0,21,22
 231 94 231 94 239.5 96.5 c 128,-1,23
 248 99 248 99 255 105 c 1,24,25
 259 97 259 97 260 89.5 c 128,-1,26
 261 82 261 82 261 74 c 0,27,28
 261 42 261 42 234 21 c 128,-1,29
 207 0 207 0 169 0 c 0,30,31
 109 0 109 0 77 32 c 128,-1,32
 45 64 45 64 45 112 c 2,33,-1
 45 390 l 2,34,35
 45 423 45 423 57.5 445.5 c 128,-1,36
 70 468 70 468 89.5 482 c 128,-1,37
 109 496 109 496 132.5 502 c 128,-1,38
 156 508 156 508 179 508 c 1,39,-1
 179 156 l 2,16,17
407 118 m 2,40,41
 407 83 407 83 394.5 60.5 c 128,-1,42
 382 38 382 38 362.5 24.5 c 128,-1,43
 343 11 343 11 319 5.5 c 128,-1,44
 295 0 295 0 273 0 c 1,45,-1
 273 352 l 2,46,47
 273 364 273 364 271.5 375 c 128,-1,48
 270 386 270 386 265.5 394.5 c 128,-1,49
 261 403 261 403 252.5 408.5 c 128,-1,50
 244 414 244 414 229 414 c 0,51,52
 221 414 221 414 212.5 411.5 c 128,-1,53
 204 409 204 409 197 403 c 1,54,55
 193 411 193 411 192 418.5 c 128,-1,56
 191 426 191 426 191 434 c 0,57,58
 191 466 191 466 218 487 c 128,-1,59
 245 508 245 508 283 508 c 0,60,61
 343 508 343 508 375 477.5 c 128,-1,62
 407 447 407 447 407 390 c 2,63,-1
 407 118 l 2,40,41
EndSplineSet
EndChar

StartChar: ucircumflex
Encoding: 251 251 107
Width: 452
Flags: W
LayerCount: 2
Fore
SplineSet
320 663 m 2,0,1
 332 652 332 652 338 637 c 128,-1,2
 344 622 344 622 344 607 c 0,3,4
 344 589 344 589 336 571.5 c 128,-1,5
 328 554 328 554 311 542 c 1,6,-1
 214 633 l 1,7,-1
 118 541 l 1,8,9
 101 553 101 553 92 571 c 128,-1,10
 83 589 83 589 83 608 c 0,11,12
 83 624 83 624 89 638.5 c 128,-1,13
 95 653 95 653 107 663 c 2,14,-1
 214 754 l 1,15,-1
 320 663 l 2,0,1
179 158 m 2,16,17
 179 146 179 146 180.5 135 c 128,-1,18
 182 124 182 124 186.5 115.5 c 128,-1,19
 191 107 191 107 199.5 101.5 c 128,-1,20
 208 96 208 96 223 96 c 0,21,22
 231 96 231 96 239.5 98.5 c 128,-1,23
 248 101 248 101 255 107 c 1,24,25
 259 99 259 99 260 91.5 c 128,-1,26
 261 84 261 84 261 76 c 0,27,28
 261 44 261 44 235 22 c 128,-1,29
 209 0 209 0 164 0 c 0,30,31
 110 0 110 0 77.5 32 c 128,-1,32
 45 64 45 64 45 130 c 2,33,-1
 45 507 l 1,34,-1
 51 507 l 2,35,36
 111 507 111 507 145 478.5 c 128,-1,37
 179 450 179 450 179 387 c 2,38,-1
 179 158 l 2,16,17
407 2 m 1,39,-1
 396 2 l 2,40,41
 344 2 344 2 308.5 29.5 c 128,-1,42
 273 57 273 57 273 119 c 2,43,-1
 273 507 l 1,44,-1
 279 507 l 2,45,46
 301 507 301 507 324 501 c 128,-1,47
 347 495 347 495 365.5 481.5 c 128,-1,48
 384 468 384 468 395.5 446 c 128,-1,49
 407 424 407 424 407 393 c 2,50,-1
 407 2 l 1,39,-1
EndSplineSet
EndChar

StartChar: udieresis
Encoding: 252 252 108
Width: 452
Flags: W
LayerCount: 2
Fore
SplineSet
179 158 m 2,0,1
 179 146 179 146 180.5 135 c 128,-1,2
 182 124 182 124 186.5 115.5 c 128,-1,3
 191 107 191 107 199.5 101.5 c 128,-1,4
 208 96 208 96 223 96 c 0,5,6
 231 96 231 96 239.5 98.5 c 128,-1,7
 248 101 248 101 255 107 c 1,8,9
 259 99 259 99 260 91.5 c 128,-1,10
 261 84 261 84 261 76 c 0,11,12
 261 44 261 44 235 22 c 128,-1,13
 209 0 209 0 164 0 c 0,14,15
 110 0 110 0 77.5 32 c 128,-1,16
 45 64 45 64 45 130 c 2,17,-1
 45 507 l 1,18,-1
 51 507 l 2,19,20
 111 507 111 507 145 478.5 c 128,-1,21
 179 450 179 450 179 387 c 2,22,-1
 179 158 l 2,0,1
407 2 m 1,23,-1
 396 2 l 2,24,25
 344 2 344 2 308.5 29.5 c 128,-1,26
 273 57 273 57 273 119 c 2,27,-1
 273 507 l 1,28,-1
 279 507 l 2,29,30
 301 507 301 507 324 501 c 128,-1,31
 347 495 347 495 365.5 481.5 c 128,-1,32
 384 468 384 468 395.5 446 c 128,-1,33
 407 424 407 424 407 393 c 2,34,-1
 407 2 l 1,23,-1
70 658 m 256,35,36
 70 687 70 687 90.5 707.5 c 128,-1,37
 111 728 111 728 140 728 c 256,38,39
 169 728 169 728 189.5 707.5 c 128,-1,40
 210 687 210 687 210 658 c 256,41,42
 210 629 210 629 189.5 609 c 128,-1,43
 169 589 169 589 140 589 c 256,44,45
 111 589 111 589 90.5 609 c 128,-1,46
 70 629 70 629 70 658 c 256,35,36
226 658 m 256,47,48
 226 687 226 687 247 707.5 c 128,-1,49
 268 728 268 728 297 728 c 256,50,51
 326 728 326 728 346 707.5 c 128,-1,52
 366 687 366 687 366 658 c 256,53,54
 366 629 366 629 346 609 c 128,-1,55
 326 589 326 589 297 589 c 256,56,57
 268 589 268 589 247 609 c 128,-1,58
 226 629 226 629 226 658 c 256,47,48
EndSplineSet
EndChar

StartChar: yacute
Encoding: 253 253 109
Width: 452
Flags: W
LayerCount: 2
Fore
SplineSet
179 158 m 2,0,1
 179 146 179 146 180.5 135 c 128,-1,2
 182 124 182 124 186.5 115.5 c 128,-1,3
 191 107 191 107 199.5 101.5 c 128,-1,4
 208 96 208 96 223 96 c 0,5,6
 231 96 231 96 239.5 98.5 c 128,-1,7
 248 101 248 101 255 107 c 1,8,9
 259 99 259 99 260 91.5 c 128,-1,10
 261 84 261 84 261 76 c 0,11,12
 261 44 261 44 235 22 c 128,-1,13
 209 0 209 0 164 0 c 0,14,15
 110 0 110 0 77.5 33.5 c 128,-1,16
 45 67 45 67 45 130 c 2,17,-1
 45 507 l 1,18,-1
 51 507 l 2,19,20
 111 507 111 507 145 478.5 c 128,-1,21
 179 450 179 450 179 387 c 2,22,-1
 179 158 l 2,0,1
407 -17 m 2,23,24
 407 -79 407 -79 371.5 -106.5 c 128,-1,25
 336 -134 336 -134 284 -134 c 2,26,-1
 273 -134 l 1,27,-1
 273 507 l 1,28,-1
 279 507 l 2,29,30
 301 507 301 507 324 501 c 128,-1,31
 347 495 347 495 365.5 481.5 c 128,-1,32
 384 468 384 468 395.5 446 c 128,-1,33
 407 424 407 424 407 393 c 2,34,-1
 407 -17 l 2,23,24
105 -177 m 0,35,36
 105 -146 105 -146 117 -126.5 c 128,-1,37
 129 -107 129 -107 146 -96 c 128,-1,38
 163 -85 163 -85 182 -81.5 c 128,-1,39
 201 -78 201 -78 215 -78 c 0,40,41
 227 -78 227 -78 235 -80 c 1,42,-1
 235 -126 l 2,43,44
 235 -147 235 -147 245 -157 c 128,-1,45
 255 -167 255 -167 270 -167 c 0,46,47
 288 -167 288 -167 302 -155 c 1,48,49
 305 -163 305 -163 305.5 -169.5 c 128,-1,50
 306 -176 306 -176 306 -184 c 0,51,52
 306 -196 306 -196 300.5 -211.5 c 128,-1,53
 295 -227 295 -227 283.5 -240.5 c 128,-1,54
 272 -254 272 -254 253.5 -263.5 c 128,-1,55
 235 -273 235 -273 209 -273 c 0,56,57
 182 -273 182 -273 162.5 -264 c 128,-1,58
 143 -255 143 -255 130.5 -241.5 c 128,-1,59
 118 -228 118 -228 111.5 -211 c 128,-1,60
 105 -194 105 -194 105 -177 c 0,35,36
137 566 m 1,61,62
 137 588 137 588 139.5 613 c 128,-1,63
 142 638 142 638 152.5 659 c 128,-1,64
 163 680 163 680 183.5 694 c 128,-1,65
 204 708 204 708 240 708 c 2,66,-1
 316 708 l 1,67,68
 316 685 316 685 313.5 660 c 128,-1,69
 311 635 311 635 301 614 c 128,-1,70
 291 593 291 593 270 579.5 c 128,-1,71
 249 566 249 566 213 566 c 2,72,-1
 137 566 l 1,61,62
EndSplineSet
EndChar

StartChar: ydieresis
Encoding: 255 255 110
Width: 452
Flags: W
LayerCount: 2
Fore
SplineSet
179 158 m 2,0,1
 179 146 179 146 180.5 135 c 128,-1,2
 182 124 182 124 186.5 115.5 c 128,-1,3
 191 107 191 107 199.5 101.5 c 128,-1,4
 208 96 208 96 223 96 c 0,5,6
 231 96 231 96 239.5 98.5 c 128,-1,7
 248 101 248 101 255 107 c 1,8,9
 259 99 259 99 260 91.5 c 128,-1,10
 261 84 261 84 261 76 c 0,11,12
 261 44 261 44 235 22 c 128,-1,13
 209 0 209 0 164 0 c 0,14,15
 110 0 110 0 77.5 33.5 c 128,-1,16
 45 67 45 67 45 130 c 2,17,-1
 45 507 l 1,18,-1
 51 507 l 2,19,20
 111 507 111 507 145 478.5 c 128,-1,21
 179 450 179 450 179 387 c 2,22,-1
 179 158 l 2,0,1
407 -17 m 2,23,24
 407 -79 407 -79 371.5 -106.5 c 128,-1,25
 336 -134 336 -134 284 -134 c 2,26,-1
 273 -134 l 1,27,-1
 273 507 l 1,28,-1
 279 507 l 2,29,30
 301 507 301 507 324 501 c 128,-1,31
 347 495 347 495 365.5 481.5 c 128,-1,32
 384 468 384 468 395.5 446 c 128,-1,33
 407 424 407 424 407 393 c 2,34,-1
 407 -17 l 2,23,24
105 -177 m 0,35,36
 105 -146 105 -146 117 -126.5 c 128,-1,37
 129 -107 129 -107 146 -96 c 128,-1,38
 163 -85 163 -85 182 -81.5 c 128,-1,39
 201 -78 201 -78 215 -78 c 0,40,41
 227 -78 227 -78 235 -80 c 1,42,-1
 235 -126 l 2,43,44
 235 -147 235 -147 245 -157 c 128,-1,45
 255 -167 255 -167 270 -167 c 0,46,47
 288 -167 288 -167 302 -155 c 1,48,49
 305 -163 305 -163 305.5 -169.5 c 128,-1,50
 306 -176 306 -176 306 -184 c 0,51,52
 306 -196 306 -196 300.5 -211.5 c 128,-1,53
 295 -227 295 -227 283.5 -240.5 c 128,-1,54
 272 -254 272 -254 253.5 -263.5 c 128,-1,55
 235 -273 235 -273 209 -273 c 0,56,57
 182 -273 182 -273 162.5 -264 c 128,-1,58
 143 -255 143 -255 130.5 -241.5 c 128,-1,59
 118 -228 118 -228 111.5 -211 c 128,-1,60
 105 -194 105 -194 105 -177 c 0,35,36
68 658 m 256,61,62
 68 687 68 687 88.5 707.5 c 128,-1,63
 109 728 109 728 138 728 c 256,64,65
 167 728 167 728 187.5 707.5 c 128,-1,66
 208 687 208 687 208 658 c 256,67,68
 208 629 208 629 187.5 609 c 128,-1,69
 167 589 167 589 138 589 c 256,70,71
 109 589 109 589 88.5 609 c 128,-1,72
 68 629 68 629 68 658 c 256,61,62
224 658 m 256,73,74
 224 687 224 687 245 707.5 c 128,-1,75
 266 728 266 728 295 728 c 256,76,77
 324 728 324 728 344 707.5 c 128,-1,78
 364 687 364 687 364 658 c 256,79,80
 364 629 364 629 344 609 c 128,-1,81
 324 589 324 589 295 589 c 256,82,83
 266 589 266 589 245 609 c 128,-1,84
 224 629 224 629 224 658 c 256,73,74
EndSplineSet
EndChar

StartChar: multiply
Encoding: 215 215 111
Width: 465
Flags: W
LayerCount: 2
Fore
SplineSet
109 469 m 0,0,1
 148 469 148 469 183 431 c 2,2,-1
 232 377 l 1,3,-1
 292 440 l 2,4,5
 325 474 325 474 356 474 c 0,6,7
 376 474 376 474 396.5 461 c 128,-1,8
 417 448 417 448 440 425 c 1,9,-1
 311 297 l 1,10,-1
 438 171 l 1,11,12
 393 126 393 126 354 126 c 0,13,14
 320 126 320 126 289 159 c 1,15,-1
 231 218 l 1,16,-1
 177 160 l 2,17,18
 160 142 160 142 143 133.5 c 128,-1,19
 126 125 126 125 110 125 c 0,20,21
 89 125 89 125 68 137 c 128,-1,22
 47 149 47 149 25 171 c 1,23,-1
 152 298 l 1,24,-1
 25 426 l 1,25,26
 68 469 68 469 109 469 c 0,0,1
231 221 m 1,27,-1
 309 298 l 1,28,-1
 231 375 l 1,29,-1
 155 298 l 1,30,-1
 231 221 l 1,27,-1
EndSplineSet
EndChar

StartChar: divide
Encoding: 247 247 112
Width: 431
Flags: W
LayerCount: 2
Fore
SplineSet
30 203 m 1,0,1
 30 260 30 260 53.5 288 c 128,-1,2
 77 316 77 316 132 316 c 2,3,-1
 395 316 l 1,4,5
 395 259 395 259 373 231 c 128,-1,6
 351 203 351 203 303 203 c 2,7,-1
 30 203 l 1,0,1
145 444 m 0,8,9
 145 475 145 475 166 496 c 128,-1,10
 187 517 187 517 216 517 c 0,11,12
 247 517 247 517 268 496 c 128,-1,13
 289 475 289 475 289 444 c 0,14,15
 289 415 289 415 268 394 c 128,-1,16
 247 373 247 373 216 373 c 0,17,18
 187 373 187 373 166 394 c 128,-1,19
 145 415 145 415 145 444 c 0,8,9
145 71 m 0,20,21
 145 102 145 102 166 123 c 128,-1,22
 187 144 187 144 216 144 c 0,23,24
 247 144 247 144 268 123 c 128,-1,25
 289 102 289 102 289 71 c 0,26,27
 289 42 289 42 268 21 c 128,-1,28
 247 0 247 0 216 0 c 0,29,30
 187 0 187 0 166 21 c 128,-1,31
 145 42 145 42 145 71 c 0,20,21
EndSplineSet
EndChar

StartChar: atilde
Encoding: 227 227 113
Width: 452
Flags: W
LayerCount: 2
Fore
SplineSet
273 352 m 2,0,1
 273 364 273 364 271.5 375 c 128,-1,2
 270 386 270 386 265.5 394.5 c 128,-1,3
 261 403 261 403 252.5 408.5 c 128,-1,4
 244 414 244 414 229 414 c 0,5,6
 221 414 221 414 212.5 411.5 c 128,-1,7
 204 409 204 409 197 403 c 1,8,9
 193 411 193 411 192 418.5 c 128,-1,10
 191 426 191 426 191 434 c 0,11,12
 191 466 191 466 218 487 c 128,-1,13
 245 508 245 508 283 508 c 0,14,15
 343 508 343 508 375 477.5 c 128,-1,16
 407 447 407 447 407 390 c 2,17,-1
 407 0 l 1,18,19
 384 0 384 0 360.5 5.5 c 128,-1,20
 337 11 337 11 317.5 24.5 c 128,-1,21
 298 38 298 38 285.5 60.5 c 128,-1,22
 273 83 273 83 273 118 c 2,23,-1
 273 352 l 2,0,1
179 156 m 2,24,25
 179 144 179 144 180.5 133 c 128,-1,26
 182 122 182 122 186.5 113.5 c 128,-1,27
 191 105 191 105 199.5 99.5 c 128,-1,28
 208 94 208 94 223 94 c 0,29,30
 231 94 231 94 239.5 96.5 c 128,-1,31
 248 99 248 99 255 105 c 1,32,33
 259 97 259 97 260 89.5 c 128,-1,34
 261 82 261 82 261 74 c 0,35,36
 261 42 261 42 234 21 c 128,-1,37
 207 0 207 0 169 0 c 0,38,39
 109 0 109 0 77 32 c 128,-1,40
 45 64 45 64 45 112 c 2,41,-1
 45 390 l 2,42,43
 45 423 45 423 57.5 445.5 c 128,-1,44
 70 468 70 468 89.5 482 c 128,-1,45
 109 496 109 496 132.5 502 c 128,-1,46
 156 508 156 508 179 508 c 1,47,-1
 179 156 l 2,24,25
282 580 m 0,48,49
 263 583 263 583 248 588 c 128,-1,50
 233 593 233 593 218.5 597.5 c 128,-1,51
 204 602 204 602 190 605.5 c 128,-1,52
 176 609 176 609 160 609 c 0,53,54
 143 609 143 609 127 601.5 c 128,-1,55
 111 594 111 594 97 574 c 1,56,57
 78 602 78 602 78 633 c 0,58,59
 78 652 78 652 85.5 669.5 c 128,-1,60
 93 687 93 687 106.5 699.5 c 128,-1,61
 120 712 120 712 137.5 719.5 c 128,-1,62
 155 727 155 727 175 727 c 256,63,64
 195 727 195 727 210.5 723 c 128,-1,65
 226 719 226 719 240 713.5 c 128,-1,66
 254 708 254 708 267.5 704 c 128,-1,67
 281 700 281 700 297 700 c 256,68,69
 313 700 313 700 329 705.5 c 128,-1,70
 345 711 345 711 362 726 c 1,71,72
 386 690 386 690 386 659 c 0,73,74
 386 627 386 627 364 603 c 128,-1,75
 342 579 342 579 300 579 c 2,76,-1
 291 579 l 2,77,78
 287 579 287 579 282 580 c 0,48,49
EndSplineSet
EndChar

StartChar: ntilde
Encoding: 241 241 114
Width: 452
Flags: W
LayerCount: 2
Fore
SplineSet
273 352 m 2,0,1
 273 364 273 364 271.5 375 c 128,-1,2
 270 386 270 386 265.5 394.5 c 128,-1,3
 261 403 261 403 252.5 408.5 c 128,-1,4
 244 414 244 414 229 414 c 0,5,6
 221 414 221 414 212.5 411.5 c 128,-1,7
 204 409 204 409 197 403 c 1,8,9
 193 411 193 411 192 418.5 c 128,-1,10
 191 426 191 426 191 434 c 0,11,12
 191 466 191 466 220 487 c 128,-1,13
 249 508 249 508 294 508 c 0,14,15
 348 508 348 508 377.5 475.5 c 128,-1,16
 407 443 407 443 407 380 c 2,17,-1
 407 0 l 1,18,-1
 401 0 l 2,19,20
 341 0 341 0 307 28.5 c 128,-1,21
 273 57 273 57 273 120 c 2,22,-1
 273 352 l 2,0,1
45 508 m 1,23,-1
 56 508 l 2,24,25
 108 508 108 508 143.5 480 c 128,-1,26
 179 452 179 452 179 391 c 2,27,-1
 179 0 l 1,28,-1
 173 0 l 2,29,30
 150 0 150 0 127.5 6 c 128,-1,31
 105 12 105 12 86.5 25.5 c 128,-1,32
 68 39 68 39 56.5 60.5 c 128,-1,33
 45 82 45 82 45 114 c 2,34,-1
 45 508 l 1,23,-1
284 580 m 0,35,36
 265 583 265 583 250 588 c 128,-1,37
 235 593 235 593 220.5 597.5 c 128,-1,38
 206 602 206 602 192 605.5 c 128,-1,39
 178 609 178 609 162 609 c 0,40,41
 145 609 145 609 129 601.5 c 128,-1,42
 113 594 113 594 99 574 c 1,43,44
 80 602 80 602 80 633 c 0,45,46
 80 652 80 652 87.5 669.5 c 128,-1,47
 95 687 95 687 108.5 699.5 c 128,-1,48
 122 712 122 712 139.5 719.5 c 128,-1,49
 157 727 157 727 177 727 c 256,50,51
 197 727 197 727 212.5 723 c 128,-1,52
 228 719 228 719 242 713.5 c 128,-1,53
 256 708 256 708 269.5 704 c 128,-1,54
 283 700 283 700 299 700 c 256,55,56
 315 700 315 700 331 705.5 c 128,-1,57
 347 711 347 711 364 726 c 1,58,59
 388 690 388 690 388 659 c 0,60,61
 388 627 388 627 366 603 c 128,-1,62
 344 579 344 579 302 579 c 2,63,-1
 293 579 l 2,64,65
 289 579 289 579 284 580 c 0,35,36
EndSplineSet
EndChar

StartChar: otilde
Encoding: 245 245 115
Width: 452
Flags: W
LayerCount: 2
Fore
SplineSet
407 118 m 2,0,1
 407 83 407 83 394.5 60.5 c 128,-1,2
 382 38 382 38 362.5 24.5 c 128,-1,3
 343 11 343 11 319 5.5 c 128,-1,4
 295 0 295 0 273 0 c 1,5,-1
 273 352 l 2,6,7
 273 364 273 364 271.5 375 c 128,-1,8
 270 386 270 386 265.5 394.5 c 128,-1,9
 261 403 261 403 252.5 408.5 c 128,-1,10
 244 414 244 414 229 414 c 0,11,12
 221 414 221 414 212.5 411.5 c 128,-1,13
 204 409 204 409 197 403 c 1,14,15
 193 411 193 411 192 418.5 c 128,-1,16
 191 426 191 426 191 434 c 0,17,18
 191 466 191 466 218 487 c 128,-1,19
 245 508 245 508 283 508 c 0,20,21
 343 508 343 508 375 477.5 c 128,-1,22
 407 447 407 447 407 390 c 2,23,-1
 407 118 l 2,0,1
179 156 m 2,24,25
 179 144 179 144 180.5 133 c 128,-1,26
 182 122 182 122 186.5 113.5 c 128,-1,27
 191 105 191 105 199.5 99.5 c 128,-1,28
 208 94 208 94 223 94 c 0,29,30
 231 94 231 94 239.5 96.5 c 128,-1,31
 248 99 248 99 255 105 c 1,32,33
 259 97 259 97 260 89.5 c 128,-1,34
 261 82 261 82 261 74 c 0,35,36
 261 42 261 42 234 21 c 128,-1,37
 207 0 207 0 169 0 c 0,38,39
 109 0 109 0 77 32 c 128,-1,40
 45 64 45 64 45 112 c 2,41,-1
 45 390 l 2,42,43
 45 423 45 423 57.5 445.5 c 128,-1,44
 70 468 70 468 89.5 482 c 128,-1,45
 109 496 109 496 132.5 502 c 128,-1,46
 156 508 156 508 179 508 c 1,47,-1
 179 156 l 2,24,25
291 580 m 0,48,49
 272 583 272 583 257 588 c 128,-1,50
 242 593 242 593 227.5 597.5 c 128,-1,51
 213 602 213 602 199 605.5 c 128,-1,52
 185 609 185 609 169 609 c 0,53,54
 152 609 152 609 136 601.5 c 128,-1,55
 120 594 120 594 106 574 c 1,56,57
 87 602 87 602 87 633 c 0,58,59
 87 652 87 652 94.5 669.5 c 128,-1,60
 102 687 102 687 115.5 699.5 c 128,-1,61
 129 712 129 712 146.5 719.5 c 128,-1,62
 164 727 164 727 184 727 c 256,63,64
 204 727 204 727 219.5 723 c 128,-1,65
 235 719 235 719 249 713.5 c 128,-1,66
 263 708 263 708 276.5 704 c 128,-1,67
 290 700 290 700 306 700 c 256,68,69
 322 700 322 700 338 705.5 c 128,-1,70
 354 711 354 711 371 726 c 1,71,72
 395 690 395 690 395 659 c 0,73,74
 395 627 395 627 373 603 c 128,-1,75
 351 579 351 579 309 579 c 2,76,-1
 300 579 l 2,77,78
 296 579 296 579 291 580 c 0,48,49
EndSplineSet
EndChar

StartChar: cedilla
Encoding: 184 184 116
Width: 318
Flags: W
LayerCount: 2
Fore
SplineSet
258 -82 m 2,0,1
 258 -106 258 -106 253 -128.5 c 128,-1,2
 248 -151 248 -151 236 -168.5 c 128,-1,3
 224 -186 224 -186 203.5 -197 c 128,-1,4
 183 -208 183 -208 152 -208 c 0,5,6
 104 -208 104 -208 82 -183.5 c 128,-1,7
 60 -159 60 -159 60 -127 c 0,8,9
 60 -119 60 -119 62 -108 c 128,-1,10
 64 -97 64 -97 66 -89 c 1,11,12
 69 -98 69 -98 78.5 -102.5 c 128,-1,13
 88 -107 88 -107 96 -107 c 0,14,15
 117 -107 117 -107 125 -94.5 c 128,-1,16
 133 -82 133 -82 133 -62 c 2,17,-1
 133 -12 l 1,18,19
 145 -17 145 -17 165.5 -18.5 c 128,-1,20
 186 -20 186 -20 208 -20 c 0,21,22
 237 -20 237 -20 258 -17 c 1,23,-1
 258 -82 l 2,0,1
EndSplineSet
EndChar

StartChar: agrave
Encoding: 224 224 117
Width: 452
Flags: W
LayerCount: 2
Fore
SplineSet
273 352 m 2,0,1
 273 364 273 364 271.5 375 c 128,-1,2
 270 386 270 386 265.5 394.5 c 128,-1,3
 261 403 261 403 252.5 408.5 c 128,-1,4
 244 414 244 414 229 414 c 0,5,6
 221 414 221 414 212.5 411.5 c 128,-1,7
 204 409 204 409 197 403 c 1,8,9
 193 411 193 411 192 418.5 c 128,-1,10
 191 426 191 426 191 434 c 0,11,12
 191 466 191 466 218 487 c 128,-1,13
 245 508 245 508 283 508 c 0,14,15
 343 508 343 508 375 477.5 c 128,-1,16
 407 447 407 447 407 390 c 2,17,-1
 407 0 l 1,18,19
 384 0 384 0 360.5 5.5 c 128,-1,20
 337 11 337 11 317.5 24.5 c 128,-1,21
 298 38 298 38 285.5 60.5 c 128,-1,22
 273 83 273 83 273 118 c 2,23,-1
 273 352 l 2,0,1
179 156 m 2,24,25
 179 144 179 144 180.5 133 c 128,-1,26
 182 122 182 122 186.5 113.5 c 128,-1,27
 191 105 191 105 199.5 99.5 c 128,-1,28
 208 94 208 94 223 94 c 0,29,30
 231 94 231 94 239.5 96.5 c 128,-1,31
 248 99 248 99 255 105 c 1,32,33
 259 97 259 97 260 89.5 c 128,-1,34
 261 82 261 82 261 74 c 0,35,36
 261 42 261 42 234 21 c 128,-1,37
 207 0 207 0 169 0 c 0,38,39
 109 0 109 0 77 32 c 128,-1,40
 45 64 45 64 45 112 c 2,41,-1
 45 390 l 2,42,43
 45 423 45 423 57.5 445.5 c 128,-1,44
 70 468 70 468 89.5 482 c 128,-1,45
 109 496 109 496 132.5 502 c 128,-1,46
 156 508 156 508 179 508 c 1,47,-1
 179 156 l 2,24,25
239 566 m 2,48,49
 203 566 203 566 182 579.5 c 128,-1,50
 161 593 161 593 151 614 c 128,-1,51
 141 635 141 635 138.5 660 c 128,-1,52
 136 685 136 685 136 708 c 1,53,-1
 212 708 l 2,54,55
 248 708 248 708 268.5 694 c 128,-1,56
 289 680 289 680 299.5 659 c 128,-1,57
 310 638 310 638 312.5 613 c 128,-1,58
 315 588 315 588 315 566 c 1,59,-1
 239 566 l 2,48,49
EndSplineSet
EndChar

StartChar: aacute
Encoding: 225 225 118
Width: 452
Flags: W
LayerCount: 2
Fore
SplineSet
273 352 m 2,0,1
 273 364 273 364 271.5 375 c 128,-1,2
 270 386 270 386 265.5 394.5 c 128,-1,3
 261 403 261 403 252.5 408.5 c 128,-1,4
 244 414 244 414 229 414 c 0,5,6
 221 414 221 414 212.5 411.5 c 128,-1,7
 204 409 204 409 197 403 c 1,8,9
 193 411 193 411 192 418.5 c 128,-1,10
 191 426 191 426 191 434 c 0,11,12
 191 466 191 466 218 487 c 128,-1,13
 245 508 245 508 283 508 c 0,14,15
 343 508 343 508 375 477.5 c 128,-1,16
 407 447 407 447 407 390 c 2,17,-1
 407 0 l 1,18,19
 384 0 384 0 360.5 5.5 c 128,-1,20
 337 11 337 11 317.5 24.5 c 128,-1,21
 298 38 298 38 285.5 60.5 c 128,-1,22
 273 83 273 83 273 118 c 2,23,-1
 273 352 l 2,0,1
179 156 m 2,24,25
 179 144 179 144 180.5 133 c 128,-1,26
 182 122 182 122 186.5 113.5 c 128,-1,27
 191 105 191 105 199.5 99.5 c 128,-1,28
 208 94 208 94 223 94 c 0,29,30
 231 94 231 94 239.5 96.5 c 128,-1,31
 248 99 248 99 255 105 c 1,32,33
 259 97 259 97 260 89.5 c 128,-1,34
 261 82 261 82 261 74 c 0,35,36
 261 42 261 42 234 21 c 128,-1,37
 207 0 207 0 169 0 c 0,38,39
 109 0 109 0 77 32 c 128,-1,40
 45 64 45 64 45 112 c 2,41,-1
 45 390 l 2,42,43
 45 423 45 423 57.5 445.5 c 128,-1,44
 70 468 70 468 89.5 482 c 128,-1,45
 109 496 109 496 132.5 502 c 128,-1,46
 156 508 156 508 179 508 c 1,47,-1
 179 156 l 2,24,25
136 566 m 1,48,49
 136 588 136 588 138.5 613 c 128,-1,50
 141 638 141 638 151.5 659 c 128,-1,51
 162 680 162 680 182.5 694 c 128,-1,52
 203 708 203 708 239 708 c 2,53,-1
 315 708 l 1,54,55
 315 685 315 685 312.5 660 c 128,-1,56
 310 635 310 635 300 614 c 128,-1,57
 290 593 290 593 269 579.5 c 128,-1,58
 248 566 248 566 212 566 c 2,59,-1
 136 566 l 1,48,49
EndSplineSet
EndChar

StartChar: egrave
Encoding: 232 232 119
Width: 442
Flags: W
LayerCount: 2
Fore
SplineSet
179 0 m 1,0,-1
 169 0 l 2,1,2
 146 0 146 0 124 5.5 c 128,-1,3
 102 11 102 11 84.5 24.5 c 128,-1,4
 67 38 67 38 56 60 c 128,-1,5
 45 82 45 82 45 114 c 2,6,-1
 45 383 l 2,7,8
 45 438 45 438 71.5 473 c 128,-1,9
 98 508 98 508 158 508 c 0,10,11
 198 508 198 508 224 487.5 c 128,-1,12
 250 467 250 467 250 422 c 0,13,14
 250 407 250 407 246 400 c 1,15,16
 232 412 232 412 216 412 c 0,17,18
 194 412 194 412 186.5 397 c 128,-1,19
 179 382 179 382 179 365 c 2,20,-1
 179 0 l 1,0,-1
268 507 m 1,21,22
 273 508 273 508 278 508 c 2,23,-1
 288 508 l 2,24,25
 342 508 342 508 372 480.5 c 128,-1,26
 402 453 402 453 402 402 c 2,27,-1
 402 347 l 2,28,29
 402 279 402 279 368 246 c 128,-1,30
 334 213 334 213 285 213 c 2,31,-1
 278 213 l 1,32,33
 240 215 240 215 216.5 238.5 c 128,-1,34
 193 262 193 262 193 295 c 0,35,36
 193 300 193 300 193.5 304 c 128,-1,37
 194 308 194 308 197 316 c 1,38,39
 205 308 205 308 211 304 c 128,-1,40
 217 300 217 300 231 300 c 0,41,42
 254 300 254 300 261 316.5 c 128,-1,43
 268 333 268 333 268 355 c 2,44,-1
 268 507 l 1,21,22
398 97 m 0,45,46
 398 69 398 69 388.5 50.5 c 128,-1,47
 379 32 379 32 364 20.5 c 128,-1,48
 349 9 349 9 331 4.5 c 128,-1,49
 313 0 313 0 296 0 c 0,50,51
 245 0 245 0 224 25 c 128,-1,52
 203 50 203 50 203 81 c 0,53,54
 203 86 203 86 203.5 93 c 128,-1,55
 204 100 204 100 208 108 c 1,56,57
 221 96 221 96 238 96 c 1,58,59
 262 98 262 98 266 112 c 128,-1,60
 270 126 270 126 270 147 c 2,61,-1
 270 184 l 1,62,63
 285 188 285 188 306 188 c 0,64,65
 332 188 332 188 349.5 180 c 128,-1,66
 367 172 367 172 378 159 c 128,-1,67
 389 146 389 146 393.5 129.5 c 128,-1,68
 398 113 398 113 398 97 c 0,45,46
232 566 m 2,69,70
 196 566 196 566 175 579.5 c 128,-1,71
 154 593 154 593 144 614 c 128,-1,72
 134 635 134 635 131.5 660 c 128,-1,73
 129 685 129 685 129 708 c 1,74,-1
 205 708 l 2,75,76
 241 708 241 708 261.5 694 c 128,-1,77
 282 680 282 680 292.5 659 c 128,-1,78
 303 638 303 638 305.5 613 c 128,-1,79
 308 588 308 588 308 566 c 1,80,-1
 232 566 l 2,69,70
EndSplineSet
EndChar

StartChar: eacute
Encoding: 233 233 120
Width: 442
Flags: W
LayerCount: 2
Fore
SplineSet
179 0 m 1,0,-1
 169 0 l 2,1,2
 146 0 146 0 124 5.5 c 128,-1,3
 102 11 102 11 84.5 24.5 c 128,-1,4
 67 38 67 38 56 60 c 128,-1,5
 45 82 45 82 45 114 c 2,6,-1
 45 383 l 2,7,8
 45 438 45 438 71.5 473 c 128,-1,9
 98 508 98 508 158 508 c 0,10,11
 198 508 198 508 224 487.5 c 128,-1,12
 250 467 250 467 250 422 c 0,13,14
 250 407 250 407 246 400 c 1,15,16
 232 412 232 412 216 412 c 0,17,18
 194 412 194 412 186.5 397 c 128,-1,19
 179 382 179 382 179 365 c 2,20,-1
 179 0 l 1,0,-1
268 507 m 1,21,22
 273 508 273 508 278 508 c 2,23,-1
 288 508 l 2,24,25
 342 508 342 508 372 480.5 c 128,-1,26
 402 453 402 453 402 402 c 2,27,-1
 402 347 l 2,28,29
 402 279 402 279 368 246 c 128,-1,30
 334 213 334 213 285 213 c 2,31,-1
 278 213 l 1,32,33
 240 215 240 215 216.5 238.5 c 128,-1,34
 193 262 193 262 193 295 c 0,35,36
 193 300 193 300 193.5 304 c 128,-1,37
 194 308 194 308 197 316 c 1,38,39
 205 308 205 308 211 304 c 128,-1,40
 217 300 217 300 231 300 c 0,41,42
 254 300 254 300 261 316.5 c 128,-1,43
 268 333 268 333 268 355 c 2,44,-1
 268 507 l 1,21,22
398 97 m 0,45,46
 398 69 398 69 388.5 50.5 c 128,-1,47
 379 32 379 32 364 20.5 c 128,-1,48
 349 9 349 9 331 4.5 c 128,-1,49
 313 0 313 0 296 0 c 0,50,51
 245 0 245 0 224 25 c 128,-1,52
 203 50 203 50 203 81 c 0,53,54
 203 86 203 86 203.5 93 c 128,-1,55
 204 100 204 100 208 108 c 1,56,57
 221 96 221 96 238 96 c 1,58,59
 262 98 262 98 266 112 c 128,-1,60
 270 126 270 126 270 147 c 2,61,-1
 270 184 l 1,62,63
 285 188 285 188 306 188 c 0,64,65
 332 188 332 188 349.5 180 c 128,-1,66
 367 172 367 172 378 159 c 128,-1,67
 389 146 389 146 393.5 129.5 c 128,-1,68
 398 113 398 113 398 97 c 0,45,46
139 566 m 1,69,70
 139 588 139 588 141.5 613 c 128,-1,71
 144 638 144 638 154.5 659 c 128,-1,72
 165 680 165 680 185.5 694 c 128,-1,73
 206 708 206 708 242 708 c 2,74,-1
 318 708 l 1,75,76
 318 685 318 685 315.5 660 c 128,-1,77
 313 635 313 635 303 614 c 128,-1,78
 293 593 293 593 272 579.5 c 128,-1,79
 251 566 251 566 215 566 c 2,80,-1
 139 566 l 1,69,70
EndSplineSet
EndChar

StartChar: igrave
Encoding: 236 236 121
Width: 244
Flags: W
LayerCount: 2
Fore
SplineSet
65 508 m 1,0,-1
 76 508 l 2,1,2
 128 508 128 508 163.5 480 c 128,-1,3
 199 452 199 452 199 391 c 2,4,-1
 199 0 l 1,5,-1
 193 0 l 2,6,7
 170 0 170 0 147.5 6 c 128,-1,8
 125 12 125 12 106.5 25.5 c 128,-1,9
 88 39 88 39 76.5 60.5 c 128,-1,10
 65 82 65 82 65 114 c 2,11,-1
 65 508 l 1,0,-1
134 566 m 2,12,13
 99 566 99 566 80 579 c 128,-1,14
 61 592 61 592 52.5 611.5 c 128,-1,15
 44 631 44 631 42.5 655 c 128,-1,16
 41 679 41 679 41 701 c 2,17,-1
 41 708 l 1,18,-1
 87 708 l 2,19,20
 124 708 124 708 144.5 694 c 128,-1,21
 165 680 165 680 174.5 659 c 128,-1,22
 184 638 184 638 185.5 613 c 128,-1,23
 187 588 187 588 187 566 c 1,24,-1
 134 566 l 2,12,13
EndSplineSet
EndChar

StartChar: iacute
Encoding: 237 237 122
Width: 235
Flags: W
LayerCount: 2
Fore
SplineSet
40 508 m 1,0,-1
 51 508 l 2,1,2
 103 508 103 508 138.5 480 c 128,-1,3
 174 452 174 452 174 391 c 2,4,-1
 174 0 l 1,5,-1
 168 0 l 2,6,7
 145 0 145 0 122.5 6 c 128,-1,8
 100 12 100 12 81.5 25.5 c 128,-1,9
 63 39 63 39 51.5 60.5 c 128,-1,10
 40 82 40 82 40 114 c 2,11,-1
 40 508 l 1,0,-1
43 566 m 1,12,13
 43 588 43 588 44.5 613 c 128,-1,14
 46 638 46 638 55.5 659 c 128,-1,15
 65 680 65 680 85 694 c 128,-1,16
 105 708 105 708 143 708 c 2,17,-1
 189 708 l 1,18,-1
 189 701 l 2,19,20
 189 679 189 679 187.5 655 c 128,-1,21
 186 631 186 631 177.5 611.5 c 128,-1,22
 169 592 169 592 150 579 c 128,-1,23
 131 566 131 566 96 566 c 2,24,-1
 43 566 l 1,12,13
EndSplineSet
EndChar

StartChar: ugrave
Encoding: 249 249 123
Width: 452
Flags: W
LayerCount: 2
Fore
SplineSet
179 158 m 2,0,1
 179 146 179 146 180.5 135 c 128,-1,2
 182 124 182 124 186.5 115.5 c 128,-1,3
 191 107 191 107 199.5 101.5 c 128,-1,4
 208 96 208 96 223 96 c 0,5,6
 231 96 231 96 239.5 98.5 c 128,-1,7
 248 101 248 101 255 107 c 1,8,9
 259 99 259 99 260 91.5 c 128,-1,10
 261 84 261 84 261 76 c 0,11,12
 261 44 261 44 235 22 c 128,-1,13
 209 0 209 0 164 0 c 0,14,15
 110 0 110 0 77.5 32 c 128,-1,16
 45 64 45 64 45 130 c 2,17,-1
 45 507 l 1,18,-1
 51 507 l 2,19,20
 111 507 111 507 145 478.5 c 128,-1,21
 179 450 179 450 179 387 c 2,22,-1
 179 158 l 2,0,1
407 2 m 1,23,-1
 396 2 l 2,24,25
 344 2 344 2 308.5 29.5 c 128,-1,26
 273 57 273 57 273 119 c 2,27,-1
 273 507 l 1,28,-1
 279 507 l 2,29,30
 301 507 301 507 324 501 c 128,-1,31
 347 495 347 495 365.5 481.5 c 128,-1,32
 384 468 384 468 395.5 446 c 128,-1,33
 407 424 407 424 407 393 c 2,34,-1
 407 2 l 1,23,-1
212 566 m 2,35,36
 176 566 176 566 155 579.5 c 128,-1,37
 134 593 134 593 124 614 c 128,-1,38
 114 635 114 635 111.5 660 c 128,-1,39
 109 685 109 685 109 708 c 1,40,-1
 185 708 l 2,41,42
 221 708 221 708 241.5 694 c 128,-1,43
 262 680 262 680 272.5 659 c 128,-1,44
 283 638 283 638 285.5 613 c 128,-1,45
 288 588 288 588 288 566 c 1,46,-1
 212 566 l 2,35,36
EndSplineSet
EndChar

StartChar: uacute
Encoding: 250 250 124
Width: 452
Flags: W
LayerCount: 2
Fore
SplineSet
179 158 m 2,0,1
 179 146 179 146 180.5 135 c 128,-1,2
 182 124 182 124 186.5 115.5 c 128,-1,3
 191 107 191 107 199.5 101.5 c 128,-1,4
 208 96 208 96 223 96 c 0,5,6
 231 96 231 96 239.5 98.5 c 128,-1,7
 248 101 248 101 255 107 c 1,8,9
 259 99 259 99 260 91.5 c 128,-1,10
 261 84 261 84 261 76 c 0,11,12
 261 44 261 44 235 22 c 128,-1,13
 209 0 209 0 164 0 c 0,14,15
 110 0 110 0 77.5 32 c 128,-1,16
 45 64 45 64 45 130 c 2,17,-1
 45 507 l 1,18,-1
 51 507 l 2,19,20
 111 507 111 507 145 478.5 c 128,-1,21
 179 450 179 450 179 387 c 2,22,-1
 179 158 l 2,0,1
407 2 m 1,23,-1
 396 2 l 2,24,25
 344 2 344 2 308.5 29.5 c 128,-1,26
 273 57 273 57 273 119 c 2,27,-1
 273 507 l 1,28,-1
 279 507 l 2,29,30
 301 507 301 507 324 501 c 128,-1,31
 347 495 347 495 365.5 481.5 c 128,-1,32
 384 468 384 468 395.5 446 c 128,-1,33
 407 424 407 424 407 393 c 2,34,-1
 407 2 l 1,23,-1
139 566 m 1,35,36
 139 588 139 588 141.5 613 c 128,-1,37
 144 638 144 638 154.5 659 c 128,-1,38
 165 680 165 680 185.5 694 c 128,-1,39
 206 708 206 708 242 708 c 2,40,-1
 318 708 l 1,41,42
 318 685 318 685 315.5 660 c 128,-1,43
 313 635 313 635 303 614 c 128,-1,44
 293 593 293 593 272 579.5 c 128,-1,45
 251 566 251 566 215 566 c 2,46,-1
 139 566 l 1,35,36
EndSplineSet
EndChar

StartChar: ae
Encoding: 230 230 125
Width: 665
Flags: W
LayerCount: 2
Fore
SplineSet
273 352 m 2,0,1
 273 364 273 364 271.5 375 c 128,-1,2
 270 386 270 386 265.5 394.5 c 128,-1,3
 261 403 261 403 252.5 408.5 c 128,-1,4
 244 414 244 414 229 414 c 0,5,6
 221 414 221 414 212.5 411.5 c 128,-1,7
 204 409 204 409 197 403 c 1,8,9
 193 411 193 411 192.5 422 c 128,-1,10
 192 433 192 433 192 442 c 0,11,12
 193 478 193 478 232 501.5 c 128,-1,13
 271 525 271 525 334 525 c 0,14,15
 358 525 358 525 383.5 520 c 128,-1,16
 409 515 409 515 430 503.5 c 128,-1,17
 451 492 451 492 464.5 472.5 c 128,-1,18
 478 453 478 453 478 425 c 0,19,20
 478 419 478 419 477 412 c 128,-1,21
 476 405 476 405 474 400 c 1,22,23
 467 406 467 406 460.5 409 c 128,-1,24
 454 412 454 412 444 412 c 0,25,26
 420 412 420 412 413.5 397 c 128,-1,27
 407 382 407 382 407 365 c 2,28,-1
 407 0 l 1,29,-1
 398 0 l 2,30,31
 375 0 375 0 352.5 5.5 c 128,-1,32
 330 11 330 11 312.5 24.5 c 128,-1,33
 295 38 295 38 284 60 c 128,-1,34
 273 82 273 82 273 114 c 2,35,-1
 273 352 l 2,0,1
179 156 m 2,36,37
 179 144 179 144 180.5 133 c 128,-1,38
 182 122 182 122 186.5 113.5 c 128,-1,39
 191 105 191 105 199.5 99.5 c 128,-1,40
 208 94 208 94 223 94 c 0,41,42
 231 94 231 94 239.5 96.5 c 128,-1,43
 248 99 248 99 255 105 c 1,44,45
 259 97 259 97 260 88 c 128,-1,46
 261 79 261 79 261 74 c 0,47,48
 261 42 261 42 234 21 c 128,-1,49
 207 0 207 0 169 0 c 0,50,51
 109 0 109 0 77 32.5 c 128,-1,52
 45 65 45 65 45 128 c 2,53,-1
 45 390 l 2,54,55
 45 423 45 423 57.5 445.5 c 128,-1,56
 70 468 70 468 89.5 482 c 128,-1,57
 109 496 109 496 132.5 502 c 128,-1,58
 156 508 156 508 179 508 c 1,59,-1
 179 156 l 2,36,37
496 507 m 1,60,61
 501 508 501 508 506 508 c 2,62,-1
 516 508 l 2,63,64
 570 508 570 508 600 480.5 c 128,-1,65
 630 453 630 453 630 402 c 2,66,-1
 630 327 l 2,67,68
 630 270 630 270 597.5 241.5 c 128,-1,69
 565 213 565 213 516 213 c 0,70,71
 471 213 471 213 446 235.5 c 128,-1,72
 421 258 421 258 421 291 c 0,73,74
 421 296 421 296 421.5 302 c 128,-1,75
 422 308 422 308 425 316 c 1,76,77
 433 308 433 308 439 304 c 128,-1,78
 445 300 445 300 459 300 c 0,79,80
 482 300 482 300 489 316.5 c 128,-1,81
 496 333 496 333 496 355 c 2,82,-1
 496 507 l 1,60,61
621 96 m 0,83,84
 621 79 621 79 616 62 c 128,-1,85
 611 45 611 45 600 31.5 c 128,-1,86
 589 18 589 18 571 9 c 128,-1,87
 553 0 553 0 527 0 c 0,88,89
 502 0 502 0 483 7.5 c 128,-1,90
 464 15 464 15 451 27 c 128,-1,91
 438 39 438 39 431.5 54 c 128,-1,92
 425 69 425 69 425 85 c 0,93,94
 425 93 425 93 425.5 96.5 c 128,-1,95
 426 100 426 100 429 108 c 1,96,97
 442 96 442 96 461 96 c 0,98,99
 476 96 476 96 486 105.5 c 128,-1,100
 496 115 496 115 496 134 c 2,101,-1
 496 181 l 1,102,103
 501 182 501 182 507 182.5 c 128,-1,104
 513 183 513 183 519 183 c 0,105,106
 536 183 536 183 554 179 c 128,-1,107
 572 175 572 175 587 165 c 128,-1,108
 602 155 602 155 611.5 138 c 128,-1,109
 621 121 621 121 621 96 c 0,83,84
EndSplineSet
EndChar

StartChar: germandbls
Encoding: 223 223 126
Width: 457
Flags: W
LayerCount: 2
Fore
SplineSet
194 0 m 1,0,-1
 178 0 l 2,1,2
 153 0 153 0 130 5.5 c 128,-1,3
 107 11 107 11 89 24.5 c 128,-1,4
 71 38 71 38 60.5 61.5 c 128,-1,5
 50 85 50 85 50 121 c 2,6,-1
 50 597 l 2,7,8
 50 657 50 657 81 691.5 c 128,-1,9
 112 726 112 726 172 726 c 0,10,11
 188 726 188 726 205 721.5 c 128,-1,12
 222 717 222 717 236.5 708 c 128,-1,13
 251 699 251 699 260 685 c 128,-1,14
 269 671 269 671 269 652 c 0,15,16
 269 632 269 632 263 616 c 1,17,18
 259 622 259 622 251.5 630 c 128,-1,19
 244 638 244 638 229 638 c 0,20,21
 206 638 206 638 200 624.5 c 128,-1,22
 194 611 194 611 194 595 c 2,23,-1
 194 0 l 1,0,-1
265 346 m 1,24,25
 298 346 298 346 324.5 340.5 c 128,-1,26
 351 335 351 335 369.5 321.5 c 128,-1,27
 388 308 388 308 398.5 284.5 c 128,-1,28
 409 261 409 261 409 225 c 2,29,-1
 409 125 l 2,30,31
 409 65 409 65 380 30.5 c 128,-1,32
 351 -4 351 -4 291 -4 c 0,33,34
 265 -4 265 -4 249 3 c 128,-1,35
 233 10 233 10 224 20 c 128,-1,36
 215 30 215 30 211.5 40.5 c 128,-1,37
 208 51 208 51 208 58 c 0,38,39
 208 91 208 91 221 104 c 1,40,41
 228 86 228 86 244 86 c 0,42,43
 259 86 259 86 262 98.5 c 128,-1,44
 265 111 265 111 265 127 c 2,45,-1
 265 346 l 1,24,25
265 615 m 1,46,47
 273 617 273 617 281.5 617.5 c 128,-1,48
 290 618 290 618 295 618 c 0,49,50
 315 618 315 618 336 612 c 128,-1,51
 357 606 357 606 374.5 592.5 c 128,-1,52
 392 579 392 579 404 555.5 c 128,-1,53
 416 532 416 532 417 498 c 1,54,-1
 417 477 l 2,55,56
 417 441 417 441 404 417 c 128,-1,57
 391 393 391 393 371.5 379 c 128,-1,58
 352 365 352 365 328.5 359 c 128,-1,59
 305 353 305 353 285 353 c 2,60,-1
 275 353 l 2,61,62
 270 353 270 353 265 354 c 1,63,-1
 265 615 l 1,46,47
EndSplineSet
EndChar

StartChar: paragraph
Encoding: 182 182 127
Width: 561
Flags: W
LayerCount: 2
Fore
SplineSet
359 0 m 1,0,-1
 349 0 l 2,1,2
 323 0 323 0 299 5 c 128,-1,3
 275 10 275 10 256.5 23 c 128,-1,4
 238 36 238 36 226.5 59 c 128,-1,5
 215 82 215 82 215 119 c 2,6,-1
 215 726 l 1,7,-1
 229 726 l 2,8,9
 251 726 251 726 274 720.5 c 128,-1,10
 297 715 297 715 316 701.5 c 128,-1,11
 335 688 335 688 347 665 c 128,-1,12
 359 642 359 642 359 606 c 2,13,-1
 359 0 l 1,0,-1
184 357 m 1,14,-1
 178 357 l 2,15,16
 154 357 154 357 129.5 366.5 c 128,-1,17
 105 376 105 376 85 395.5 c 128,-1,18
 65 415 65 415 52.5 446 c 128,-1,19
 40 477 40 477 40 521 c 2,20,-1
 40 567 l 2,21,22
 40 610 40 610 53.5 640.5 c 128,-1,23
 67 671 67 671 88 689.5 c 128,-1,24
 109 708 109 708 134.5 716.5 c 128,-1,25
 160 725 160 725 184 725 c 1,26,-1
 184 357 l 1,14,-1
501 0 m 1,27,-1
 496 0 l 2,28,29
 451 0 451 0 419 30.5 c 128,-1,30
 387 61 387 61 387 129 c 2,31,-1
 387 726 l 1,32,-1
 392 726 l 2,33,34
 437 726 437 726 469 695.5 c 128,-1,35
 501 665 501 665 501 597 c 2,36,-1
 501 0 l 1,27,-1
EndSplineSet
EndChar

StartChar: ograve
Encoding: 242 242 128
Width: 452
Flags: W
LayerCount: 2
Fore
SplineSet
179 156 m 2,0,1
 179 144 179 144 180.5 133 c 128,-1,2
 182 122 182 122 186.5 113.5 c 128,-1,3
 191 105 191 105 199.5 99.5 c 128,-1,4
 208 94 208 94 223 94 c 0,5,6
 231 94 231 94 239.5 96.5 c 128,-1,7
 248 99 248 99 255 105 c 1,8,9
 259 97 259 97 260 89.5 c 128,-1,10
 261 82 261 82 261 74 c 0,11,12
 261 42 261 42 234 21 c 128,-1,13
 207 0 207 0 169 0 c 0,14,15
 109 0 109 0 77 32 c 128,-1,16
 45 64 45 64 45 112 c 2,17,-1
 45 390 l 2,18,19
 45 423 45 423 57.5 445.5 c 128,-1,20
 70 468 70 468 89.5 482 c 128,-1,21
 109 496 109 496 132.5 502 c 128,-1,22
 156 508 156 508 179 508 c 1,23,-1
 179 156 l 2,0,1
407 118 m 2,24,25
 407 83 407 83 394.5 60.5 c 128,-1,26
 382 38 382 38 362.5 24.5 c 128,-1,27
 343 11 343 11 319 5.5 c 128,-1,28
 295 0 295 0 273 0 c 1,29,-1
 273 352 l 2,30,31
 273 364 273 364 271.5 375 c 128,-1,32
 270 386 270 386 265.5 394.5 c 128,-1,33
 261 403 261 403 252.5 408.5 c 128,-1,34
 244 414 244 414 229 414 c 0,35,36
 221 414 221 414 212.5 411.5 c 128,-1,37
 204 409 204 409 197 403 c 1,38,39
 193 411 193 411 192 418.5 c 128,-1,40
 191 426 191 426 191 434 c 0,41,42
 191 466 191 466 218 487 c 128,-1,43
 245 508 245 508 283 508 c 0,44,45
 343 508 343 508 375 477.5 c 128,-1,46
 407 447 407 447 407 390 c 2,47,-1
 407 118 l 2,24,25
245 566 m 2,48,49
 209 566 209 566 188 579.5 c 128,-1,50
 167 593 167 593 157 614 c 128,-1,51
 147 635 147 635 144.5 660 c 128,-1,52
 142 685 142 685 142 708 c 1,53,-1
 218 708 l 2,54,55
 254 708 254 708 274.5 694 c 128,-1,56
 295 680 295 680 305.5 659 c 128,-1,57
 316 638 316 638 318.5 613 c 128,-1,58
 321 588 321 588 321 566 c 1,59,-1
 245 566 l 2,48,49
EndSplineSet
EndChar

StartChar: oacute
Encoding: 243 243 129
Width: 452
Flags: W
LayerCount: 2
Fore
SplineSet
179 156 m 2,0,1
 179 144 179 144 180.5 133 c 128,-1,2
 182 122 182 122 186.5 113.5 c 128,-1,3
 191 105 191 105 199.5 99.5 c 128,-1,4
 208 94 208 94 223 94 c 0,5,6
 231 94 231 94 239.5 96.5 c 128,-1,7
 248 99 248 99 255 105 c 1,8,9
 259 97 259 97 260 89.5 c 128,-1,10
 261 82 261 82 261 74 c 0,11,12
 261 42 261 42 234 21 c 128,-1,13
 207 0 207 0 169 0 c 0,14,15
 109 0 109 0 77 32 c 128,-1,16
 45 64 45 64 45 112 c 2,17,-1
 45 390 l 2,18,19
 45 423 45 423 57.5 445.5 c 128,-1,20
 70 468 70 468 89.5 482 c 128,-1,21
 109 496 109 496 132.5 502 c 128,-1,22
 156 508 156 508 179 508 c 1,23,-1
 179 156 l 2,0,1
407 118 m 2,24,25
 407 83 407 83 394.5 60.5 c 128,-1,26
 382 38 382 38 362.5 24.5 c 128,-1,27
 343 11 343 11 319 5.5 c 128,-1,28
 295 0 295 0 273 0 c 1,29,-1
 273 352 l 2,30,31
 273 364 273 364 271.5 375 c 128,-1,32
 270 386 270 386 265.5 394.5 c 128,-1,33
 261 403 261 403 252.5 408.5 c 128,-1,34
 244 414 244 414 229 414 c 0,35,36
 221 414 221 414 212.5 411.5 c 128,-1,37
 204 409 204 409 197 403 c 1,38,39
 193 411 193 411 192 418.5 c 128,-1,40
 191 426 191 426 191 434 c 0,41,42
 191 466 191 466 218 487 c 128,-1,43
 245 508 245 508 283 508 c 0,44,45
 343 508 343 508 375 477.5 c 128,-1,46
 407 447 407 447 407 390 c 2,47,-1
 407 118 l 2,24,25
156 566 m 1,48,49
 156 588 156 588 158.5 613 c 128,-1,50
 161 638 161 638 171.5 659 c 128,-1,51
 182 680 182 680 202.5 694 c 128,-1,52
 223 708 223 708 259 708 c 2,53,-1
 335 708 l 1,54,55
 335 685 335 685 332.5 660 c 128,-1,56
 330 635 330 635 320 614 c 128,-1,57
 310 593 310 593 289 579.5 c 128,-1,58
 268 566 268 566 232 566 c 2,59,-1
 156 566 l 1,48,49
EndSplineSet
EndChar

StartChar: backslash
Encoding: 92 92 130
Width: 426
Flags: W
LayerCount: 2
Fore
SplineSet
194 366 m 1,0,-1
 182 366 l 2,1,2
 159 366 159 366 136 371 c 128,-1,3
 113 376 113 376 93.5 389.5 c 128,-1,4
 74 403 74 403 62 426.5 c 128,-1,5
 50 450 50 450 50 486 c 2,6,-1
 50 642 l 2,7,8
 50 678 50 678 62 701.5 c 128,-1,9
 74 725 74 725 93.5 738.5 c 128,-1,10
 113 752 113 752 136 757 c 128,-1,11
 159 762 159 762 182 762 c 2,12,-1
 194 762 l 1,13,-1
 194 366 l 1,0,-1
232 396 m 1,14,-1
 244 396 l 2,15,16
 266 396 266 396 289.5 391 c 128,-1,17
 313 386 313 386 332.5 372.5 c 128,-1,18
 352 359 352 359 364 335.5 c 128,-1,19
 376 312 376 312 376 276 c 2,20,-1
 376 120 l 2,21,22
 376 84 376 84 364 60.5 c 128,-1,23
 352 37 352 37 332.5 23.5 c 128,-1,24
 313 10 313 10 289.5 5 c 128,-1,25
 266 0 266 0 244 0 c 2,26,-1
 232 0 l 1,27,-1
 232 396 l 1,14,-1
EndSplineSet
EndChar

StartChar: slash
Encoding: 47 47 131
Width: 446
Flags: W
LayerCount: 2
Fore
SplineSet
242 762 m 1,0,-1
 254 762 l 2,1,2
 276 762 276 762 299.5 757 c 128,-1,3
 323 752 323 752 342.5 738.5 c 128,-1,4
 362 725 362 725 374 701.5 c 128,-1,5
 386 678 386 678 386 642 c 2,6,-1
 386 486 l 2,7,8
 386 450 386 450 374 426.5 c 128,-1,9
 362 403 362 403 342.5 389.5 c 128,-1,10
 323 376 323 376 299.5 371 c 128,-1,11
 276 366 276 366 254 366 c 2,12,-1
 242 366 l 1,13,-1
 242 762 l 1,0,-1
204 0 m 1,14,-1
 192 0 l 2,15,16
 169 0 169 0 146 5 c 128,-1,17
 123 10 123 10 103.5 23.5 c 128,-1,18
 84 37 84 37 72 60.5 c 128,-1,19
 60 84 60 84 60 120 c 2,20,-1
 60 276 l 2,21,22
 60 312 60 312 72 335.5 c 128,-1,23
 84 359 84 359 103.5 372.5 c 128,-1,24
 123 386 123 386 146 391 c 128,-1,25
 169 396 169 396 192 396 c 2,26,-1
 204 396 l 1,27,-1
 204 0 l 1,14,-1
EndSplineSet
EndChar

StartChar: braceright
Encoding: 125 125 132
Width: 383
Flags: W
LayerCount: 2
Fore
SplineSet
219 361 m 1,0,-1
 223 361 l 2,1,2
 245 361 245 361 270 356 c 128,-1,3
 295 351 295 351 315.5 338.5 c 128,-1,4
 336 326 336 326 349.5 303.5 c 128,-1,5
 363 281 363 281 363 246 c 256,6,7
 363 211 363 211 351.5 189 c 128,-1,8
 340 167 340 167 321 154 c 128,-1,9
 302 141 302 141 277.5 136 c 128,-1,10
 253 131 253 131 228 131 c 2,11,-1
 219 131 l 1,12,-1
 219 361 l 1,0,-1
199 316 m 1,13,-1
 189 316 l 2,14,15
 163 316 163 316 139 321 c 128,-1,16
 115 326 115 326 96.5 339 c 128,-1,17
 78 352 78 352 66.5 375 c 128,-1,18
 55 398 55 398 55 435 c 2,19,-1
 55 726 l 1,20,21
 79 726 79 726 104.5 720 c 128,-1,22
 130 714 130 714 151 700.5 c 128,-1,23
 172 687 172 687 185.5 663.5 c 128,-1,24
 199 640 199 640 199 606 c 2,25,-1
 199 316 l 1,13,-1
55 42 m 2,26,27
 55 76 55 76 68 99.5 c 128,-1,28
 81 123 81 123 101.5 136.5 c 128,-1,29
 122 150 122 150 147.5 156 c 128,-1,30
 173 162 173 162 199 162 c 1,31,-1
 199 -129 l 2,32,33
 199 -166 199 -166 187.5 -189.5 c 128,-1,34
 176 -213 176 -213 157.5 -226.5 c 128,-1,35
 139 -240 139 -240 114.5 -245 c 128,-1,36
 90 -250 90 -250 65 -250 c 2,37,-1
 55 -250 l 1,38,-1
 55 42 l 2,26,27
EndSplineSet
EndChar

StartChar: braceleft
Encoding: 123 123 133
Width: 383
Flags: W
LayerCount: 2
Fore
SplineSet
164 131 m 1,0,-1
 155 131 l 2,1,2
 129 131 129 131 105 136 c 128,-1,3
 81 141 81 141 62 154 c 128,-1,4
 43 167 43 167 31.5 189 c 128,-1,5
 20 211 20 211 20 246 c 256,6,7
 20 281 20 281 33.5 303.5 c 128,-1,8
 47 326 47 326 67.5 338.5 c 128,-1,9
 88 351 88 351 112.5 356 c 128,-1,10
 137 361 137 361 160 361 c 2,11,-1
 164 361 l 1,12,-1
 164 131 l 1,0,-1
184 606 m 2,13,14
 184 640 184 640 196 663.5 c 128,-1,15
 208 687 208 687 228 700.5 c 128,-1,16
 248 714 248 714 274 720 c 128,-1,17
 300 726 300 726 328 726 c 1,18,-1
 328 435 l 2,19,20
 328 398 328 398 316.5 375 c 128,-1,21
 305 352 305 352 286.5 339 c 128,-1,22
 268 326 268 326 243.5 321 c 128,-1,23
 219 316 219 316 194 316 c 2,24,-1
 184 316 l 1,25,-1
 184 606 l 2,13,14
328 -250 m 1,26,-1
 318 -250 l 2,27,28
 292 -250 292 -250 268 -245 c 128,-1,29
 244 -240 244 -240 225.5 -226.5 c 128,-1,30
 207 -213 207 -213 195.5 -189.5 c 128,-1,31
 184 -166 184 -166 184 -129 c 2,32,-1
 184 162 l 1,33,34
 208 162 208 162 233.5 156 c 128,-1,35
 259 150 259 150 280 136.5 c 128,-1,36
 301 123 301 123 314.5 99.5 c 128,-1,37
 328 76 328 76 328 42 c 2,38,-1
 328 -250 l 1,26,-1
EndSplineSet
EndChar

StartChar: periodcentered
Encoding: 183 183 134
Width: 312
Flags: W
LayerCount: 2
Fore
SplineSet
96 292 m 2,0,1
 95 349 95 349 119.5 373 c 128,-1,2
 144 397 144 397 198 397 c 2,3,-1
 207 397 l 2,4,5
 212 397 212 397 217 395 c 1,6,-1
 217 319 l 2,7,8
 217 279 217 279 192 257 c 128,-1,9
 167 235 167 235 116 235 c 0,10,11
 111 235 111 235 106.5 235.5 c 128,-1,12
 102 236 102 236 97 236 c 1,13,-1
 96 292 l 2,0,1
EndSplineSet
EndChar

StartChar: ordmasculine
Encoding: 186 186 135
Width: 339
Flags: W
LayerCount: 2
Fore
SplineSet
284 575 m 2,0,1
 284 543 284 543 264 524.5 c 128,-1,2
 244 506 244 506 212 506 c 2,3,-1
 195 506 l 1,4,-1
 195 670 l 2,5,6
 195 682 195 682 191.5 692 c 128,-1,7
 188 702 188 702 173 702 c 0,8,9
 163 702 163 702 156 697 c 1,10,11
 154 701 154 701 153.5 706.5 c 128,-1,12
 153 712 153 712 153 715 c 0,13,14
 153 732 153 732 167 748 c 128,-1,15
 181 764 181 764 212 764 c 0,16,17
 247 764 247 764 265.5 744.5 c 128,-1,18
 284 725 284 725 284 690 c 2,19,-1
 284 575 l 2,0,1
55 695 m 2,20,21
 55 727 55 727 76.5 745.5 c 128,-1,22
 98 764 98 764 138 764 c 2,23,-1
 144 764 l 1,24,-1
 144 602 l 2,25,26
 144 588 144 588 147.5 578 c 128,-1,27
 151 568 151 568 166 568 c 0,28,29
 176 568 176 568 183 573 c 1,30,31
 186 565 186 565 186 556 c 0,32,33
 186 539 186 539 173 522.5 c 128,-1,34
 160 506 160 506 128 506 c 0,35,36
 94 506 94 506 74.5 525.5 c 128,-1,37
 55 545 55 545 55 580 c 2,38,-1
 55 695 l 2,20,21
EndSplineSet
EndChar

StartChar: degree
Encoding: 176 176 136
Width: 339
Flags: W
LayerCount: 2
Fore
SplineSet
55 695 m 2,0,1
 55 727 55 727 75 743.5 c 128,-1,2
 95 760 95 760 127 760 c 2,3,-1
 135 760 l 2,4,5
 139 760 139 760 144 759 c 1,6,-1
 144 600 l 2,7,8
 144 588 144 588 147.5 578 c 128,-1,9
 151 568 151 568 166 568 c 0,10,11
 176 568 176 568 183 573 c 1,12,13
 186 565 186 565 186 558 c 0,14,15
 186 541 186 541 170.5 524.5 c 128,-1,16
 155 508 155 508 129 506 c 1,17,-1
 123 506 l 2,18,19
 92 506 92 506 73.5 525.5 c 128,-1,20
 55 545 55 545 55 580 c 2,21,-1
 55 695 l 2,0,1
284 575 m 2,22,23
 284 543 284 543 264 526.5 c 128,-1,24
 244 510 244 510 212 510 c 2,25,-1
 203 510 l 2,26,27
 200 510 200 510 195 511 c 1,28,-1
 195 670 l 2,29,30
 195 682 195 682 191.5 692 c 128,-1,31
 188 702 188 702 173 702 c 0,32,33
 163 702 163 702 156 697 c 1,34,35
 153 704 153 704 153 712 c 0,36,37
 153 729 153 729 168.5 745.5 c 128,-1,38
 184 762 184 762 210 764 c 1,39,-1
 216 764 l 2,40,41
 247 764 247 764 265.5 744.5 c 128,-1,42
 284 725 284 725 284 690 c 2,43,-1
 284 575 l 2,22,23
EndSplineSet
EndChar

StartChar: onesuperior
Encoding: 185 185 137
Width: 198
Flags: W
LayerCount: 2
Fore
SplineSet
60 763 m 1,0,1
 76 763 76 763 92 759 c 128,-1,2
 108 755 108 755 120.5 746 c 128,-1,3
 133 737 133 737 140.5 721.5 c 128,-1,4
 148 706 148 706 148 684 c 2,5,-1
 148 577 l 2,6,7
 148 556 148 556 140.5 543 c 128,-1,8
 133 530 133 530 121 522.5 c 128,-1,9
 109 515 109 515 94.5 512.5 c 128,-1,10
 80 510 80 510 67 510 c 2,11,-1
 60 510 l 1,12,-1
 60 763 l 1,0,1
EndSplineSet
EndChar

StartChar: onequarter
Encoding: 188 188 138
Width: 593
Flags: W
LayerCount: 2
Fore
SplineSet
350 101 m 1,0,-1
 341 101 l 2,1,2
 319 101 319 101 298.5 107 c 128,-1,3
 278 113 278 113 262 126 c 128,-1,4
 246 139 246 139 236.5 160 c 128,-1,5
 227 181 227 181 227 211 c 2,6,-1
 227 275 l 2,7,8
 227 305 227 305 236.5 326 c 128,-1,9
 246 347 246 347 262 360 c 128,-1,10
 278 373 278 373 298.5 379 c 128,-1,11
 319 385 319 385 341 385 c 2,12,-1
 350 385 l 1,13,-1
 350 101 l 1,0,-1
365 185 m 2,14,15
 365 221 365 221 374.5 244.5 c 128,-1,16
 384 268 384 268 399.5 281.5 c 128,-1,17
 415 295 415 295 435 300 c 128,-1,18
 455 305 455 305 477 305 c 2,19,-1
 489 305 l 1,20,-1
 489 120 l 2,21,22
 489 84 489 84 479.5 60.5 c 128,-1,23
 470 37 470 37 454.5 23.5 c 128,-1,24
 439 10 439 10 419 5 c 128,-1,25
 399 0 399 0 377 0 c 2,26,-1
 365 0 l 1,27,-1
 365 185 l 2,14,15
573 212 m 1,28,29
 572 157 572 157 556 130.5 c 128,-1,30
 540 104 540 104 504 102 c 1,31,-1
 504 212 l 1,32,-1
 573 212 l 1,28,29
232 762 m 1,33,-1
 244 762 l 2,34,35
 266 762 266 762 289.5 757 c 128,-1,36
 313 752 313 752 332.5 738.5 c 128,-1,37
 352 725 352 725 364 701.5 c 128,-1,38
 376 678 376 678 376 642 c 2,39,-1
 376 526 l 2,40,41
 376 490 376 490 364 466.5 c 128,-1,42
 352 443 352 443 332.5 429.5 c 128,-1,43
 313 416 313 416 289.5 411 c 128,-1,44
 266 406 266 406 244 406 c 2,45,-1
 232 406 l 1,46,-1
 232 762 l 1,33,-1
194 0 m 1,47,-1
 182 0 l 2,48,49
 159 0 159 0 136 5 c 128,-1,50
 113 10 113 10 93.5 23.5 c 128,-1,51
 74 37 74 37 62 60.5 c 128,-1,52
 50 84 50 84 50 120 c 2,53,-1
 50 276 l 2,54,55
 50 312 50 312 62 335.5 c 128,-1,56
 74 359 74 359 93.5 372.5 c 128,-1,57
 113 386 113 386 136 391 c 128,-1,58
 159 396 159 396 182 396 c 2,59,-1
 194 396 l 1,60,-1
 194 0 l 1,47,-1
81 725 m 1,61,-1
 90 725 l 2,62,63
 112 725 112 725 133.5 719 c 128,-1,64
 155 713 155 713 171.5 700 c 128,-1,65
 188 687 188 687 198 666 c 128,-1,66
 208 645 208 645 208 615 c 2,67,-1
 208 551 l 2,68,69
 208 521 208 521 198 500 c 128,-1,70
 188 479 188 479 171.5 466 c 128,-1,71
 155 453 155 453 133.5 447 c 128,-1,72
 112 441 112 441 90 441 c 2,73,-1
 81 441 l 1,74,-1
 81 725 l 1,61,-1
EndSplineSet
EndChar

StartChar: percent
Encoding: 37 37 139
Width: 563
Flags: W
LayerCount: 2
Fore
SplineSet
222 0 m 1,0,-1
 210 0 l 2,1,2
 188 0 188 0 166 5 c 128,-1,3
 144 10 144 10 127 23.5 c 128,-1,4
 110 37 110 37 99 60.5 c 128,-1,5
 88 84 88 84 88 120 c 2,6,-1
 88 276 l 2,7,8
 88 312 88 312 99 335.5 c 128,-1,9
 110 359 110 359 127 372.5 c 128,-1,10
 144 386 144 386 166 391 c 128,-1,11
 188 396 188 396 210 396 c 2,12,-1
 222 396 l 1,13,-1
 222 0 l 1,0,-1
340 762 m 1,14,-1
 352 762 l 2,15,16
 374 762 374 762 396 757 c 128,-1,17
 418 752 418 752 435 738.5 c 128,-1,18
 452 725 452 725 463 701.5 c 128,-1,19
 474 678 474 678 474 642 c 2,20,-1
 474 486 l 2,21,22
 474 450 474 450 463 426.5 c 128,-1,23
 452 403 452 403 435 389.5 c 128,-1,24
 418 376 418 376 396 371 c 128,-1,25
 374 366 374 366 352 366 c 2,26,-1
 340 366 l 1,27,-1
 340 762 l 1,14,-1
139 555 m 2,28,29
 139 541 139 541 143 530 c 128,-1,30
 147 519 147 519 164 519 c 0,31,32
 177 519 177 519 184 526 c 128,-1,33
 191 533 191 533 196 536 c 1,34,35
 197 533 197 533 197 529 c 2,36,-1
 197 523 l 2,37,38
 197 497 197 497 181.5 476 c 128,-1,39
 166 455 166 455 129 455 c 0,40,41
 91 455 91 455 68 476.5 c 128,-1,42
 45 498 45 498 45 552 c 2,43,-1
 45 666 l 2,44,45
 45 709 45 709 71 727.5 c 128,-1,46
 97 746 97 746 130 746 c 2,47,-1
 139 746 l 1,48,-1
 139 555 l 2,28,29
350 101 m 2,49,50
 350 87 350 87 354 76 c 128,-1,51
 358 65 358 65 375 65 c 0,52,53
 388 65 388 65 395 72 c 128,-1,54
 402 79 402 79 407 82 c 1,55,56
 408 79 408 79 408 75 c 2,57,-1
 408 69 l 2,58,59
 408 43 408 43 392.5 22 c 128,-1,60
 377 1 377 1 340 1 c 0,61,62
 297 1 297 1 276.5 25 c 128,-1,63
 256 49 256 49 256 103 c 2,64,-1
 256 212 l 2,65,66
 256 255 256 255 282 273.5 c 128,-1,67
 308 292 308 292 341 292 c 2,68,-1
 350 292 l 1,69,-1
 350 101 l 2,49,50
424 209 m 2,70,71
 424 223 424 223 419.5 234 c 128,-1,72
 415 245 415 245 398 245 c 0,73,74
 385 245 385 245 378 238 c 128,-1,75
 371 231 371 231 366 228 c 1,76,77
 366 231 366 231 365.5 233.5 c 128,-1,78
 365 236 365 236 365 239 c 0,79,80
 365 252 365 252 368 264.5 c 128,-1,81
 371 277 371 277 378.5 287 c 128,-1,82
 386 297 386 297 399.5 303 c 128,-1,83
 413 309 413 309 433 309 c 0,84,85
 518 309 518 309 518 202 c 2,86,-1
 518 98 l 2,87,88
 518 76 518 76 510.5 61 c 128,-1,89
 503 46 503 46 491 36.5 c 128,-1,90
 479 27 479 27 463.5 22.5 c 128,-1,91
 448 18 448 18 432 18 c 2,92,-1
 424 18 l 1,93,-1
 424 209 l 2,70,71
213 663 m 2,94,95
 213 677 213 677 208.5 688 c 128,-1,96
 204 699 204 699 187 699 c 0,97,98
 174 699 174 699 167 692 c 128,-1,99
 160 685 160 685 155 682 c 1,100,101
 155 685 155 685 154.5 687.5 c 128,-1,102
 154 690 154 690 154 693 c 0,103,104
 154 706 154 706 157 718.5 c 128,-1,105
 160 731 160 731 167.5 741 c 128,-1,106
 175 751 175 751 188.5 757 c 128,-1,107
 202 763 202 763 222 763 c 0,108,109
 307 763 307 763 307 656 c 2,110,-1
 307 552 l 2,111,112
 307 530 307 530 299.5 515 c 128,-1,113
 292 500 292 500 280 490.5 c 128,-1,114
 268 481 268 481 252.5 476.5 c 128,-1,115
 237 472 237 472 221 472 c 2,116,-1
 213 472 l 1,117,-1
 213 663 l 2,94,95
EndSplineSet
EndChar

StartChar: onehalf
Encoding: 189 189 140
Width: 545
Flags: W
LayerCount: 2
Fore
SplineSet
194 0 m 1,0,-1
 182 0 l 2,1,2
 159 0 159 0 136 5 c 128,-1,3
 113 10 113 10 93.5 23.5 c 128,-1,4
 74 37 74 37 62 60.5 c 128,-1,5
 50 84 50 84 50 120 c 2,6,-1
 50 276 l 2,7,8
 50 312 50 312 62 335.5 c 128,-1,9
 74 359 74 359 93.5 372.5 c 128,-1,10
 113 386 113 386 136 391 c 128,-1,11
 159 396 159 396 182 396 c 2,12,-1
 194 396 l 1,13,-1
 194 0 l 1,0,-1
232 762 m 1,14,-1
 244 762 l 2,15,16
 266 762 266 762 289.5 757 c 128,-1,17
 313 752 313 752 332.5 738.5 c 128,-1,18
 352 725 352 725 364 701.5 c 128,-1,19
 376 678 376 678 376 642 c 2,20,-1
 376 526 l 2,21,22
 376 490 376 490 364 466.5 c 128,-1,23
 352 443 352 443 332.5 429.5 c 128,-1,24
 313 416 313 416 289.5 411 c 128,-1,25
 266 406 266 406 244 406 c 2,26,-1
 232 406 l 1,27,-1
 232 762 l 1,14,-1
81 725 m 1,28,-1
 90 725 l 2,29,30
 112 725 112 725 133.5 719 c 128,-1,31
 155 713 155 713 171.5 700 c 128,-1,32
 188 687 188 687 198 666 c 128,-1,33
 208 645 208 645 208 615 c 2,34,-1
 208 551 l 2,35,36
 208 521 208 521 198 500 c 128,-1,37
 188 479 188 479 171.5 466 c 128,-1,38
 155 453 155 453 133.5 447 c 128,-1,39
 112 441 112 441 90 441 c 2,40,-1
 81 441 l 1,41,-1
 81 725 l 1,28,-1
376 399 m 1,42,43
 381 400 381 400 385 400 c 2,44,-1
 394 400 l 2,45,46
 416 400 416 400 436 393.5 c 128,-1,47
 456 387 456 387 471.5 374.5 c 128,-1,48
 487 362 487 362 496 343 c 128,-1,49
 505 324 505 324 505 300 c 2,50,-1
 505 271 l 2,51,52
 505 240 505 240 492.5 221 c 128,-1,53
 480 202 480 202 461.5 191 c 128,-1,54
 443 180 443 180 421.5 176 c 128,-1,55
 400 172 400 172 381 172 c 2,56,-1
 376 172 l 1,57,-1
 376 399 l 1,42,43
225 95 m 2,58,59
 225 121 225 121 235 137 c 128,-1,60
 245 153 245 153 259 162 c 128,-1,61
 273 171 273 171 288.5 174 c 128,-1,62
 304 177 304 177 316 177 c 0,63,64
 324 177 324 177 332 175 c 1,65,-1
 332 120 l 2,66,67
 332 103 332 103 335 95 c 128,-1,68
 338 87 338 87 349 87 c 0,69,70
 364 87 364 87 371 97 c 1,71,72
 377 79 377 79 377 63 c 0,73,74
 377 37 377 37 360.5 18 c 128,-1,75
 344 -1 344 -1 312 -1 c 0,76,77
 277 -1 277 -1 251 21.5 c 128,-1,78
 225 44 225 44 225 79 c 2,79,-1
 225 95 l 2,58,59
500 1 m 1,80,81
 495 1 495 1 491 0.5 c 128,-1,82
 487 0 487 0 482 0 c 0,83,84
 465 0 465 0 447.5 3.5 c 128,-1,85
 430 7 430 7 415.5 17.5 c 128,-1,86
 401 28 401 28 392 46 c 128,-1,87
 383 64 383 64 383 93 c 0,88,89
 383 121 383 121 393.5 138 c 128,-1,90
 404 155 404 155 420 164.5 c 128,-1,91
 436 174 436 174 453 177.5 c 128,-1,92
 470 181 470 181 484 181 c 0,93,94
 496 181 496 181 500 180 c 1,95,-1
 500 1 l 1,80,81
216 319 m 0,96,97
 216 332 216 332 220.5 346.5 c 128,-1,98
 225 361 225 361 234.5 372.5 c 128,-1,99
 244 384 244 384 259.5 391.5 c 128,-1,100
 275 399 275 399 296 399 c 0,101,102
 331 399 331 399 349.5 380.5 c 128,-1,103
 368 362 368 362 368 336 c 0,104,105
 368 319 368 319 362 301 c 1,106,107
 355 311 355 311 340 311 c 0,108,109
 329 311 329 311 326 303 c 128,-1,110
 323 295 323 295 323 278 c 2,111,-1
 323 238 l 1,112,113
 322 237 322 237 309 237 c 0,114,115
 298 237 298 237 282 240 c 128,-1,116
 266 243 266 243 251.5 251.5 c 128,-1,117
 237 260 237 260 226.5 276 c 128,-1,118
 216 292 216 292 216 319 c 0,96,97
EndSplineSet
EndChar

StartChar: threequarters
Encoding: 190 190 141
Width: 684
Flags: W
LayerCount: 2
Fore
SplineSet
285 0 m 1,0,-1
 273 0 l 2,1,2
 250 0 250 0 227 5 c 128,-1,3
 204 10 204 10 184.5 23.5 c 128,-1,4
 165 37 165 37 153 60.5 c 128,-1,5
 141 84 141 84 141 120 c 2,6,-1
 141 276 l 2,7,8
 141 312 141 312 153 335.5 c 128,-1,9
 165 359 165 359 184.5 372.5 c 128,-1,10
 204 386 204 386 227 391 c 128,-1,11
 250 396 250 396 273 396 c 2,12,-1
 285 396 l 1,13,-1
 285 0 l 1,0,-1
323 762 m 1,14,-1
 335 762 l 2,15,16
 357 762 357 762 380.5 757 c 128,-1,17
 404 752 404 752 423.5 738.5 c 128,-1,18
 443 725 443 725 455 701.5 c 128,-1,19
 467 678 467 678 467 642 c 2,20,-1
 467 526 l 2,21,22
 467 490 467 490 455 466.5 c 128,-1,23
 443 443 443 443 423.5 429.5 c 128,-1,24
 404 416 404 416 380.5 411 c 128,-1,25
 357 406 357 406 335 406 c 2,26,-1
 323 406 l 1,27,-1
 323 762 l 1,14,-1
456 185 m 2,28,29
 456 221 456 221 465.5 244.5 c 128,-1,30
 475 268 475 268 490.5 281.5 c 128,-1,31
 506 295 506 295 526 300 c 128,-1,32
 546 305 546 305 568 305 c 2,33,-1
 580 305 l 1,34,-1
 580 120 l 2,35,36
 580 84 580 84 570.5 60.5 c 128,-1,37
 561 37 561 37 545.5 23.5 c 128,-1,38
 530 10 530 10 510 5 c 128,-1,39
 490 0 490 0 468 0 c 2,40,-1
 456 0 l 1,41,-1
 456 185 l 2,28,29
441 101 m 1,42,-1
 432 101 l 2,43,44
 410 101 410 101 389.5 107 c 128,-1,45
 369 113 369 113 353 126 c 128,-1,46
 337 139 337 139 327.5 160 c 128,-1,47
 318 181 318 181 318 211 c 2,48,-1
 318 275 l 2,49,50
 318 305 318 305 327.5 326 c 128,-1,51
 337 347 337 347 353 360 c 128,-1,52
 369 373 369 373 389.5 379 c 128,-1,53
 410 385 410 385 432 385 c 2,54,-1
 441 385 l 1,55,-1
 441 101 l 1,42,-1
193 565 m 1,56,-1
 193 723 l 1,57,58
 198 724 198 724 203 724 c 2,59,-1
 213 724 l 2,60,61
 228 724 228 724 244 720.5 c 128,-1,62
 260 717 260 717 273.5 708 c 128,-1,63
 287 699 287 699 295.5 683.5 c 128,-1,64
 304 668 304 668 304 643 c 0,65,66
 304 617 304 617 294 601.5 c 128,-1,67
 284 586 284 586 269 578 c 128,-1,68
 254 570 254 570 236 567 c 0,69,70
 224 566 224 566 213 565 c 1,71,72
 226 564 226 564 240 562 c 0,73,74
 257 560 257 560 271.5 552 c 128,-1,75
 286 544 286 544 295 529 c 128,-1,76
 304 514 304 514 304 489 c 0,77,78
 304 463 304 463 295 447 c 128,-1,79
 286 431 286 431 272 422 c 128,-1,80
 258 413 258 413 241 410 c 128,-1,81
 224 407 224 407 209 407 c 0,82,83
 204 407 204 407 200.5 407.5 c 128,-1,84
 197 408 197 408 193 408 c 1,85,-1
 193 565 l 1,56,-1
50 659 m 0,86,87
 50 682 50 682 67 702 c 128,-1,88
 84 722 84 722 119 722 c 0,89,90
 148 722 148 722 163 705.5 c 128,-1,91
 178 689 178 689 178 666 c 0,92,93
 178 655 178 655 175 645 c 1,94,95
 171 650 171 650 166.5 651.5 c 128,-1,96
 162 653 162 653 157 653 c 0,97,98
 149 653 149 653 146.5 646.5 c 128,-1,99
 144 640 144 640 144 627 c 2,100,-1
 144 596 l 1,101,102
 142 596 142 596 139.5 595.5 c 128,-1,103
 137 595 137 595 132 595 c 0,104,105
 122 595 122 595 108 597 c 128,-1,106
 94 599 94 599 81 606 c 128,-1,107
 68 613 68 613 59 625.5 c 128,-1,108
 50 638 50 638 50 659 c 0,86,87
50 471 m 0,109,110
 50 491 50 491 59 503.5 c 128,-1,111
 68 516 68 516 80.5 522.5 c 128,-1,112
 93 529 93 529 107 531.5 c 128,-1,113
 121 534 121 534 131 534 c 0,114,115
 143 534 143 534 144 533 c 1,116,-1
 144 503 l 2,117,118
 144 489 144 489 146.5 483 c 128,-1,119
 149 477 149 477 157 477 c 0,120,121
 162 477 162 477 166.5 478 c 128,-1,122
 171 479 171 479 175 484 c 1,123,124
 178 473 178 473 178 463 c 0,125,126
 178 440 178 440 163.5 424 c 128,-1,127
 149 408 149 408 121 408 c 0,128,129
 92 408 92 408 71 425 c 128,-1,130
 50 442 50 442 50 471 c 0,109,110
664 212 m 1,131,132
 663 157 663 157 647 130.5 c 128,-1,133
 631 104 631 104 595 102 c 1,134,-1
 595 212 l 1,135,-1
 664 212 l 1,131,132
EndSplineSet
EndChar

StartChar: parenleft
Encoding: 40 40 142
Width: 538
Flags: W
LayerCount: 2
Fore
SplineSet
214 -100 m 1,0,-1
 204 -100 l 2,1,2
 178 -100 178 -100 154 -95 c 128,-1,3
 130 -90 130 -90 111.5 -77 c 128,-1,4
 93 -64 93 -64 81.5 -41 c 128,-1,5
 70 -18 70 -18 70 19 c 2,6,-1
 70 506 l 2,7,8
 70 542 70 542 81 565 c 128,-1,9
 92 588 92 588 110 601.5 c 128,-1,10
 128 615 128 615 151 620.5 c 128,-1,11
 174 626 174 626 198 626 c 2,12,-1
 214 626 l 1,13,-1
 214 -100 l 1,0,-1
260 591 m 2,14,15
 260 654 260 654 292 690 c 128,-1,16
 324 726 324 726 384 726 c 0,17,18
 411 726 411 726 429.5 718.5 c 128,-1,19
 448 711 448 711 458.5 699 c 128,-1,20
 469 687 469 687 473.5 671.5 c 128,-1,21
 478 656 478 656 478 640 c 0,22,23
 478 627 478 627 472 611 c 1,24,25
 458 623 458 623 447 623 c 0,26,27
 427 623 427 623 419.5 606 c 128,-1,28
 412 589 412 589 412 569 c 2,29,-1
 412 -81 l 2,30,31
 412 -92 412 -92 413 -103.5 c 128,-1,32
 414 -115 414 -115 418 -124.5 c 128,-1,33
 422 -134 422 -134 428.5 -140 c 128,-1,34
 435 -146 435 -146 447 -146 c 0,35,36
 455 -146 455 -146 460 -143.5 c 128,-1,37
 465 -141 465 -141 470 -136 c 1,38,39
 474 -136 474 -136 476 -147.5 c 128,-1,40
 478 -159 478 -159 478 -163 c 0,41,42
 478 -179 478 -179 473.5 -194.5 c 128,-1,43
 469 -210 469 -210 458.5 -222 c 128,-1,44
 448 -234 448 -234 430.5 -241.5 c 128,-1,45
 413 -249 413 -249 386 -249 c 0,46,47
 326 -249 326 -249 293 -213 c 128,-1,48
 260 -177 260 -177 260 -114 c 2,49,-1
 260 591 l 2,14,15
EndSplineSet
EndChar

StartChar: parenright
Encoding: 41 41 143
Width: 538
Flags: W
LayerCount: 2
Fore
SplineSet
324 626 m 1,0,-1
 340 626 l 2,1,2
 364 626 364 626 387 620.5 c 128,-1,3
 410 615 410 615 428 601.5 c 128,-1,4
 446 588 446 588 457 565 c 128,-1,5
 468 542 468 542 468 506 c 2,6,-1
 468 19 l 2,7,8
 468 -18 468 -18 456.5 -41 c 128,-1,9
 445 -64 445 -64 426.5 -77 c 128,-1,10
 408 -90 408 -90 383.5 -95 c 128,-1,11
 359 -100 359 -100 334 -100 c 2,12,-1
 324 -100 l 1,13,-1
 324 626 l 1,0,-1
278 -114 m 2,14,15
 278 -177 278 -177 246 -213 c 128,-1,16
 214 -249 214 -249 154 -249 c 0,17,18
 127 -249 127 -249 108.5 -241.5 c 128,-1,19
 90 -234 90 -234 79.5 -222 c 128,-1,20
 69 -210 69 -210 64.5 -194.5 c 128,-1,21
 60 -179 60 -179 60 -163 c 0,22,23
 60 -155 60 -155 61.5 -148.5 c 128,-1,24
 63 -142 63 -142 66 -134 c 1,25,26
 79 -146 79 -146 91 -146 c 256,27,28
 103 -146 103 -146 109.5 -140 c 128,-1,29
 116 -134 116 -134 120 -124.5 c 128,-1,30
 124 -115 124 -115 125 -103.5 c 128,-1,31
 126 -92 126 -92 126 -81 c 2,32,-1
 126 569 l 2,33,34
 126 589 126 589 118.5 606 c 128,-1,35
 111 623 111 623 91 623 c 0,36,37
 83 623 83 623 78 620.5 c 128,-1,38
 73 618 73 618 68 613 c 1,39,40
 64 620 64 620 62 624.5 c 128,-1,41
 60 629 60 629 60 640 c 0,42,43
 60 656 60 656 65 671.5 c 128,-1,44
 70 687 70 687 81.5 699 c 128,-1,45
 93 711 93 711 111 718.5 c 128,-1,46
 129 726 129 726 156 726 c 0,47,48
 216 726 216 726 247 690 c 128,-1,49
 278 654 278 654 278 591 c 2,50,-1
 278 -114 l 2,14,15
EndSplineSet
EndChar

StartChar: ordfeminine
Encoding: 170 170 144
Width: 339
Flags: W
LayerCount: 2
Fore
SplineSet
195 670 m 2,0,1
 195 682 195 682 191.5 692 c 128,-1,2
 188 702 188 702 173 702 c 0,3,4
 163 702 163 702 156 697 c 1,5,6
 153 704 153 704 153 715 c 0,7,8
 153 733 153 733 167 748.5 c 128,-1,9
 181 764 181 764 216 764 c 0,10,11
 247 764 247 764 265.5 744.5 c 128,-1,12
 284 725 284 725 284 690 c 2,13,-1
 284 507 l 1,14,15
 279 506 279 506 275 506 c 2,16,-1
 267 506 l 2,17,18
 235 506 235 506 215 524.5 c 128,-1,19
 195 543 195 543 195 575 c 2,20,-1
 195 670 l 2,0,1
55 675 m 2,21,22
 55 709 55 709 76 729.5 c 128,-1,23
 97 750 97 750 130 750 c 0,24,25
 141 750 141 750 144 749 c 1,26,-1
 144 600 l 2,27,28
 144 588 144 588 147.5 578 c 128,-1,29
 151 568 151 568 166 568 c 0,30,31
 176 568 176 568 183 573 c 1,32,33
 186 565 186 565 186 554 c 0,34,35
 186 536 186 536 170 521 c 128,-1,36
 154 506 154 506 123 506 c 256,37,38
 92 506 92 506 73.5 525.5 c 128,-1,39
 55 545 55 545 55 580 c 2,40,-1
 55 675 l 2,21,22
EndSplineSet
EndChar

